<?xml version="1.0" encoding="utf-8"?>
<!-- Generator: Adobe Illustrator 19.1.0, SVG Export Plug-In . SVG Version: 6.00 Build 0)  -->
<svg version="1.1" xmlns="http://www.w3.org/2000/svg" xmlns:xlink="http://www.w3.org/1999/xlink" x="0px" y="0px"
	 viewBox="0 0 40.9 41.6" style="enable-background:new 0 0 40.9 41.6;" xml:space="preserve">
<style type="text/css">
	.st0{fill:#D8AB52;}
	.st1{opacity:0.19;fill:#FFFFFF;}
	.st2{fill:#155B51;}
	.st3{opacity:0.1;fill:#FFFFFF;}
	.st4{fill:#F2E6C4;}
	.st5{fill:#00A490;}
	.st6{fill:#D6C296;}
	.st7{fill:#00F1D3;}
	.st8{fill:#00F1D3;stroke:#00A490;stroke-width:2;stroke-miterlimit:10;}
	.st9{fill:none;stroke:#00A490;stroke-width:2;stroke-miterlimit:10;}
	.st10{fill:#A4FFF2;}
	.st11{opacity:0.3;fill:#FFFFFF;}
	.st12{opacity:0.4;fill:#155B51;}
	.st13{opacity:0.2;fill:#155B51;}
	.st14{opacity:0.1;}
	.st15{clip-path:url(#SVGID_4_);fill:#FFFFFF;}
	.st16{clip-path:url(#SVGID_6_);}
	.st17{opacity:0.5;fill:#00F1D3;}
	.st18{fill:#149680;}
	.st19{fill:#1CB7A1;}
	.st20{opacity:0.2;}
	.st21{fill:#FFFFFF;}
	.st22{clip-path:url(#SVGID_6_);fill:#00F1D3;}
	.st23{clip-path:url(#SVGID_8_);fill:#FFFFFF;}
	.st24{fill:#968D78;}
	.st25{opacity:0.5;fill:#F2E6C4;}
	.st26{fill:#A42000;}
	.st27{opacity:0.5;fill:#FF4317;}
	.st28{opacity:0.2;fill:#F2E6C4;}
	.st29{fill:#827F7A;}
	.st30{opacity:0.5;fill:#AAA393;}
	.st31{opacity:0.5;fill:#EAE9C1;}
	.st32{fill:#F9E8BD;}
</style>
	<polygon class="st7" points="0.4,40.9 0.4,40.9 0.3,40.9 	"/>
	<polyline class="st5" points="0.3,40.9 0.4,40.9 0.4,40.9 0.3,40.9 	"/>
	<path class="st7" d="M40.7,5.8c-0.1-0.1-0.3-0.2-0.5-0.2s-0.3,0.1-0.5,0.2l-9.6,9.6c-0.1,0.1-0.3,0.2-0.5,0.2s-0.3-0.1-0.5-0.2
		c-0.3-0.3-0.3-0.7,0-0.9l9.6-9.6c0.3-0.3,0.3-0.7,0-0.9c-0.1-0.1-0.3-0.2-0.5-0.2S38,3.8,37.9,3.9l-9.6,9.6
		c-0.1,0.1-0.3,0.2-0.5,0.2s-0.3-0.1-0.5-0.2c-0.3-0.3-0.3-0.7,0-0.9L36.9,3c0.3-0.3,0.3-0.7,0-0.9c-0.1-0.1-0.3-0.2-0.5-0.2
		S36.2,1.9,36,2l-9.6,9.6c-0.1,0.1-0.3,0.2-0.5,0.2s-0.3-0.1-0.5-0.2c-0.3-0.3-0.3-0.7,0-0.9l9.6-9.6c0.3-0.3,0.3-0.7,0-0.9
		C35,0.1,34.8,0,34.6,0s-0.3,0.1-0.5,0.2l-9.7,9.7c-1.5,1.5-1.9,4-0.9,5.8L0.4,38.9c-0.5,0.5-0.5,1.4,0,2c0.2,0.2,0.5,0.3,0.8,0.3
		c0.4,0,0.8-0.2,1.1-0.4l23.3-23.3c0.6,0.3,1.2,0.4,1.9,0.4c1.3,0,2.6-0.5,3.5-1.5l9.7-9.7C40.9,6.4,40.9,6,40.7,5.8z"/>
	<path class="st7" d="M27.2,26.8c-0.8-0.8-1.1-2-0.8-3.1l0.3-1.3c0.3-0.9,0.1-1.9-0.5-2.7c0,0-0.1,0-0.1,0l-4.8,4.8l16.6,16.6
		c0.5,0.5,1.3,0.5,1.9,0c0.5-0.5,0.5-1.3,0-1.9L27.2,26.8z"/>
	<path class="st7" d="M21.3,15.2c-0.1-0.2-0.1-0.5-0.1-0.7l-8.4-8.4c-2.1-2.1-5-3.4-8-3.4C3.2,2.7,1.7,3,0.7,4l15.9,15.9L21.3,15.2z
		"/>
</svg>
