<?xml version="1.0" encoding="utf-8"?>
<!-- Generator: Adobe Illustrator 19.1.0, SVG Export Plug-In . SVG Version: 6.00 Build 0)  -->
<svg version="1.1" xmlns="http://www.w3.org/2000/svg" xmlns:xlink="http://www.w3.org/1999/xlink" x="0px" y="0px"
	 viewBox="0 0 57.9 57.9" style="enable-background:new 0 0 57.9 57.9;" xml:space="preserve">
<style type="text/css">
	.st0{clip-path:url(#SVGID_2_);}
	.st1{fill:#149680;}
	.st2{fill:#1CB7A1;}
	.st3{opacity:0.5;fill:#00F1D3;}
	.st4{opacity:0.2;}
	.st5{fill:#FFFFFF;}
	.st6{fill:#00F1D3;}
	.st7{clip-path:url(#SVGID_2_);fill:#155B51;}
	.st8{opacity:0.1;clip-path:url(#SVGID_2_);fill:#FFFFFF;}
	.st9{opacity:0.1;fill:#FFFFFF;}
	.st10{clip-path:url(#SVGID_2_);fill:none;}
	.st11{fill:#155B51;}
	.st12{fill:#F2E6C4;}
	.st13{opacity:0.5;fill:#D6C296;}
	.st14{fill:#00A490;}
	.st15{clip-path:url(#SVGID_4_);}
	.st16{clip-path:url(#SVGID_4_);fill:#155B51;}
	.st17{opacity:0.1;clip-path:url(#SVGID_4_);fill:#FFFFFF;}
	.st18{opacity:0.3;fill:#FFFFFF;}
	.st19{opacity:0.2;fill:#155B51;}
	.st20{opacity:0.4;fill:#155B51;}
	.st21{opacity:0.1;}
	.st22{clip-path:url(#SVGID_6_);fill:#FFFFFF;}
	.st23{opacity:4.000000e-002;clip-path:url(#SVGID_4_);fill:#FFFFFF;}
	.st24{fill:#D8AB52;}
	.st25{opacity:0.19;fill:#FFFFFF;}
	.st26{fill:#D6C296;}
	.st27{fill:#00F1D3;stroke:#00A490;stroke-width:2;stroke-miterlimit:10;}
	.st28{fill:none;stroke:#00A490;stroke-width:2;stroke-miterlimit:10;}
	.st29{fill:#A4FFF2;}
	.st30{clip-path:url(#SVGID_10_);fill:#FFFFFF;}
	.st31{clip-path:url(#SVGID_12_);}
	.st32{clip-path:url(#SVGID_12_);fill:#00F1D3;}
	.st33{clip-path:url(#SVGID_14_);fill:#FFFFFF;}
	.st34{clip-path:url(#SVGID_16_);}
	.st35{fill:#968D78;}
	.st36{opacity:0.5;fill:#F2E6C4;}
	.st37{fill:#A42000;}
	.st38{opacity:0.5;fill:#FF4317;}
	.st39{opacity:0.2;fill:#F2E6C4;}
	.st40{fill:#827F7A;}
	.st41{opacity:0.5;fill:#AAA393;}
	.st42{opacity:0.5;fill:#EAE9C1;}
	.st43{fill:#A4FFF2;stroke:#00A490;stroke-width:2;stroke-miterlimit:10;}
	.st44{fill:#F9E8BD;}
	.st45{opacity:0.21;fill:#968D78;}
	.st46{opacity:0.5;fill:#1CB7A1;}
	.st47{opacity:0.5;fill:#FFFFFF;}
	.st48{fill:none;}
	.st49{clip-path:url(#SVGID_24_);fill:#FFFFFF;}
	.st50{clip-path:url(#SVGID_26_);fill:#155B51;}
	.st51{opacity:0.1;clip-path:url(#SVGID_26_);fill:#FFFFFF;}
	.st52{clip-path:url(#SVGID_30_);}
	.st53{clip-path:url(#SVGID_30_);fill:#D6C296;}
	.st54{opacity:5.000000e-002;}
	.st55{opacity:0.5;fill:#968D78;}
	.st56{clip-path:url(#SVGID_36_);}
	.st57{clip-path:url(#SVGID_36_);fill:#00F1D3;}
	.st58{clip-path:url(#SVGID_38_);fill:#FFFFFF;}
	.st59{opacity:0.5;}
	.st60{clip-path:url(#SVGID_44_);}
	.st61{clip-path:url(#SVGID_44_);fill:#155B51;}
	.st62{opacity:0.1;clip-path:url(#SVGID_44_);fill:#FFFFFF;}
	.st63{clip-path:url(#SVGID_46_);fill:#FFFFFF;}
	.st64{opacity:4.000000e-002;clip-path:url(#SVGID_44_);fill:#FFFFFF;}
	.st65{clip-path:url(#SVGID_52_);fill:#155B51;}
	.st66{opacity:0.1;clip-path:url(#SVGID_52_);fill:#FFFFFF;}
	.st67{clip-path:url(#SVGID_56_);}
	.st68{clip-path:url(#SVGID_56_);fill:#D6C296;}
	.st69{clip-path:url(#SVGID_62_);}
	.st70{opacity:0.21;}
</style>
<g id="Layer_1">
	<g>
		<circle class="st26" cx="28.9" cy="28.9" r="28.9"/>
		<path class="st12" d="M28.9,52.9C15.7,52.9,5,42.1,5,28.9S15.7,5,28.9,5c13.2,0,23.9,10.7,23.9,23.9S42.1,52.9,28.9,52.9z"/>
		<path class="st26" d="M19.1,40.9l35.2-18.2L52,38.2l-9.3,7.3c0,0-0.8,0.2-1.3,0S38.7,40,38.7,40l-8.4,5.5L28,44.7l-1.1-2.8
			l-9.4,3.7L19.1,40.9z"/>
		<g>
			<g>
				<g>
					<path class="st35" d="M17,25.3c-3,0-5.5-2.5-5.5-5.5s2.5-5.5,5.5-5.5s5.5,2.5,5.5,5.5S20,25.3,17,25.3z"/>
					<circle class="st35" cx="17" cy="19.8" r="4.8"/>
					<path class="st36" d="M17,23.4c-2,0-3.5-1.6-3.5-3.5s1.6-3.5,3.5-3.5s3.5,1.6,3.5,3.5S18.9,23.4,17,23.4z"/>
					<ellipse class="st12" cx="18.1" cy="18.7" rx="1.9" ry="2.1"/>
				</g>
				<g>
					<path class="st35" d="M17,45.7c-3.6,0-5.5-14.5-5.5-16.2c0-3,2.5-5.5,5.5-5.5s5.5,2.5,5.5,5.5C22.4,31.2,20.5,45.7,17,45.7z"/>
					<path class="st35" d="M21.8,29.5c0-2.7-2.2-4.8-4.8-4.8s-4.8,2.2-4.8,4.8s2.2,15.6,4.8,15.6S21.8,32.1,21.8,29.5z"/>
					<path class="st36" d="M17,43.7c-1.5-1.4-3.5-11.1-3.5-14.2c0-2,1.6-3.5,3.5-3.5s3.5,1.6,3.5,3.5C20.5,32.6,18.5,42.3,17,43.7z"
						/>
					<ellipse class="st12" cx="18.3" cy="28.1" rx="1.6" ry="1.8"/>
				</g>
			</g>
			<g>
				<g>
					<path class="st35" d="M29.5,25.3c-3,0-5.5-2.5-5.5-5.5s2.5-5.5,5.5-5.5s5.5,2.5,5.5,5.5S32.5,25.3,29.5,25.3z"/>
					<circle class="st35" cx="29.5" cy="19.8" r="4.8"/>
					<path class="st36" d="M29.5,23.4c-2,0-3.5-1.6-3.5-3.5s1.6-3.5,3.5-3.5s3.5,1.6,3.5,3.5S31.5,23.4,29.5,23.4z"/>
					<ellipse class="st12" cx="30.6" cy="18.7" rx="1.9" ry="2.1"/>
				</g>
				<g>
					<path class="st35" d="M29.5,45.7c-3.6,0-5.5-14.5-5.5-16.2c0-3,2.5-5.5,5.5-5.5s5.5,2.5,5.5,5.5C35,31.2,33.1,45.7,29.5,45.7z"
						/>
					<path class="st35" d="M34.3,29.5c0-2.7-2.2-4.8-4.8-4.8s-4.8,2.2-4.8,4.8s2.2,15.6,4.8,15.6S34.3,32.1,34.3,29.5z"/>
					<path class="st36" d="M29.5,43.7C28,42.3,26,32.6,26,29.5c0-2,1.6-3.5,3.5-3.5s3.5,1.6,3.5,3.5C33.1,32.6,31.1,42.3,29.5,43.7z
						"/>
					<ellipse class="st12" cx="30.9" cy="28.1" rx="1.6" ry="1.8"/>
				</g>
			</g>
			<g>
				<g>
					<path class="st35" d="M42.1,25.3c-3,0-5.5-2.5-5.5-5.5s2.5-5.5,5.5-5.5s5.5,2.5,5.5,5.5S45.1,25.3,42.1,25.3z"/>
					<circle class="st35" cx="42.1" cy="19.8" r="4.8"/>
					<path class="st36" d="M42.1,23.4c-2,0-3.5-1.6-3.5-3.5s1.6-3.5,3.5-3.5s3.5,1.6,3.5,3.5S44,23.4,42.1,23.4z"/>
					<ellipse class="st12" cx="43.1" cy="18.7" rx="1.9" ry="2.1"/>
				</g>
				<g>
					<path class="st35" d="M42.1,45.7c-3.6,0-5.5-14.5-5.5-16.2c0-3,2.5-5.5,5.5-5.5s5.5,2.5,5.5,5.5C47.5,31.2,45.6,45.7,42.1,45.7
						z"/>
					<path class="st35" d="M46.9,29.5c0-2.7-2.2-4.8-4.8-4.8s-4.8,2.2-4.8,4.8s2.2,15.6,4.8,15.6S46.9,32.1,46.9,29.5z"/>
					<path class="st36" d="M42.1,43.7c-1.5-1.4-3.5-11.1-3.5-14.2c0-2,1.6-3.5,3.5-3.5s3.5,1.6,3.5,3.5
						C45.6,32.6,43.6,42.3,42.1,43.7z"/>
					<ellipse class="st12" cx="43.4" cy="28.1" rx="1.6" ry="1.8"/>
				</g>
			</g>
		</g>
	</g>
</g>
<g id="Layer_2">
</g>
</svg>
