<?xml version="1.0" encoding="utf-8"?>
<!-- Generator: Adobe Illustrator 19.1.0, SVG Export Plug-In . SVG Version: 6.00 Build 0)  -->
<svg version="1.1" xmlns="http://www.w3.org/2000/svg" xmlns:xlink="http://www.w3.org/1999/xlink" x="0px" y="0px"
	 viewBox="0 0 57.9 57.9" style="enable-background:new 0 0 57.9 57.9;" xml:space="preserve">
<style type="text/css">
	.st0{clip-path:url(#SVGID_2_);}
	.st1{fill:#149680;}
	.st2{fill:#1CB7A1;}
	.st3{opacity:0.5;fill:#00F1D3;}
	.st4{opacity:0.2;}
	.st5{fill:#FFFFFF;}
	.st6{fill:#00F1D3;}
	.st7{clip-path:url(#SVGID_2_);fill:#155B51;}
	.st8{opacity:0.1;clip-path:url(#SVGID_2_);fill:#FFFFFF;}
	.st9{opacity:0.1;fill:#FFFFFF;}
	.st10{clip-path:url(#SVGID_2_);fill:none;}
	.st11{fill:#155B51;}
	.st12{fill:#F2E6C4;}
	.st13{opacity:0.5;fill:#D6C296;}
	.st14{fill:#00A490;}
	.st15{clip-path:url(#SVGID_4_);}
	.st16{clip-path:url(#SVGID_4_);fill:#155B51;}
	.st17{opacity:0.1;clip-path:url(#SVGID_4_);fill:#FFFFFF;}
	.st18{opacity:0.3;fill:#FFFFFF;}
	.st19{opacity:0.2;fill:#155B51;}
	.st20{opacity:0.4;fill:#155B51;}
	.st21{opacity:0.1;}
	.st22{clip-path:url(#SVGID_6_);fill:#FFFFFF;}
	.st23{opacity:4.000000e-002;clip-path:url(#SVGID_4_);fill:#FFFFFF;}
	.st24{fill:#D8AB52;}
	.st25{opacity:0.19;fill:#FFFFFF;}
	.st26{fill:#D6C296;}
	.st27{fill:#00F1D3;stroke:#00A490;stroke-width:2;stroke-miterlimit:10;}
	.st28{fill:none;stroke:#00A490;stroke-width:2;stroke-miterlimit:10;}
	.st29{fill:#A4FFF2;}
	.st30{clip-path:url(#SVGID_10_);fill:#FFFFFF;}
	.st31{clip-path:url(#SVGID_12_);}
	.st32{clip-path:url(#SVGID_12_);fill:#00F1D3;}
	.st33{clip-path:url(#SVGID_14_);fill:#FFFFFF;}
	.st34{clip-path:url(#SVGID_16_);}
	.st35{fill:#968D78;}
	.st36{opacity:0.5;fill:#F2E6C4;}
	.st37{fill:#A42000;}
	.st38{opacity:0.5;fill:#FF4317;}
	.st39{opacity:0.2;fill:#F2E6C4;}
	.st40{fill:#827F7A;}
	.st41{opacity:0.5;fill:#AAA393;}
	.st42{opacity:0.5;fill:#EAE9C1;}
	.st43{fill:#A4FFF2;stroke:#00A490;stroke-width:2;stroke-miterlimit:10;}
	.st44{fill:#F9E8BD;}
	.st45{opacity:0.21;fill:#968D78;}
	.st46{opacity:0.5;fill:#1CB7A1;}
	.st47{opacity:0.5;fill:#FFFFFF;}
	.st48{fill:none;}
	.st49{clip-path:url(#SVGID_24_);fill:#FFFFFF;}
	.st50{clip-path:url(#SVGID_26_);fill:#155B51;}
	.st51{opacity:0.1;clip-path:url(#SVGID_26_);fill:#FFFFFF;}
	.st52{clip-path:url(#SVGID_30_);}
	.st53{clip-path:url(#SVGID_30_);fill:#D6C296;}
	.st54{opacity:5.000000e-002;}
	.st55{opacity:0.5;fill:#968D78;}
	.st56{clip-path:url(#SVGID_36_);}
	.st57{clip-path:url(#SVGID_36_);fill:#00F1D3;}
	.st58{clip-path:url(#SVGID_38_);fill:#FFFFFF;}
	.st59{opacity:0.5;}
	.st60{clip-path:url(#SVGID_44_);}
	.st61{clip-path:url(#SVGID_44_);fill:#155B51;}
	.st62{opacity:0.1;clip-path:url(#SVGID_44_);fill:#FFFFFF;}
	.st63{clip-path:url(#SVGID_46_);fill:#FFFFFF;}
	.st64{opacity:4.000000e-002;clip-path:url(#SVGID_44_);fill:#FFFFFF;}
	.st65{clip-path:url(#SVGID_52_);fill:#155B51;}
	.st66{opacity:0.1;clip-path:url(#SVGID_52_);fill:#FFFFFF;}
	.st67{clip-path:url(#SVGID_56_);}
	.st68{clip-path:url(#SVGID_56_);fill:#D6C296;}
	.st69{clip-path:url(#SVGID_62_);}
	.st70{opacity:0.21;}
</style>
<g id="Layer_1">
	<g>
		<circle class="st26" cx="28.9" cy="28.9" r="28.9"/>
		<path class="st12" d="M28.9,52.9C15.7,52.9,5,42.1,5,28.9S15.7,5,28.9,5c13.2,0,23.9,10.7,23.9,23.9S42.1,52.9,28.9,52.9z"/>
		<polygon class="st26" points="9.2,44.9 54.6,36.5 53.3,31.7 6.6,39.8 		"/>
		<g>
			<path class="st35" d="M2.7,34.4l24.9-16.9c-0.2-1.1-0.1-2.9,1.5-4.5c1.1-1.1,2.3-1.7,3.5-1.7c1.2,0,2.3,0.5,3.3,1
				c0.5,0.3,2.1,1,4,1.8c7.2,3.2,13.2,5.9,14.3,6.9c1.9,1.8,2.3,3.1,1.7,5.8c-0.9,3.9-2.8,6.3-2.9,6.4l-0.2,0.3L6,42.7L2.7,34.4z"/>
			<path class="st35" d="M52.2,32.7L6.7,41.5L4,34.8L28.8,18c0,0-0.9-2.3,1.1-4.3s3.5-1.4,5.5-0.5s16.6,7.2,18.1,8.6
				c1.6,1.4,1.9,2.3,1.4,4.7C54,30.3,52.2,32.7,52.2,32.7z"/>
			<path class="st36" d="M6.4,34.8c0,0-0.3,0.7,0.5,0.8s41.3-5.6,42-8c0.5-1.7-17.7-8.8-18.6-8.8S10.9,31.4,6.4,34.8z"/>
			<ellipse class="st12" cx="28" cy="27.2" rx="3.2" ry="1.4"/>
			<ellipse class="st12" cx="39.6" cy="27.4" rx="3.6" ry="1.5"/>
			<ellipse class="st12" cx="19" cy="30.2" rx="3.2" ry="1.4"/>
			<ellipse class="st12" cx="30.9" cy="22.6" rx="3.2" ry="1.4"/>
			<path class="st36" d="M7.3,37L8,39.6l43.4-8c0,0,1.9-2.4,2.3-4.3c0.3-1.9,0.1-3.4-0.5-3.5c-0.7-0.2-2.5,1.1-2.7,3.1
				c-0.2,2,0.3,2.4,0.3,2.4S37.3,33.5,7.3,37z"/>
			<path class="st36" d="M30.3,17.8l2.7,0.9c0,0-0.3-0.5,0.2-1.7c0.2-0.6,0.9-0.9,0.9-0.9s-1.1,0.4-0.6,2.8c0,0,8.2,3.4,10.2,4.4
				c0,0-0.2-1.3,0.9-2.1c0,0-1.1,1-0.3,2.4l4.2,2.3c0,0,0.2-2.2,1.8-3.1c1.3-0.8,1.3-0.6,1.3-0.6s-5.4-2.8-15.2-7.2
				c0,0-3.3-1.7-4.2-1.6c-0.9,0.1-2.5,1.3-2.5,2.6S30.3,17.8,30.3,17.8z"/>
			<path class="st55" d="M32.7,13c0,0-3.6,0.7-3.1,5.2c0,0,16.5,6,19.9,8.7c0,0,0.5-2.9,3.3-4.2C52.8,22.7,42.4,16.5,32.7,13z
				 M43.9,20.1c-4-2-12.3-5.5-11.7-5.7c0.6-0.2,2.4,0.5,2.4,0.5s14.2,6.1,14.8,7.2C50.2,23.1,47.9,22.1,43.9,20.1z"/>
			<path class="st55" d="M6.2,36.6l1.5,4.1l44.4-8.3c0,0,3-4.3,2.4-6.2c-0.6-1.9-1-2.9-1.6-2.9c-0.5,0-3,1.4-3.1,2.5
				c-0.1,1.1,0,2.7,0,2.7s-23.6,6.9-42.3,7.9L6.2,36.6z"/>
		</g>
	</g>
</g>
<g id="Layer_2">
</g>
</svg>
