<?xml version="1.0" encoding="utf-8"?>
<!-- Generator: Adobe Illustrator 19.1.0, SVG Export Plug-In . SVG Version: 6.00 Build 0)  -->
<svg version="1.1" id="Layer_1" xmlns="http://www.w3.org/2000/svg" xmlns:xlink="http://www.w3.org/1999/xlink" x="0px" y="0px"
	 viewBox="0 0 475 308" style="enable-background:new 0 0 475 308;" xml:space="preserve">
<style type="text/css">
	.st0{fill:#1CB7A1;}
	.st1{fill:#149680;}
	.st2{opacity:0.5;fill:#00F1D3;}
	.st3{fill:#00F1D3;}
</style>
<g>
	<path class="st0" d="M239.4,222.8c0,0-21.4,4.6-28.4,9.3c0,0,24.8-6.7,44.7-6.4c19.9,0.3,47.3,7.1,98,2.1c0,0-14.4,0.2-27.5-0.8
		C291.1,224.3,278.8,215.9,239.4,222.8z"/>
	<path class="st1" d="M221.2,229.7c0,0,25.4-4.8,66.4-0.4c11.1,1.2,54.7,1.7,60.1-1c0,0-18.9,1.6-49.7-0.7
		C261.1,224.9,250.5,223.4,221.2,229.7z"/>
	<path class="st0" d="M240.3,222.7c0,0,5.2-0.7,6.2-1.6c0,0-1.8-1-0.4-3.2c1.4-2.2,4.9-3.4,6.7-3.2c0,0-3.2-1.9,0.3-5.9
		c3.5-4,12.1-6.2,16.8-2s0.9,7.7,0.9,7.7s1.2-1.7,3.3-1.7s3.2,2.4,2,3.6c0,0,2.2-3,8-2.1s5.4,4.3,5.4,4.3s3.3-2.3,6.5-0.8
		c3.2,1.5,2.5,3.9,2.5,3.9s0.3-1.8,2.1-1.4s1.4,2,1.4,2s0.6-1.4,3.4-0.4s-1.6,1.2,7.3,3.3c10.2,2.4-7.2,2.1-7.2,2.1L240.3,222.7z"/>
	<path class="st2" d="M284.8,217.1c-2.4-1.1-5,0.5-8.8,2.1c-3.6,1.5-7.5,2.5-11.2,1.6c8.7-1.3,9.3-5.1,8.9-5.9
		c-0.4-0.8-1.8,0.3-1.8,0.3c-3.9,2.5-5.9,1.7-5.9,1.7c3.7-0.7,4-2.5,3.9-3.2c-0.1-0.6-0.8-0.3-0.8-0.3c3.6-2.9,0.8-6.5-3.2-7.6
		c-5.4-1.5-14.2,3.3-12.5,6.6c1.8,3.3,13,2.8,13,2.8s-5.2,1.5-7.1,0.7c-2-0.8-4.5,0.3-3.7,2c0.8,1.7,3.7,2.6,3.7,2.6
		s-3.2-0.4-4.5-2.1c-1.2-1.7-2.1-2.1-4.5-1.9s-3.8,2.8-3,3.9c0.8,1.1,3.6,1.5,3.6,1.5l-5,1c-2,1,3.1,0.4,9.4-0.6l0,0
		c0,0,8.6-1.2,17.2-0.2c8.6,0.9,13,1.3,14.4-0.6C288.4,219.4,287.2,218.2,284.8,217.1z"/>
	<path class="st2" d="M295.3,220.2c0,0-3.2-0.9-5.2,0.6c-2,1.5,3.9,3.6,5.5,2.1S295.3,220.2,295.3,220.2z"/>
	<path class="st2" d="M299.7,222.2c0,0-1.4,0.5-0.7,1.8C299.8,225.2,301.9,222,299.7,222.2z"/>
	<path class="st3" d="M268.9,209.5c0,0-2.3-2.2-6-2.2c-2.2,0-3.7,0-6.1,2.7c-2.4,2.7,0.5,1.3,2.3-0.1
		C260.8,208.5,263.2,207,268.9,209.5z"/>
</g>
</svg>
