<?xml version="1.0" encoding="utf-8"?>
<!-- Generator: Adobe Illustrator 19.1.0, SVG Export Plug-In . SVG Version: 6.00 Build 0)  -->
<svg version="1.1" id="Layer_1" xmlns="http://www.w3.org/2000/svg" xmlns:xlink="http://www.w3.org/1999/xlink" x="0px" y="0px"
	 viewBox="0 0 475 308" style="enable-background:new 0 0 475 308;" xml:space="preserve">
<style type="text/css">
	.st0{clip-path:url(#SVGID_2_);}
	.st1{clip-path:url(#SVGID_4_);}
	.st2{fill:#149680;}
	.st3{fill:#1CB7A1;}
	.st4{opacity:0.5;fill:#00F1D3;}
	.st5{opacity:0.2;}
	.st6{fill:#FFFFFF;}
	.st7{fill:#00F1D3;}
</style>
<g>
	<defs>
		<rect id="SVGID_1_" width="475" height="308"/>
	</defs>
	<clipPath id="SVGID_2_">
		<use xlink:href="#SVGID_1_"  style="overflow:visible;"/>
	</clipPath>
	<g class="st0">
		<defs>
			<rect id="SVGID_3_" x="-65" y="-0.9" width="605" height="308.9"/>
		</defs>
		<clipPath id="SVGID_4_">
			<use xlink:href="#SVGID_3_"  style="overflow:visible;"/>
		</clipPath>
		<g class="st1">
			<g>
				<polygon class="st2" points="653.8,104.9 -198.8,20.4 -185.8,-109.9 666.7,-24.8 				"/>
				<path class="st3" d="M-16.2,124.9l-1.1,11.4c0,0-11.4-5.3-13.6-15.1c0,0-2.1,12.1-19.3,11.8c-17.2-0.3-16.6-8.6-16.6-8.6
					s-7,11.7-22.9,11.2c-18.8-0.5-33-8.2-33.5-19.2c0,0-7.4,18.7-31.9,19.6c0,0,1.4,0.6-0.7,3.4c-3.4,4.5-23.8,10.1-36.1,5.6
					c-9.7-3.5-7.8-7.2-7.8-7.2s-1.4,2.7-12.1,1.3l20.1-201.7c0,0,2.7-8.3,16.4-9.3s23.7,9.1,23.7,9.1s7.1-16,25.8-15.6
					c18.6,0.4,27,13.2,29.3,15.9c0,0,4.6-12,16.7-11.4c0,0,10.2,0.7,13.2,9.1c0,0,1.2-2.7,5.1-2.6c3.8,0.1,3.3,5.1,1.2,6.8
					c0,0-2.3,1.4-4.6,1c0,0,1.2,4.9-5.4,5.7c0,0,0.6,8-18,8c0,0,2.6,7.2-6,9.7c-8.6,2.5-13.4,2.7-16.6,0.7c0,0,9,3.3,13.3,15.2
					c0,0,4.7-7.1,12-6.4c7.3,0.7,13.2,5.1,14.5,11.3c0,0,11.8-18.6,34.6-11.2c0,0-4.6-11,6-18.6s18,1.8,18,1.8s-0.2-4.5,3.9-6.6
					S1.2-50.8,5-45.1c0,0,3-11,12.5-12.4c9.5-1.4,25.6,0.2,29.5,14c0,0,9.6-21.5,37.2-18.8c0,0,19,0.9,34.9,19.8
					c0,0,5.6-16.7,26.2-16.5c20.6,0.1,20.2,19.7,20.2,19.7s7.4-4,12.8,1.8s2.9,12.7,2.9,12.7s20-14.3,33.3,6.2s-2.6,26.5-2.6,26.5
					s16.2-4.1,20.8,2.6s4.4,16.2-2.2,16.5c-6.7,0.3,30.1-13.3,51.1,2.2c0,0,3.2-14,37.3-3.9c15.1,4.5,4.2,11,4.2,11l0.7,52.3
					L25.2,78.7L-16.2,124.9z"/>
				<path class="st3" d="M455.5,134.9l3.9,4.1l3.3-40.7L421,94.2L225.7,74.7L-11.3,51l-8.9,83.6c0,0,16.6,10.8,32.5,1.3
					c14.4-8.6,9.7-15.4,9.7-15.4s15.1,15.3,32.8,3.3c0,0,2.5,2.1,5.2,0.5c0,0,3.1,5.2,9.6,3.2c6.5-2,5.2-5.7,5.2-5.7
					s4.3,4.5,11.1,1.1c0,0,3.4,4.4,7.8,3.4s6.1-2,8.9-4.9c0,0,5.6,3.3,11.7-0.1c0,0,10.4,6.1,19.8-2c0,0,11.2,9.7,24.5,3.9
					s13.1-18.8,13.1-18.8s6.9,3.3,12.8-0.9c0,0,5,2.9,9-1.3c0,0,7,6.9,17.5-0.4c0,0,5.3,4.1,10.4,1c5.1-3.1,3.8-7.3,2.6-9.3
					c0,0,20,7.4,30.4,1.3c0,0,0.3,12.3,20.3,11.2c15.7-0.8,16.4-13,16.4-13c3.1,5.7,13.2,6,17.2,5.3c4-0.7,4.9-4.5,4.9-4.5
					c0.3,1.8,0.9,4.9,8,5.3s7.7-5.1,7.7-5.1c1.4,3.7,5.6,3.8,8.5,4.4s5.3-2.8,5.3-2.8s0.5,2.8,14.1,6.2s18.3-1.2,18.3-1.2
					s1.3,2.4,4.7,3.3c2.4,0.7,4.4-0.7,4.4-0.7s-0.8,3.7,5.9,4.5c7.3,0.9,8.9-2.8,8.9-2.8s1,4.4,14.8,8.2c13.8,3.8,18.2-4.3,18.2-4.3
					c0.2,1.1,1.8,5.9,10.1,7.2s10.6-3.7,10.6-3.7c2.7,2.5-0.9,8-0.9,8c-1.1,3.7,2.6,4.9,2.6,4.9c-3.4-1.6-6.7,0.4-6.7,0.4
					c-5.7,3.9-1,8.4-1,8.4S450.2,136.6,455.5,134.9z"/>
				<path class="st3" d="M158.2,86.5c0,0-11.3-1.4-21.7,8.7c0,0,3.7-9.8,19-11L158.2,86.5z"/>
				<path class="st2" d="M-15.5,93.5c0,0-0.8,11.4,18.1,10.2c18.9-1.1,19.6-17.7,19.6-17.7s5.3,14.2-7.5,24.1c0,0,9.3-0.3,12.7-21.4
					c0,0,0.7-9.8,10.7-11.4c10.1-1.6,14.2,1.7,15.5,7.6c0,0,3-4.9-8.3-13.2c0,0-2.6-1.1-1.4-3.7c1.2-2.6,11-5.1,16.4-0.1
					s7.2,8.4,2.5,10.3c0,0,0.8,1.7,4.5-0.5c0,0,5.2-4.6,9.5-2.8c0,0,3.5,5.2-1.8,8.6c0,0,6.9-0.5,4.3-8.3c0,0-1.1-2.8-3.4-3.8
					c0,0,6.2-2.6,13.9-0.4s7.2,8.2,7.2,8.2s3.2-4.6-6.8-10.5c0,0,1.1-4.1,8.4-2.7c7.3,1.4,5.8,7.9,5.8,7.9s2.5-2.2,0.1-6.2
					c0,0,0.4-1.8,4.4-1.2c4,0.6,2.3,4.9,2.3,4.9s2-2.5,0.6-4.5c0,0,0.2-3.8,4.9-3.3L-11.3,51L-15.5,93.5z"/>
				<path class="st2" d="M-144,53.7c0,0-13.5,10.9-24.4,11.3c-32.1,1.4-35.1-9.2-35.1-9.2l6.9-69.4c0,0,7.1-16.9,29.8-13
					c16.1,2.7,16.9,15.8,16.9,15.8s5.2-2.4-3.7-13.2c0,0,9.9-11.5,24.7-4.1s8.6,29.1-6.8,30.4c0,0,8.6,3.4,20-7.9
					c0,0,4.5-7.1,12.8-5.8s15,8,15.5,17.1c0,0,2.4-3.9-0.6-11.9c0,0,9.8-3.7,11,5.4c0,0,1.6,4.3,0.1,13.3c0,0,3.3-5.9,2.4-14.3
					c0,0,10.7-14.6,28.3-12.8S-24.1,1.5-24.1,1.5s1.3-3.4-5.7-13.7c0,0,4.6-6.6,16.9-7.5s9,10.7,9,10.7L30.2,5.5l-45.8,88
					c0,0-4.5,6.3-13.4,4.8c-8.9-1.5-9.6-4.3-10.3-7.2c0,0-2.6,4.2-14.6,4.7c0,0,10.4-3.7,10-8.7c-0.5-5.1-13.4-11.7-28-9.7
					c-14.6,2.1-2.7,10.8-2.7,10.8S-88.6,84-85.1,75.4c3.5-8.6,19.5-8.3,19.5-8.3s-21.5-4.8-28,12.5c0,0-3.5-6.3,6.9-14.2
					c0,0,3-1.3,1.6-4.2c-1.4-2.9-26.2-13.8-34.9-4.8c0,0-3.9,3.4-0.7,11.9c0,0-9.6-11.5,3.6-19.7c0,0,2.9-5.2-4.7-10.8
					s-18.4,0.1-18.4,0.1s9.8-9.6,22.4-3.3s15,10.4,17.2,7.3c2.2-3.1,15.7,0.6,22.8,6.3c0,0,22,7.7,26.6-5.5s-1.9-17.4-10.5-17.6
					c-8.6-0.1-14.9,5.2-14.9,5.2s0.4-5.3,9.7-7.2c0,0,5.3-0.5,4.8-2.9c-0.5-2.3-14-6.9-21.6,0.2c0,0,2.9,0.5,4.5,3.2
					c1.6,2.7,0.9,4.6,0.9,4.6s-2.2-5.6-8.1-7.3c-5.9-1.6-13.9,0.4-13.9,0.4s1-1.6,6.3-2c0,0,1.1-1.2,0.1-4s-7.5-2.8-11.6-0.5
					c-4.1,2.3-2.9,5.2-2.9,5.2s1.4-0.8,2.8,0.5c0,0-5.4,0.3-8.5,5.1c0,0-12.9-7.1-28-3.8s-16.4,20,2.8,21.3c0,0-1.5,3.2-7.7,2.9
					s1.9,2.9,3,4C-142.9,51.4-144,53.7-144,53.7z"/>
				<path class="st2" d="M-9.7-13.3c0,0-4.6-14.3,12.7-20.8s26.1,1.2,27.6,9.9c0,0,2.3,1.2,0.6-6.2c0,0,4.7-4.1,11.9-1.9
					c0,0,3.8,7.1-6.6,13.7c0,0,10.4-1.4,13.8-16.1c0,0,1.1-2.8,4.3-2.9s17.8,0.2,20,10.1s-10,16.6-15.1,15.9c0,0-5.9-0.3-7.9-3.8
					c0,0,3.2,2.9,1.1,6.2c-2.1,3.3-7,1.7-8.8,0.4c0,0,0.3,2,2.5,3.3c0,0,3.5,1.8,1,4.9c0,0,8.2-4.7,14.1-0.4s3.7,10.8,3.7,10.8
					s2-0.5,1.9-5.7c0,0-0.8-2,0.9-3c1.7-1,5.4-1.7,8.4,0C79.4,2.9,78,6.4,78,6.4s1.2,0.1,1.7-2.7c0,0,0-2.2,4.8-1.4s1.3,4.9,1.3,4.9
					s-3.6,3.5-9.7,2.5c0,0,3.2,0.2,4,2.4s-6.4,4.4-8.5,2.6c-2.1-1.8-0.9-2.9-0.9-2.9s-1.7,0.7-0.3,2.8c1.4,2.1,0,0.4,0,0.4
					s1.7,1.2,0.5,2.5s-8.4,4.7-12.1,1.5s-1.5-6.1-1.5-6.1s-1.9,0.9-2.2,4c0,0-0.5,3.8-3.3,4.7c-2.8,0.9-8.1,1.5-10.7-2.8
					c0,0,0.6,2.7,2.6,4.3c2,1.6,0.5,9.8-6.1,9.5c-6.5-0.3-10.9-1.6-11.7-4.5c0,0,1.2,7.1-4.1,7.1c0,0,8.8-3.1,17.7,4.5
					c0,0,4.8,3.5,5.4,14.6c0,0,2.1-3.8,0-10.9c0,0,2.9-3.9,9-1.9c6.2,2.1,6.8,6.7,6.8,6.7s0.9-1.1,0.1-2.9c0,0,0.1-2.9,5.6-3
					c5.4,0,11.8,0.6,15.2,3c3.4,2.3,1.7,4.9,1.7,4.9s2.4-1.3,0.2-4.2c0,0,0.7-0.7,2.8-0.4c2,0.3,2.4,2.7,1.9,3.8c0,0,1-0.7,0.7-2.4
					c0,0,1.3-1.8,4.1,0c2.8,1.8,2.4,3.1,1,3.9c0,0,0.6,0.4,1.7-0.8c0,0,0.6-0.7,2.1-0.2c1.5,0.5,2.3,2.6,0.7,3.9c-1.6,1.4-3,1-3,1
					s2,0.7,3.2-0.6c0,0,1-0.4,1.9,0s2.5,1,2.9,2.4s-1,2.1-1,2.1s0.9,0.3,1.8-0.8c0.9-1.1,2.6-1.7,4.5-1c1.9,0.7,1.2,1.6,0.1,1.6
					c-1.1,0.1-1.6,0.6-1.6,0.6s1.1-0.6,2.2-0.2c1.1,0.3,1.6-0.7,2.2-0.6c0.5,0.1,1.2,0,2.7,1.1c1.4,1.1,0.2,1.8,0.2,1.8
					s1.7-0.2,2.5,0.1c0.8,0.3,4.3-1.2,12.4,4.2c0,0-10.4-5-16.7-1.1s-22.2-2.2-22.2-2.2l-62.3-7.8L9.3,56.3L-25,38.9L-9.7-13.3z"/>
				<path class="st3" d="M-41,63c0,0-14.5-2.2-20.2-2c-5.8,0.2-3.1,3.8,5,5.5s17.9,5,23.6,3.2c0,0-3.6,2.2-1.4,4s20.8,7.3,31.5,5.5
					s-0.6-8.4-0.6-8.4s7.4,3.8,11.9,2s0.6-6.5,0.6-6.5s6.6,2.9,10.6,2.4c4-0.6,6.9-2.3,7.3-7.4S20.1,56,20.1,56s2.8-0.5,2.5-2.9
					c-0.2-2.4-5.7-7.3-15.1-7.2c-9.4,0.1-3.9,5.4-3.9,5.4s-0.9-3,1.3-3.5c3.9-0.9,11.2,0.8,13,1.9c3.2,1.9,5.5,6.3-3.3,4.9
					c0,0-13.4-2.9-17.1-1.8s-3.9,2.9-3.9,2.9s-0.9-1.7,2.3-3.4c0,0-0.5-2.3-2.2-3.7s-7.9-2.5-11.1-1.4c-3.2,1-2.8,4.3-2.8,4.3
					s-0.4,0-1-1.5c0,0-11.9-0.9-13.3,4.4c0,0,0.5,1.5,4.3,1.6c0,0-2.6,0.8-5.8-0.6c-3.2-1.3-6.3,0.2-6.6,1.8c-0.3,1.6,1.2,4.3,5,5.1
					c0,0-2.9-0.1-3.7-0.7C-42.1,61.3-43.4,62.4-41,63z"/>
				<path class="st2" d="M-29.4,69.5c0,0,4.9-4.1,11.4-1.9s11.3,3,11.3,3s-10.1-2.8-11.5-4.7s-1.9-4.1,1.1-5.2c0,0,3.5-1.2,5.2,2.7
					c0,0,0.4-1.4-0.4-2.3c0,0-0.2-1.2,2-1.9s6.8-1,9.3,2c2.6,2.9,1.2,4.3,1.2,4.3s0.9,0.3,0.5-2.9c0,0,2.3-2.6,9.8-0.8
					c0,0-4.6-2.7-9.7-0.1c0,0-4.3-6.9-12.3-3c0,0-1.7,0.7-2,1.8c0,0-1.5-1.3-4.5-1c-3,0.3-3.7,4.9-2.1,6.2
					C-20,65.7-26.4,65.1-29.4,69.5z"/>
				<path class="st3" d="M315.7,36.4c0,0,8.7-5.4,22.9-2c14.3,3.3,1,7,1,7s13.9-2.9,22.3,2.2s3.4,8.7,3.4,8.7s7-4.4,12.5,1.2
					c5.5,5.7-1,9.8-1,9.8s9-4.2,15.3,3.4c0,0,6.6,1.3,8.2,7.5c0,0,2.7-7.7,10-8.3c0,0-2.8-8.8,9.3-11.9c12.1-3.1,14.4,1.1,14.4,1.1
					s-5.8-5.8,11.7-12.7s29.3-6.2,32.9-2.9s-0.8,8.1-0.8,8.1s6.7-7.2,20.7-3.6c0,0,0.4-3.6,5.8-7.3c5.4-3.8,18.6-6.8,33.6-6
					s12.3,13.4,12.3,13.4s8.6-28.6,38.1-28.9c29.5-0.3,35,8.1,35,8.1s22-16,39.8-0.9l-20.1,201.7c0,0-10.2-1.1-32.2-6.1
					c-27-6.1-28.6-30-28.6-30s-6,1.1-19.1-2.1c-13.1-3.2-22.5-7.9-22.4-18.5c0,0-5.7,6.6-16,4.4s-15.8-9.4-17.6-15.3
					c0,0-6.7,9-12.7,6.9c-6.9-2.4-13-7.6-6.1-16.1c0,0-3.8,3.1-7.9-1.1s-3.9-11.7-3.9-11.7s-6,17.1-17.5,4.3l-3-24.9l-7.9-12.1
					L319.6,87.3L315.7,36.4z"/>
				<path class="st2" d="M605.3,75.9c0,0,8.9-1.7,8.9,6.3c0,3.2-4.5,4.6-7.4,4.2c-2.8-0.4-4.9-4.1-4.9-4.1s-2.9-1.1-6.5,0.1
					c-3.6,1.2-3.1,4.4-2.8,6.3c0,0-1.6-2.8-2.9-2.6c-1.2,0.2-8.8-1-12.7,7.2s15.4,1.5,15.4,1.5s-0.5,2.5-4.9,3.3
					c0,0,1.5,5.3,10.6,3.4c0,0,1.2-0.4,2-1.7c0,0-0.4,2-1.9,2.5c0,0,4,12.7,14.7,10.6c0,0,3.1-0.8,6-2.6c0,0-0.6,2.5,2.9,6.2
					s6.7,6.9,21.7,4.9c0,0-5.5,3.6-10.4,3.6c0,0,0.8,4,4.7,4.1c3.9,0,4.2-2.6,4.2-2.6s1,1.8-0.7,3.9c0,0-2.1,8.9,9.8,10.7l6.9-69.4
					c0,0-4.4,5.6-7.3,6.7c0,0,3.2-5.9,3-8.8c0,0,0.9-9.1-4.8-10.4c-3.7-0.8-12.4-4.4-16.3,5.6c-2.3,6,3.8,14.1,3.8,14.1
					s-6-4.1-7.1-8.5c0,0-1.2-4.3-10.9-3.3c-6.1,0.6-7.4,7.4-7.4,7.4S608.5,72.9,605.3,75.9z"/>
				<path class="st2" d="M583.5,90.6c0,0,1.2-4.7-20.4-7.1s-33.6,0.7-30.3,3.9s41.7,7.1,49.4,5.9S583.5,90.6,583.5,90.6z"/>
				<path class="st2" d="M566.6,86.8c0,0-2.4-4.3,3.2-5.7c5.6-1.4,15.9,0.2,16.7,6.7l-3,2.8L566.6,86.8z"/>
				<g>
					<path class="st4" d="M194.7,91.2c0,0-0.1,5.6-2.6,6.8c0,0,2.7-5.4,1.1-9.7c-1.6-4.3-5.2-7.3-10.6-8.6
						c-2.6-0.6-10.1-0.2-10.4,3.3c0,0,8.6-4.2,13.9-0.2c4.8,3.6-4.3,7.8-9.4,6.4c-2.9-0.8-3.8-1.4-4-1.7c0.2-0.1,0.2-0.3,0.1-0.5
						c-1-1.6-4.9-3.3-5.1-5.2c-0.2-1.9-2.5-0.6-2.5-0.6c-5,1.5-6.1-3.7-5-5.5c1.1-1.8,3-1.7,3-1.7c-3.1,1.1-2.1,7.5,2.2,5.1
						c4.4-2.4,4.9-5.1,5.9-7.2c0.9-2.1-1.9-3.6-3.4-3.9c-1.5-0.3-6.2,2.5-9.2,3c-3,0.5-3.6,2.8-3.6,2.8s-2.1-2.1,2.9-3.8
						s7.4-2.4,7.4-2.4c1.2-3.5-2.5-8.3-7.5-5.2c-5,3.1-2.7,4-2.7,4c2.6-1.2,2.8,1.1,2.8,1.1c-7.6,2.1-9.2,5.9-9.1,9
						c0.1,3.1,7.2,0.7,6,3c-1,2-7.2,4.1-8.6,4.6c0,0-0.1,0-0.1,0l-9.4,3.7c0,0-0.1,0.1-0.2,0.2c0.1-0.1,0.1-0.1,0.2-0.2
						c6.5-5.8,14.5-8.6,14.5-8.6c-14,0.8-22.7,11.4-22.7,11.4c0.8-4.8,9-9.6,9-9.6c-6.5,1.2-14.4,9-16,16.7
						c-1.6,7.7,3.7,14,1.1,15.2c-2.6,1.2-6.6-0.2-7.6-1.1c-1-0.9,0.9-5.5,0.9-5.5l-3.6,2.8c4.9-5.5,1-10.7,1-10.7
						c1.7,5.9-3.5,12.6-15.4,6.8c-11.9-5.7-6.2-12.5-6.2-12.5c-7.3,2-4.6,7.8-4.6,7.8c0.7,1.3-2.5,1.4-2.5,1.4
						c-3.9-1.8-7.8-0.2-5.9-1.4c1.9-1.2,4.7-0.1,4.7-0.1s-4.7-3.7-8.3-0.2c-3.6,3.5-1.4,7-0.4,8.7c1,1.7,4.2,2.3,4.2,2.3
						c-1.3,0.8-2.3,3.7,1.6,4.5c3.9,0.8,4.2-0.1,4.2-0.1s-0.2,4.6,5.3,5.7c5.6,1.1,8.7-3.6,8.7-3.6c-10.2-3.9-15.7-10-15.7-10
						c14.9,10.9,27.9,8.7,27.9,8.7c0-3.7,1.7-4.7,1.7-4.7c-1.2,3.7,3.3,5,3.3,5c11,2.5,12.3-3.8,12.3-3.8c-6.8-11-2.3-15.8-2.3-15.8
						s-3.4,7.8,8.7,16s21.6,4.5,28.3-4.8c6.7-9.4,0.4-15.8,0.4-15.8c-3.4-4.7-7.8-6.7-11.4-7.6c5.1-0.6,7.4-0.5,8.6,0.3
						c1.2,0.8,3.3,2,3.3,2s0,0,0,0c0.2,1,0.4,0.4,0.7,0.6c0,0,5.3,2.1,7.5,11.7c0,0,2,3.9,7.8,2.9c5.8-1,6.9-5.6,6.9-5.6
						s1.5,2.3-0.5,4.6c0,0,2,2.6,5.6-0.6c3.7-3.1,3.2-4.6,3.2-4.6s0.9,1-0.1,4.9c0,0,0.7,1.9,2.8-1.5
						C198,99.4,198.4,94.4,194.7,91.2z M133.8,90.4C133.8,90.4,133.8,90.4,133.8,90.4L133.8,90.4z M136.4,88.2
						c-0.1,0.1-0.1,0.1-0.2,0.2C136.2,88.3,136.3,88.2,136.4,88.2z M136.1,88.4c-0.1,0.1-0.2,0.1-0.2,0.2
						C136,88.5,136,88.5,136.1,88.4z M135.7,88.8c-0.1,0.1-0.3,0.2-0.4,0.4C135.4,89,135.6,88.9,135.7,88.8z M134.8,89.5
						C134.8,89.6,134.8,89.6,134.8,89.5C134.8,89.6,134.8,89.6,134.8,89.5z M134.4,89.9c-0.3,0.2-0.5,0.4-0.6,0.5
						C134,90.3,134.1,90.1,134.4,89.9z"/>
					<path class="st4" d="M452.6,127.9c0,0-2.1-0.7-4,0.6c-2,1.3-0.3,4.9,3.1,2.5S454.1,128.6,452.6,127.9z"/>
					<path class="st4" d="M-190.8,108.1c6.3,1.3,10.3-2.3,11.4-4.4c0,0,0.7,3.8-3.5,5.2c0,0,3.9,4.6,10.7-1.2c0,0,2.1-1.2,3-4.3
						c0,0,1.8,2-1,5.1c0,0,7.2-0.2,8.7-5.3s-4-3.2-4-3.2s0.4-1.9,3.3-1.5c0,0,1.6-5.4-5.5-6.5c-7.1-1.1-8.2-1-11.2-0.1
						c0,0,6.6,2,5,5.1c0,0-3.6-3.6-10.5-3.2c-6.9,0.4-2.6,7-2.6,7s-2.9-0.9-3-3.5c0,0-3.9-0.9-6.3,1.6
						C-198.7,101.5-197.2,106.7-190.8,108.1z"/>
					<path class="st4" d="M-152.2,98c-0.4-3.4-4-3.6-4-3.6s-3.9,1-3.1,6C-158.5,105.4-151.9,101.4-152.2,98z"/>
					<path class="st4" d="M-149,98.2c1.8,1.2,2.5-2,1.3-3c-1.2-0.9-2.3,0.2-2.3,0.2S-150.8,96.9-149,98.2z"/>
					<path class="st4" d="M638,202.9l0-0.4c0,0,2.1-0.9,1.5-3c-0.6-2.1-3.1-3.1-2.6-7.9c0,0,0-0.1,0-0.1c2.3-4.3,9-19.4-7.1-22.1
						c-8.5-1.4-11.4,7.8-10.5,16.4l0,0c-0.2,6.8-7.6,1.9-7.6,1.9v0c-2.6-3.1-5.7-4.8-8.5-3.8c0,0,2.9,0.9,3.5,2.3
						c0.6,1.3-5.1,3.6-8,0.8c-2.9-2.8,0.6-5.7,6-5.8c5.4-0.1,7.7-8.1,0-12.3c-7.7-4.3-11,1.2-11,1.2s-5.3-4.5,2-7.6
						c0,0,4.5-1.9-1.5-6.9c-4.9-4.1-15.2-8.9-21.3-8.8l0,0c0,0-9.2-0.6-16.2,4.4c-7,4.9-18.9-1.9-18.9-1.9v0c-1.3-1.3-2.9-2.6-5-3.7
						c1.8,2.4,1.3,9.6-0.1,10.3c0,0,0-13-8.1-18.8c-6.2-4.5-19.9-7.7-24.5-3.5c-4-0.1-6.6-3.4-6.6-3.4s0,0,0,0
						c-2.4-3-4.8-3.8-4.8-3.8s1.8-0.9,4.9,0.9c0,0-1.2-6.1-7.2-10.4c-5.8-4.1-9.8,0.1-10.1,0.5c0.2-0.3,2.2-2.7-1.4-4.2
						c-3.8-1.6-13.6,0.5-15.8,4.6c0,0-6.3,8.9,2,19.7c8.3,10.8,17-10.9,17-10.9s-4.5-3-9.8-3.3c0,0,12.6-3.6,17.6,8.2l-5.3-3.8
						c0,0-4.3,12.3,2.9,17.4c3,2.1,6.1,1.4,8.4-0.5c0,0,0,0,0,0c3.5-1.7,4.4,0.4,4.5,0.4c-0.9,1.3-2.1,2.7-3.7,4
						c-6.6,5.3-2.6,10.9-0.2,11.4c2.5,0.5,8.9,0.9,14.2-8.3c0,0-1-1.8-0.4-7.9c0,0,4.9,23.8,19.6,24.3c14.7,0.5,16.2-8.1,16.2-8.1
						c1.7-1.7,0.6-5.5,0.6-5.5c5.3,1.2,8.9,0.4,15.7-2.1c6.8-2.5,8.3,0.9,8.3,0.9l0,0c0.6,2,2.5,3.9,5.5,5.8
						c6.3,3.8,12.7,5.1,12.7,5.1s-4,3.5-9.5,0.5c-4.1-2.2-9.9,0.9-6.5,4.3c3.4,3.4,8.1,1.1,8.1,1.1s0.2,4.8-8.5,2.4
						c-6.7-1.8-9.6-5.8-10.6-7.6c1.1,1.4,3.9,1.7,3.9,1.7c6.2,0.1,6.6-6.3,2.3-9.1c-4.3-2.8-14.4,0.8-14.4,0.8s-8.1,3.5-5.1,12.7
						c3,9.2,34.5,15.4,37.6,13c0,0-1.8-7.5,3.6-15.4c0,0-5.8,15.4,3,27.7s18.5,3.4,13.3-3.9c0,0,4.5,3.2,4.3,9.5
						c-0.2,6.4-9.3,5.1-9.3,5.1s0.8,4.1,6.6,5.2c5.7,1.1,12.9-1.6,13-10.6c0-1.1-0.1-2.3-0.3-3.5c0,0,0,0,0,0c0.1-6.7,5-3.9,5-3.9
						l0,0c1.5,2.8,3.2,4.6,6.2,4.4v0c0,0,0,0,0,0c0.5,0,1.1-0.1,1.7-0.4c1.6-0.3,3.8-0.4,4,1c0.3,2.1-2.8,7.1-2.5,8.5
						c0.1,0.2,0.3,0.3,0.6,0.4c-2.1,4.5,0.2,11,11.6,12.4l2.1-20.7C645.5,200,641.7,200.9,638,202.9z"/>
					<path class="st4" d="M458.3,110.3c0,0,1.5,3.7,6.8-1.2c5.3-5-1.5-6.6-1.5-6.6s3.3-1.6,5.5,3.8c0,0,4.2,3.6,8.2-1
						c4.1-4.6-0.7-7.6-3.4-7.9c0,0-1.7,3.9-5,2.3c0,0,4.6-1.1,4.1-5.6c-0.5-4.5-5.4-6.9-9.5-5.7c-4.9,1.5-4.7,8-4.7,8
						s-1.2-4.3,0.3-8.2c0,0-0.6-5.6-16.1-7.4c-15.5-1.8-20.4,4.9-20.4,4.9s-2.2-3.6-7.2-3.4c-5,0.1-6.6,3.7-6.6,3.7s0-2.1-3.4-2.1
						c-3.4,0-7.3,2.5-5.1,5.6c0,0-1.2,0.1-1.7-1.7c-0.5-1.8,0.5-3.8,1.9-4.6c0,0,1.9-3.4-1.8-4.5c-5.6-1.7-7.9,5.8-5.3,8.6
						c0,0-3.6-2.5-1.2-5.9c0,0-5.9-2.5-8.2,3.5c0,0-0.1-1.3-1.1-1c-1,0.3-2.7,1.9-0.9,3.4c0,0,1-0.5,4.4,1.4c0,0-7.1-1-7.6,4.7
						c0,0-2.1-2.8,1.3-5.5c0,0-0.4-1.1-2.2-1.2c-1.9-0.1-4.6,0.9-4.7,3.9c-0.1,3,2.2,5.5,6.9,5c0,0-0.4,0.5-1.3,0.9
						c0,0-1,2.1,0.8,3.7c1.7,1.7,4.3,0.6,5-1.3c0.7-1.8,0-2.3,0-2.3s2.7,0.6,5.2-1.4c0,0-0.4,1.4-2.4,2.1c-1.9,0.7-2.4,5,0.7,5.8
						c3.1,0.8,6.8,0.8,8.4-1.3c1.6-2.1,0.3-5.6-1.6-5.9c0,0,1.9-0.4,3.5,2.5c0,0,0.3-3.5,2.7-4.7c0,0-2.2,3.5,0,6.8
						c2.3,3.3,6.9,8.6,20.2,9c7.9,0.2,13.3-5,13.3-5s0.6-5.3,4.8-6.9c0,0-2.3,1.5-2.5,4.6c0,0,0.1,5.3,5,7.4
						c4.9,2.1,10,2.6,12.5-2.2l-1.7-6.3C452.8,100.8,456.7,103.8,458.3,110.3z"/>
					<path class="st4" d="M365.1,85.3c5.4,1.5,5.5,0.5,8.6,0.1c3.1-0.3,3.8-1.9,2.4-3c-1.4-1.1-2.5-0.9-4.2,0.3
						c-1.7,1.2-2.2,0.5-2.2,0.5c2.7-0.7,1.5-3.4,0.4-3.9c-1.1-0.5-2.2,0.2-2.2,0.2c-0.5,1.6-2.7,1.6-2.7,1.6l1.6,1.1
						c-3.1-0.1-4.2-1.9-4.2-1.9c2.8,0.5,7.1-2.6,1.6-5.9c-5.5-3.2-11.4,1.9-11.4,1.9s-3.1,3-5.7,2.4c-2.7-0.6-2.5-4.5-0.1-4.3
						c2.4,0.2,2,2.2,2,2.2s5.3-2.7,2.3-6c-3-3.3-18.2-0.9-12.1,7.3c6.1,8.2,0.8,10.3,0.8,10.3s3.4-2.1-7.6-10.4s-14.5,0.5-14.5,0.5
						c-0.9,3,3.3,5.8,4.6,6.6c1.3,0.8,2.9-0.6,4-2.5c1.1-1.9,3.2-2.1,3.6-1.8c0.4,0.2,1.5,1.7-2.1,3.1c-3.6,1.3-0.8,5.4-0.8,5.4
						c-1.1-4.2,2-4,2-4s-1.9,3.2,0.4,5.9c2.3,2.7,3.8,3.2,7.6,4.4c3.8,1.3,4.9-1.1,4.6-1.6c-0.3-0.6,0.2-0.7,0.2-0.7
						c2,1.1,2.2,0.2,2.2,0.2c-1.2-0.5-1.1-2.2-1.1-2.2c1.1,1.2,2.8,1.1,4.4-1.5c1.6-2.6,3.2-3.1,4.7-3c1.5,0.1,2.2-0.6,2.2-0.6
						c-0.1,0.6-1.3,1-1.3,1s-2.2,0.6-3.2,3c-0.9,2.5,1.1,5.6,6,6.4c4.9,0.8,9.1-1.3,10.4-3.7c1.2-2.3-1.6-3.3-1.6-3.3
						c-4.9-2.6-2.4-4.5-2.4-4.5c-0.1,1.2-0.2,2.3,4,3.9c4.2,1.6,5.3-2.1,5.3-2.1C366.7,87.5,365.1,85.3,365.1,85.3z"/>
					<path class="st4" d="M368.1,95.7c0,0-6.6,0.2-5.3,3.7C364.2,102.7,376.3,98.5,368.1,95.7z"/>
					<path class="st4" d="M317.6,89.9c-4.7-4.3-13.8-11.9-24.3-10.9c-10.5,1-12.5,5.4-12.5,5.4s-0.9-5.3,11.8-8.1
						c0,0-16.5-8.8-28.9,1.9s-5.3,26.7,8.8,25.2c14.1-1.5,14.3-15.7,14.3-15.7s3.7-2.5,6,1.7c2.3,4.2,5.9,6.9,8.7,5.6
						c2.8-1.3,2-6-1.5-6.7c0,0,4.8-1.4,5.3,6.5c0,0,1,1.7,3.4,1c2.3-0.6,3.3-4.3,1.7-6.5c-1.6-2.2,2.1-1.9,4.4,1.5
						c2.3,3.4,0.7,4,3.7,5.3c3,1.4,10,0.7,5-6.3C323.5,89.7,322.2,94.1,317.6,89.9z"/>
					<path class="st4" d="M310.7,78.3c5.2,1.5,4.3-5.4,2.4-6.3c0,0-2.2-1.7-5.3-1.3C304.8,71.1,305.5,76.8,310.7,78.3z"/>
					<path class="st4" d="M300.4,74.4c3.3,0.9,2.7-3.4,1.6-4.1c0,0-1.4-1.1-3.4-0.8C296.7,69.8,297.1,73.4,300.4,74.4z"/>
					<path class="st4" d="M55.3,113.8c-4.9,0.7-8.9-2.6-14.7-4.3c-5.8-1.6-8.9,0-8.9,0c1.8-1.8,8-2.2,17.6,1.4
						c8.2,3,11.1-0.8,11.8-2c0.6,0.2,1.2,0.3,1.8,0.5c8.3,2.6,8.5-5,5.8-5.6c-2.7-0.7-2.8-2.7-2.8-2.7s2.6,1.6,4.4,0
						c1.8-1.7,1.4-5.3-2.4-6.7c-3.8-1.4-4.9,1.6-4.9,1.6c0.9,2.4-0.3,3.9-0.8,4.3c-0.2-3-1.2-6.1-4-8.3c-6.7-5.3-24.8-7-28.3,7.8
						C26.4,114.5,13,115,13,115s0,0,0,0c-0.8-0.7-2-1.2-3.5-1.5c-5.4-0.9-4.7,5.9-4.7,5.9s-2.7-2.1-0.9-5c0,0-3.3-1-6.2,1.1
						c0,0-4.6,2.5-1.9,7.5c0,0-4.4-2.4-1-8.2c0,0-4.3-3.1-12.8-2.7c-4.3,0.2-7.3,0.8-7.3,0.8s2.4-1.7-1.7-5
						c-2.5-2.1-6.3-2.6-9.3-2.2c-1.1-1.3-2.5-2.3-4-2.9c-4.6-1.7-9.5,0.1-8.7,5.5c-0.4-0.1-0.8-0.3-1.3-0.4c-6.2-1.5-9.2,2-9.2,2
						s0.4-3.7,5.3-4.1c0,0-1.9-8.1-11.4-8.1c-9.5,0-9.8,5-9.8,5s-1.5-1.6,1-4.1c0,0-5.6-3.9-13.7-1.5c0,0,5.6,1.6,5.7,11
						c0,0-2.2-8.7-9.8-11.7c4.8-0.3,13.2-1.6,8.1-6.7c-7-6.9-14.4-4.1-14.4-4.1c0.3,2.7-1.1,3.3-1.1,3.3s1.6-6.4-10.4-11
						c-12-4.5-17.5,3.1-17.5,3.1c12.4,0.1,14.4,5.7,14.4,5.7c-6.5-4.9-22.2-5.6-24.5,0.8c-1.3,3.5-0.1,5.9,1.3,7.2
						c-4.5,1.3-4,3.4-4,3.4c2.9,1,4.8,4.3,4.8,4.3c-2.3-1.5-8-3.4-15-0.3c-7,3-5,7.1-5,7.1c8.7,3.2,5.7,8.6,5.7,8.6s-0.4-6-8.7-6.2
						c-8.3-0.2-14.6,6.4-14.6,6.4c-4.3,5.4-7.9,5.2-7.9,5.2s11.8-9-5.7-10.2c-17.5-1.2-16,6.1-16,6.1c-1.8-1.1-1.7-4.5-1.7-4.5
						c-2.1-0.4-5.1,0.3-5.1,0.3l-2.1,20.7c7.1,0.9,6.9-0.1,10.2-1.3c3.2-1.2,4.4,1.2,4.4,1.2c0.7,7.6,16.6,7.4,16.6,7.4
						s4.8-0.3,10.6-1.5c5.7-1.2,10.5-4.7,10.4-5.8c0-1.1-3-3.9-3-3.9c3.8,2.5,7.5,1.9,9.1,0.7c1.5-1.1,0.8-3,0.8-3s-0.4-1.7-3.7-3.6
						c-2.5-1.4-5.7-1-5.7-1c1.1,1.2,0.6,3.2,0.6,3.2s0.6-2.9-4.8-4.7c-5.4-1.8-10.1,2-10.1,2c-11.9,6.6-19.9,4.9-19.9,4.9
						c10.2-1.2,17.7-5.1,22.3-9.7c4.6-4.7,10.7-6.7,13.4-6.6c2.7,0.1,5.5,1.9,3.8,5.1c-1.7,3.2-8.2,2.7-8.2,2.7s3.4,2.7,6.6,0.7
						c3.2-2,5.1-2.1,5.1-2.1s-2.8,1.2,0,5.6c2.8,4.5,7.5,4.5,15.8-0.5c8.3-5,6.9-10.8,6.9-10.8c-8.2,0.5-6.8-4.4-6.8-4.4
						s0.4,2.9,6.6,2.6c6.3-0.3,6.6-3.9,7-5.3c0.4-1.4-0.8-3.4-0.8-3.4s15,3.5,18.9,0.6c-3.1,3-7.4,3.2-7.5,3.2
						c-3.6-0.1-6.6-0.8-6.6-0.8s-2.1,5.8-0.8,10c1.4,4.2,8.8,12.7,24.1,14.1s23.9-4.2,27.7-11.5c3.8-7.3-1.3-10.5-1.3-10.5
						s4.5,0.2,4.8,10.5c0,0,0.3,8.1,10.4,8.7c10.1,0.6,7.3-8.6,1-10.5c0,0,3.9-1.6,7.7,4c0,0,2.7,0.6,5-2.4c0.7-1,0.7-2.4,0-3.9
						c1.7,1,4.1,1.7,5.9-0.1c0.6-0.6,1-1.4,1.1-2.3c2.4,1.6,4.9,4.3,6.5,8.6c3.9,10.5,20.1,17.6,35.5,10.1c7.1-3.4,8.5-7.4,7.5-11.1
						c0.2-3.4,3.4-3.5,6-2.7c2.6,0.8,3.4-1.7,3.4-1.7c3.7-6.6,9.5-3.3,9.5-3.3c-5-1.3-6.4,1.4-5.7,6.3c0.8,4.9,12.9,6.6,10.7,1.3
						c-2.2-5.2,1.1-5.5,1.1-5.5c-0.7,0.9-1.3,6.5,4.9,8.1c6.1,1.6,7.3-3.3,7.6-5.1c0.3-1.8,2.1-1.6,2.1-1.6s-1.6,0.7-0.3,2.8
						c1.3,2.1,5,2.7,8.3,2c3.3-0.6,4.8-3.7,3.2-5.6C65.1,113.9,60.2,113,55.3,113.8z"/>
					<path class="st4" d="M249.2,77.7c-5.5-3.3-18.4-4.9-20.8,0.4c-2.3,5.3,1.7,8.9,1.7,8.9s-7.3-2.9-1.5-12.5c0,0,2.6-3.3,10.4-2.7
						c7.8,0.7,5-5.4,3.3-6.4c-1.7-1-5.9-4.9-13-2.7c0,0,0-2.5,7.3-3.5c0,0-0.5-4.7-7.5-8.1c-7-3.3-12.7-4.3-25.8,0.7
						c-13.2,4.9-7.8,10.2-7.8,10.2s3.5-3.5,9.5-5c0,0-9.9,4.6-11.4,10.5c-1.5,5.8,11.1-5.5,19.7-6.5c8.6-1.1-0.4-2.8-0.4-2.8
						s3.1-1.2,5.3,0c2.1,1.3,3.4,3.8-1.7,4.9c-5.1,1-11,4.8-22,9.8c-11,5-5.9,0.6-15.8,1.4c-9.9,0.8-9.4,7.4-9.4,7.4
						s4.1-4.1,9.7-3.9c5.6,0.2,9.7,2.2,14.3,5.5c4.6,3.3,15-12.5,21.5-12.5c6.5,0,8.6,7.6,4.3,10.1c-4.3,2.6-7.6-2.3-6.7-4.5
						c0,0,1.6,3.6,3.1,2.6c1.5-1,3.9-4.6-0.8-5.9c-4.8-1.3-8.5,6.8-6.6,10c1.8,3.2,4.1,4.3,3.8,6.6c-0.4,2.3-3.4,5.6-5.4,2.1
						c-1.9-3.5,2-4.8,2.7-3.8c0,0-1.7,0.4-2,1.3c-0.3,0.8,1.5,3.3,2.4,1.7c0.9-1.6,1.5-2.1-1-4.7c-2.5-2.6-4.4-3-5.9-2.3
						c-1.6,0.7-7.3,2.2-5.4,4.3c0,0,4.1,3.6,4.6,8.2c0.5,4.6-4.2,3.9-0.6,6c3.6,2.2,7.6-4.2,11.3-4.5c3.7-0.3,5.4-3.5,5.4-3.5
						s0.5,4-4.7,4.9c0,0,4,3.9,7.5,1.3c3.5-2.6,0.9-9.3-4.1-11.9c0,0,1.4-2.5,7.9,0.2c6.4,2.7,19.4,6,25.5,2.3
						C256.1,87.8,254.8,81.1,249.2,77.7z"/>
					<path class="st4" d="M271.3,68.2c6.3-7.5-13.7-6.1-13.7-6.1s-8.8,0.3-9.8,3.1c-1,2.8,1,6.9,3.2,9.2
						C253.1,76.7,264.9,75.7,271.3,68.2z"/>
					<path class="st4" d="M73.7,111.5c0,0-0.3-0.8-2.8,0.1c-2.4,1-2.2,3.3,0.4,3.7C73.9,115.7,78,113.7,73.7,111.5z"/>
					<path class="st4" d="M505.6,122c0,0-7.7-4.8-9,2.5C495.3,131.8,514.6,128.5,505.6,122z"/>
				</g>
				<g class="st5">
					<path class="st6" d="M-147.4,126.5c0,0-1-1.8,1.7-2.6c2.7-0.8,7-1.7,8.7-4.3c1.7-2.6,3.1-2.4,3.5-1.2c0.4,1.2-0.3,3.8-4.8,6.2
						C-143.3,127.3-147.3,127.6-147.4,126.5z"/>
					<path class="st6" d="M-117.7,111.2c0,0-0.6,2.2-0.3,4c0.4,2,5.6,9.9,18.6,12.6c13.8,2.9,23-0.3,28.4-8.2
						c5.3-7.9-5.1-11.8-5.1-11.8s3.6,3.5,2,6.2c-1.6,2.7-5.5,5.4-9.5,4.9c-4-0.5-7.9-3.3-5.5-7.5c0,0-6.4,4.2-2.2,8.7s11.7,3,11.7,3
						s-2.3,6.5-19.8,1.9C-116.2,120.5-117.1,114.5-117.7,111.2z"/>
					<path class="st6" d="M-15.9,126.3c0,0,8.6,3.5,13.7,2.7s11-5.7,13.4-6s2.3,2.7-0.5,5.2s-12,5.5-18.6,4.5
						C-24.2,130.3-18.2,124.6-15.9,126.3z"/>
					
						<ellipse transform="matrix(0.9951 9.925634e-002 -9.925634e-002 0.9951 12.1761 -4.0929)" class="st6" cx="47.2" cy="120.3" rx="2.5" ry="1.1"/>
					
						<ellipse transform="matrix(0.9951 9.925634e-002 -9.925634e-002 0.9951 12.15 -2.8835)" class="st6" cx="35.1" cy="120.7" rx="3.3" ry="1.5"/>
				</g>
				<g>
					<path class="st7" d="M175.7,96.8c0,0,6.2-2.9,8.5-2.2c2.3,0.7-0.4,4.1-3.2,4.5C178.2,99.5,172.6,99.3,175.7,96.8z"/>
					<path class="st7" d="M135.7,109.6c0,0,9.3,2.8,15.5-0.2s6.6-8,6.6-8s-6.5,3.1-15.2,1.9c0,0,17.6-2.3,17.5-7.7
						c0,0,3.9,2.2,2.8,6.6c-1,4.4-6,10.9-13,12C142.9,115.3,135.7,109.6,135.7,109.6z"/>
					<path class="st7" d="M339.2,93.1c0.3-0.5,0.1-1.1-0.4-1.5c-1.1-0.8-3.7-2.5-5.9-1.7C330.3,90.9,338,95.3,339.2,93.1z"/>
					<path class="st7" d="M352.6,93.6c-1.1-0.9-0.6-2.7,0.8-2.9c0,0,0,0,0.1,0c2-0.3,3,1.4,5.2,1.2s4.2-1.1,4.7-0.3
						c0.5,0.9,0.4,2.8-4.1,3.1C355.8,94.9,353.9,94.6,352.6,93.6z"/>
					<path class="st7" d="M387.9,100.5c-0.3-0.4-0.3-0.9,0-1.3c0.2-0.3,0.7-0.6,1.7-0.3c1.9,0.7,3.5,2.2,4.7,0.4s1.7-0.3,1.7,0.2
						c0,0.5-0.3,2.3-3.5,2.6C389.9,102.3,388.5,101.3,387.9,100.5z"/>
					<path class="st7" d="M403.9,93.7c0,0-4.6,6.5,6.1,11.3c10.8,4.8,20.3-0.2,20.3-0.2s1.5-0.6,0.6-1.2s-3.4,1-7.7,0.4
						c-4.3-0.6-7.7-0.9-8.8-3.3s3.1-4.9,2.8-6c-0.3-1.1-5.4,0-7.1,3.7c-1.7,3.7-4.3-0.9-4.6-3C405.1,93.3,405.1,92.5,403.9,93.7z"/>
					
						<ellipse transform="matrix(0.9951 9.925634e-002 -9.925634e-002 0.9951 12.1544 -5.4676)" class="st7" cx="61" cy="119.4" rx="2" ry="1.1"/>
					<path class="st7" d="M281.3,89.6c0,0-2.9,9.5-9.8,6.2c-7-3.3-7.7-7.9-9.5-8.1s-2.1,4.4,1.2,8.3c3.3,3.9,7.5,6.8,13.1,3.8
						c5.7-3,8.2-10.1,8.1-10.5C284.4,89,282.3,87.3,281.3,89.6z"/>
				</g>
			</g>
		</g>
	</g>
</g>
</svg>
