<?xml version="1.0" encoding="utf-8"?>
<!-- Generator: Adobe Illustrator 19.1.0, SVG Export Plug-In . SVG Version: 6.00 Build 0)  -->
<svg version="1.1" id="Layer_1" xmlns="http://www.w3.org/2000/svg" xmlns:xlink="http://www.w3.org/1999/xlink" x="0px" y="0px"
	 viewBox="0 0 475 308" style="enable-background:new 0 0 475 308;" xml:space="preserve">
<style type="text/css">
	.st0{fill:#155B51;}
	.st1{opacity:0.1;fill:#FFFFFF;}
	.st2{opacity:0.4;fill:#155B51;}
	.st3{opacity:0.3;fill:#FFFFFF;}
	.st4{opacity:0.2;fill:#155B51;}
</style>
<g>
	<path class="st0" d="M290.5,81.5c-0.2-0.7-1.2-0.7-1.5-0.1l-4.5,9.3c-0.2,0.4-0.6,0.5-1,0.3c-0.4-0.2-0.5-0.6-0.3-1l4.9-10.1
		c0.2-0.4,0-0.9-0.4-1.1l0,0c-0.4-0.2-0.9,0-1.1,0.4l-4.9,10.1c-0.2,0.4-0.6,0.5-1,0.3c-0.4-0.2-0.5-0.6-0.3-1l4.9-10.1
		c0.2-0.4,0-0.9-0.4-1.1l-0.2-0.1c-0.4-0.2-0.9,0-1.1,0.4l-4.8,9.9c-0.2,0.4-0.6,0.5-1,0.3c-0.4-0.2-0.5-0.6-0.3-1l4.4-9
		c0.3-0.7-0.3-1.4-1-1.1c-0.9,0.3-1.6,1-2,1.9l-4,8.3c-0.9,1.9-0.1,4.2,1.9,5.1l0.8,0.4L264.7,120l3,1.4l12.7-27.2l0.8,0.4
		c1.9,0.9,4.2,0.1,5.1-1.9l4-8.3C290.7,83.4,290.8,82.4,290.5,81.5z"/>
	<path class="st0" d="M257.1,148.1c0.7-2.3,13-27,14-30c2.8-8.5-3.4-7.8-5.3-4.6c-13.2,23.2-16.1,27.4-16.1,27.4s-13.9,2.6-16.7,7.1
		c0,0-4.2,9.7-5,12.5c-0.8,2.8,7.5,16.3,7.8,19.8s-4.2,29.9-4.2,29.9s11.2-2.6,11.7-2.8c0.5-0.2,0.7-17.5,4.3-22.2
		c0,0,1.2-1.1,1.4,0.4s0.1,9.8,0.1,9.8s-0.8,1.7-0.8,3.8s2.3,2.1,4.4,2.1s8.7,0.8,9.5,0.3s2-4.1-3.1-7c0,0,0-19.1-0.3-20.8
		c-0.8-3.8-3.1-4-3.1-4l0.3-17.8C256.2,152.1,256.4,150.4,257.1,148.1z M236.7,164.6c0,0-0.5-0.6-0.6-0.9s0.5-2.1,0.5-2.1
		C236.8,162.8,236.7,164.6,236.7,164.6z"/>
	<path class="st1" d="M233.3,149.7c-1,2.3-3.1,7.1-3.3,8.7l5.1,2.3c0,0,0.6-2.8,0.8-3.6s-0.6-3.1-0.6-3.1s2.1,1.2,2.9,4.1
		c0.8,2.9,0.1,16.9-0.1,19.1c-0.2,2.3,0.9,2.7,2.2,1.6c0.6-0.5,4.7,0.7,7.5-1.2c1-0.7,0.8-4,1.6-5c2.2-2.7,4.1-2.7,4.3-3
		c0.6-0.6,1.3-17.5,1.3-19.2s4.1-10.6,4.1-10.6l-4.9-3.7l-3.6,5.3c0,0,0.7,1.6-0.4,4.6c-0.2,0.4-0.5,0.7-0.7,1.1
		c-1.1,2-4.1,1.9-5.6,0.2c-0.9-1.1-2.2-1.6-2.4-1.7c-0.7-0.3-2.8-0.6-3.9-0.1c-0.6,0.3-1.7,1-2.7,1.8
		C234.2,148,233.7,148.8,233.3,149.7z"/>
	<path class="st1" d="M248.3,182.4c-1,0.1-1.4,0.5-1.4,0.5c-3.7,3.5-4.9,23.8-4.9,23.8l-8,1.3c0.3-4.4,3.1-20.3,4-25.2
		c0.2-1,0.8-1.9,1.8-2.3c0,0,1.7-0.9,2-0.8s4.5,0.4,5.4,0.2c0.9-0.2,1.8-1.1,1.9-1.2c0.1-0.1,0,1.9-0.1,3.1
		C248.9,182.1,248.6,182.4,248.3,182.4z"/>
	<path class="st1" d="M257.5,174.4c0,0,0.1-2.8-1.7-3.2c-1.2-0.2-4.4,1-5.1,2.9s-0.1,20.8-0.1,20.8s4.3-1.7,6.4-0.8
		C259.1,195.1,257.5,174.4,257.5,174.4z"/>
	<polygon class="st0" points="211,252.8 221.1,227 225.1,226.5 231.1,210 246.8,202.8 247.3,198.8 263.3,201.5 262.8,208.3 
		266.6,208.5 263.6,221 266.3,230.3 262.1,236 264.3,243.8 269.3,267.5 265.6,286.3 272.3,308 184.3,308 204.3,285.5 204.8,266 
		210.1,263.8 	"/>
	<path class="st2" d="M245.2,185.8c0,0,0.3-1.7,0-2.2s-1.7-0.8-2.3,0.4s-2.5,9.6-3.2,14.2c-0.7,4.6,0.3,6.7,1.3,5.9
		c1-0.8,1.4-3.3,1.4-3.3l0.3,2.5l-0.1,2.3l-9.3,3l0.1-3l4.4-25.8l5.4-0.9l4.3-0.3l1.9-1.2l0.1,2.8l-0.2,2.4L245.2,185.8z"/>
	<path class="st2" d="M253.2,171.9c0,0-1.2,0.5-1.4,4.5c-0.2,4.1,0.5,13.8,1.9,15c1.5,1.2,4-2.4,4.2-4.9c0.2-2.5,0.6,0.8,0.6,0.8
		l-0.2,7.9l-8.2,0.7c0,0-0.9-18.6-0.4-20.5C250.1,173.4,251.5,172.3,253.2,171.9z"/>
	<path class="st2" d="M242.2,145.8c0,0-3.3,0.1-4.6,1.3c-1.3,1.3,0.9,3.8,2,6.8c1.1,2.9,2.6,9,2.3,13.3c-0.3,4.3-0.5,7,0.9,7.6
		c1.3,0.6,4.3-2.6,5.9-4.1c1.7-1.5,4.9-2.9,5.2-2.3s0.1,1.9,0.1,1.9l-3.6,1.9l-1.5,5c0,0-1.6,1.3-4.4,1.6c-2.8,0.3-5.4,1.1-5.4,1.1
		l-1.8,0.1c0,0,1.3-14.3,0.7-16.4s-1.9-8.1-2.4-9c-0.6-0.9-2.3-1.6-2.8-0.6c-0.6,1,1.2,5.4,1.9,4.8s0.8,0.8,0.6,1.7
		s-1.6,3.1-1.6,3.1l-4.6-3.9c0,0,3.8-10.5,4.4-11.4c0.6-0.9,5-3.8,6-3.7S242.2,145.8,242.2,145.8z"/>
	<path class="st1" d="M250.3,199.1c0,0-0.3-2,1.7-3.2s5.6-0.7,6.9,0.1c1.3,0.8,2.8,2.2,2.8,3.1c0,0.9-0.7,1.2-1.8,1.1
		C258.7,200,250.7,200.8,250.3,199.1z"/>
	<path class="st2" d="M257.9,195.5c0,0-1-0.3-1.4,0.1c-0.9,0.8,0.3,1.9,2.6,2.3c2.3,0.4,1.1-0.9,0.7-1.4c-0.4-0.5,1.8,1,1.8,1
		l0.7,1.9l-1.3,1.3l-11.3-0.2l0.1-2.6l1.9-2.6l3.7-0.5L257.9,195.5z"/>
	<path class="st3" d="M229.8,160.1c0,0-0.3,0.8-0.4,1.3c-0.3,1.9,5.8,12.8,6.5,13c0.7,0.2,1.2-6.1,1.2-6.1s-2.4-3.5-2.6-4.2
		s0.2-2.1,0.2-2.1L229.8,160.1z"/>
	<path class="st4" d="M235.1,164.6l0.4-3l-6.4-1.9l-0.3,2.2l7.3,14.1l1.9-7.5L235.1,164.6z M235.9,169.3c-0.3,0.2-1.4-1.1-2.3-2.9
		c-1-1.8-0.5-2.5-0.5-2.5c-0.2-0.4-0.6-1.6-0.2-1.7s0.9,0.3,0.9,0.3c0.3,0.5,0.1,1.3-0.1,1.6s-0.4,0,0,0.6c0.4,0.6,2.2,3.4,2.4,3.8
		S236.2,169.1,235.9,169.3z"/>
	<path class="st3" d="M254.6,135.4l4.9,3.8c0,0,10.2-19.4,10.8-24.3s-3.2-1.9-5.6,2.6C263.3,120.3,254.6,135.4,254.6,135.4z"/>
	<path class="st4" d="M270.3,111.9l-1.4-0.1l-2.4,2l-13.2,21.6l6.6,4.6l9.3-20.2l1.8-6.4L270.3,111.9z M258.7,132.6
		c-0.7-2.1,2.3-6.6,2.3-6.6c5.6-10.7,7.4-12.9,7.7-11.5C268.9,115.9,259.4,134.7,258.7,132.6z"/>
	<path class="st3" d="M243.6,144.7c0,0,1.5,2.6,2.3,2.8s2.8-0.4,3.4-2.7s0.6-3,0.6-3s-2.5,3.6-5.8,2.1
		C242.7,143.2,242.6,143.3,243.6,144.7z"/>
	<ellipse transform="matrix(0.9892 -0.1468 0.1468 0.9892 -17.174 37.3293)" class="st0" cx="244.3" cy="135" rx="7.1" ry="9.6"/>
	<path class="st4" d="M250.2,140.4c0,0-2.4,3.1-3.4,2.8c0,0-4.2-0.4-4.4,0.2c-0.2,0.5,2,3.7,2,3.7s1.1,2.2,2.8,1s3.3-3.6,3.2-4.7
		C250.3,142.3,250.2,140.4,250.2,140.4z M247.5,145.4c-0.5,0.2-1,0.1-1-0.1c-0.1-0.2,0.3-0.5,0.8-0.7c0.5-0.2,1-0.1,1,0.1
		C248.4,144.9,248,145.2,247.5,145.4z"/>
	<ellipse transform="matrix(0.9892 -0.1468 0.1468 0.9892 -17.174 37.3293)" class="st3" cx="244.3" cy="135" rx="5.9" ry="8.1"/>
	<path class="st4" d="M250.6,132.8c-0.3-1.8-3.2-4.8-3.2-4.8s-6.7,3.3-9,7.9l-0.2,1.5c0,0,0.9,3.7,3,4.9c2.1,1.3,4.9,2,6.4,0.8
		c1.5-1.2,2.8-3.4,2.9-4.7S250.9,134.7,250.6,132.8z M247.3,139.4c-1-0.4-2.8-3.2-3.1-6.7c-0.1-0.7,0.5-1.5,1.3-1.9
		c1.1-0.6,2.6-0.1,3,1.1c0.3,0.9,1,1.9,1.1,3.6C249.7,137.3,248.6,139.9,247.3,139.4z"/>
	<g>
		<g>
			<path class="st0" d="M247.2,124.5c-1.2-0.8-2.7-1.3-4.4-1.3c-4.3,0-8.1,3.6-7.8,8.8c0.1,1.8,0.6,3.4,1.6,4.7
				c0.3,0.4,0.6,0.8,1,1.1c0-0.6,0.4-1.4,0.9-2.1c1-1.6,2.4-2.9,4.1-4l2.1-1.3c3.9-2.5,5.2-0.6,5.2-0.6s0.1-0.1,0.3-0.3
				C249.6,127.8,248.6,125.5,247.2,124.5z"/>
		</g>
		<path class="st0" d="M243,128.3c0,0,3.7-4.5,7.2-4.9s4.9,2.7-0.2,6.4l-3.1-1.6L243,128.3z"/>
		<path class="st1" d="M241.9,130.8c0,0,5.5-3.3,6.5-2.6s0.9,0.9,0.9,0.9s2.5-1.6,3-3.2s-1.4-1.9-2.5-1.6
			C247.6,125,244,127.8,241.9,130.8z"/>
		<path class="st1" d="M246,125c0,0-1.6-1.3-5-0.4s-4.9,5.7-4.7,7.4s1.4,3,1.4,3l3.1-3.5C240.8,131.6,239.5,130.3,246,125z"/>
		<path class="st2" d="M251.3,123.8l-2.8,0.6l-1.8,0.8c0,0-0.9-1-2.3-1.2s-4.8,0.2-6.2,1.8c-1.4,1.6-2.8,4.9-2.5,6.6
			s1.9,3.3,1.9,3.3l3.9-4.3l6.4-3l1.4,1.1l2.2-1.8l1.4-2.9L251.3,123.8z M241.8,127.4c-1.3,0.6-2.3-0.6-1.4-1.5
			c0.9-0.9,2.3-1.1,2.3-1.1s1.1,0,1.5,0.3C244.7,125.5,243.1,126.7,241.8,127.4z M251.3,126.6c-0.3,0.4-0.6,0.2-0.5-0.2
			s-0.7-0.4-1.9-0.2c-1.2,0.2-1.2-0.2-1.1-0.3c0.1-0.1,1.6-1.2,2.8-1.1s1.1,0.5,1.1,0.5C251.8,126,251.6,126.3,251.3,126.6z"/>
	</g>
	<polygon class="st1" points="267.2,267 259.5,238 255.2,239.1 252.2,232.3 247.7,239 246.7,228.3 243.6,230 246.6,225.8 
		247.4,219.8 249.3,232.4 253,227.3 256.8,235.4 260,234.8 263.7,229.8 261.1,220.8 264.2,210.5 260.2,209.8 261.3,203.2 257,203.1 
		253.6,212.5 253.5,203.3 249,202.1 248.7,217.4 246.2,207.7 244.3,207.8 243.2,222.5 242.6,208 240,208.3 237.5,217.4 237.6,210.3 
		233.7,212.1 229.7,228.6 223.2,230 216.8,251.4 218.6,262.4 223.3,257.8 227.6,258.3 238,239.4 233.1,259.3 230.5,263.2 
		225.8,262.5 212.2,272.8 207.8,268.7 209,286.8 194.5,304.2 223.8,303.2 234.7,275.5 240.3,274.8 242.8,263.4 242.5,286.9 
		247,287.4 257.1,262.2 251.4,263.4 247.8,274.4 248.2,261.9 253.5,261 253.2,249.5 258.1,258.3 255.7,244.3 263.6,267.5 	"/>
	<polygon class="st1" points="257.2,269.1 248.5,292.3 240.4,291.3 234.9,303.1 265.6,303.2 260.5,286.9 264.3,270.8 262.2,270.9 
		254.8,292.2 260.6,267.3 259.3,262.8 	"/>
	<polygon class="st1" points="236.4,278.5 240.6,278.2 239.4,287.7 232.2,303.3 226.5,303.4 	"/>
</g>
</svg>
