<?xml version="1.0" encoding="utf-8"?>
<!-- Generator: Adobe Illustrator 19.1.0, SVG Export Plug-In . SVG Version: 6.00 Build 0)  -->
<svg version="1.1" xmlns="http://www.w3.org/2000/svg" xmlns:xlink="http://www.w3.org/1999/xlink" x="0px" y="0px"
	 viewBox="0 0 375 429" style="enable-background:new 0 0 375 429;" xml:space="preserve">
<style type="text/css">
	.st0{clip-path:url(#SVGID_2_);}
	.st1{fill:#149680;}
	.st2{fill:#1CB7A1;}
	.st3{opacity:0.5;fill:#00F1D3;}
	.st4{opacity:0.2;}
	.st5{fill:#FFFFFF;}
	.st6{fill:#00F1D3;}
	.st7{clip-path:url(#SVGID_2_);fill:#155B51;}
	.st8{opacity:0.1;clip-path:url(#SVGID_2_);fill:#FFFFFF;}
	.st9{opacity:0.1;fill:#FFFFFF;}
	.st10{clip-path:url(#SVGID_2_);fill:none;}
	.st11{fill:#155B51;}
	.st12{fill:#F2E6C4;}
	.st13{opacity:0.5;fill:#D6C296;}
	.st14{fill:#00A490;}
	.st15{clip-path:url(#SVGID_4_);}
	.st16{clip-path:url(#SVGID_4_);fill:#155B51;}
	.st17{opacity:0.1;clip-path:url(#SVGID_4_);fill:#FFFFFF;}
	.st18{opacity:0.3;fill:#FFFFFF;}
	.st19{opacity:0.2;fill:#155B51;}
	.st20{opacity:0.4;fill:#155B51;}
	.st21{opacity:0.1;}
	.st22{clip-path:url(#SVGID_6_);fill:#FFFFFF;}
	.st23{opacity:4.000000e-02;clip-path:url(#SVGID_4_);fill:#FFFFFF;}
	.st24{fill:#D8AB52;}
	.st25{opacity:0.19;fill:#FFFFFF;}
	.st26{fill:#D6C296;}
	.st27{fill:#00F1D3;stroke:#00A490;stroke-width:2;stroke-miterlimit:10;}
	.st28{fill:none;stroke:#00A490;stroke-width:2;stroke-miterlimit:10;}
	.st29{fill:#A4FFF2;}
	.st30{clip-path:url(#SVGID_10_);fill:#FFFFFF;}
	.st31{clip-path:url(#SVGID_12_);}
	.st32{clip-path:url(#SVGID_12_);fill:#00F1D3;}
	.st33{opacity:0.5;fill:#F2E6C4;}
	.st34{fill:#A4FFF2;stroke:#00A490;stroke-width:2;stroke-miterlimit:10;}
	.st35{fill:#968D78;}
	.st36{fill:#827F7A;}
	.st37{opacity:0.5;fill:#AAA393;}
	.st38{opacity:0.5;fill:#EAE9C1;}
	.st39{fill:#F9E8BD;}
	.st40{opacity:0.21;fill:#968D78;}
	.st41{opacity:0.5;fill:#1CB7A1;}
	.st42{opacity:0.5;fill:#FFFFFF;}
	.st43{opacity:0.7;}
	.st44{fill:none;}
	.st45{clip-path:url(#SVGID_20_);fill:#FFFFFF;}
	.st46{clip-path:url(#SVGID_22_);fill:#155B51;}
	.st47{opacity:0.1;clip-path:url(#SVGID_22_);fill:#FFFFFF;}
	.st48{clip-path:url(#SVGID_26_);}
	.st49{clip-path:url(#SVGID_26_);fill:#D6C296;}
	.st50{opacity:5.000000e-02;}
	.st51{opacity:0.5;fill:#968D78;}
	.st52{clip-path:url(#SVGID_32_);}
	.st53{clip-path:url(#SVGID_32_);fill:#00F1D3;}
	.st54{clip-path:url(#SVGID_34_);fill:#FFFFFF;}
	.st55{fill:#A42000;}
	.st56{opacity:0.5;}
	.st57{fill:#5D5D5D;}
	.st58{clip-path:url(#SVGID_40_);}
	.st59{opacity:0.21;}
</style>
<g id="Layer_1">
	<rect y="352.8" class="st14" width="375" height="82.2"/>
	<g>
		<g>
			<g>
				<g>
					<path class="st6" d="M65.1,394l19.8,19.8c0.5,0.5,1.3,0.5,1.9,0l0,0c0.5-0.5,0.5-1.3,0-1.9l-12.5-12.5c-0.8-0.8-1.1-2-0.8-3.1
						l0.3-1.3c0.3-1.1,0-2.3-0.8-3.1l-13.2-13.2c-2.1-2.1-5-3.4-8-3.4c-1.5,0-3.1,0.3-4.1,1.3L65.1,394z"/>
				</g>
				<g>
					<g>
						<polygon class="st6" points="47.3,413.4 47.3,413.4 47.3,413.4 						"/>
						<polyline class="st14" points="47.3,413.4 47.3,413.4 47.3,413.4 47.3,413.4 						"/>
					</g>
					<g>
						<path class="st6" d="M48.1,414.7c-0.6,0-1.1-0.2-1.5-0.6c-0.9-0.9-0.9-2.5,0-3.4L69.3,388c-0.8-2.1-0.3-4.6,1.4-6.3l9.7-9.7
							c0.3-0.3,0.7-0.5,1.2-0.5c0.4,0,0.9,0.2,1.2,0.5c0.3,0.3,0.5,0.7,0.5,1.2c0,0.1,0,0.1,0,0.2c0.1,0,0.1,0,0.2,0
							c0.4,0,0.9,0.2,1.2,0.5c0.4,0.4,0.5,0.9,0.5,1.4c0.1,0,0.1,0,0.2,0c0.4,0,0.9,0.2,1.2,0.5c0.4,0.4,0.5,0.9,0.5,1.4
							c0.1,0,0.1,0,0.2,0c0.4,0,0.9,0.2,1.2,0.5s0.5,0.7,0.5,1.2c0,0.4-0.2,0.9-0.5,1.2l-9.7,9.7c-1.1,1.1-2.7,1.8-4.2,1.8
							c0,0,0,0,0,0c-0.6,0-1.1-0.1-1.6-0.2L49.9,414C49.4,414.5,48.8,414.7,48.1,414.7z"/>
						<path class="st14" d="M81.6,372.6c0.2,0,0.3,0.1,0.5,0.2c0.3,0.3,0.3,0.7,0,0.9l-9.6,9.6c-0.3,0.3-0.3,0.7,0,0.9
							c0.1,0.1,0.3,0.2,0.5,0.2s0.3-0.1,0.5-0.2l9.6-9.6c0.1-0.1,0.3-0.2,0.5-0.2s0.3,0.1,0.5,0.2c0.3,0.3,0.3,0.7,0,0.9l-9.6,9.6
							c-0.3,0.3-0.3,0.7,0,0.9c0.1,0.1,0.3,0.2,0.5,0.2s0.3-0.1,0.5-0.2l9.6-9.6c0.1-0.1,0.3-0.2,0.5-0.2s0.3,0.1,0.5,0.2
							c0.3,0.3,0.3,0.7,0,0.9l-9.6,9.6c-0.3,0.3-0.3,0.7,0,0.9c0.1,0.1,0.3,0.2,0.5,0.2c0.2,0,0.3-0.1,0.5-0.2l9.6-9.6
							c0.1-0.1,0.3-0.2,0.5-0.2s0.3,0.1,0.5,0.2c0.3,0.3,0.3,0.7,0,0.9l-9.7,9.7c-1,1-2.2,1.5-3.5,1.5c-0.6,0-1.3-0.1-1.9-0.4
							l-23.3,23.3c-0.3,0.3-0.7,0.4-1.1,0.4c-0.3,0-0.6-0.1-0.8-0.3c-0.5-0.5-0.5-1.5,0-2l23.2-23.2c-1-1.8-0.7-4.3,0.9-5.8l9.7-9.7
							C81.2,372.6,81.4,372.6,81.6,372.6 M81.6,370.6c-0.7,0-1.4,0.3-1.9,0.8L70,381c-1.8,1.8-2.4,4.4-1.8,6.7L45.9,410
							c-1.3,1.3-1.3,3.5-0.1,4.8c0.6,0.6,1.4,0.9,2.3,0.9c0.9,0,1.8-0.4,2.5-1l22.5-22.5c0.4,0.1,0.9,0.1,1.3,0.1
							c1.8,0,3.6-0.7,4.9-2l9.7-9.7c1-1,1-2.7,0-3.8c-0.3-0.3-0.7-0.6-1.2-0.7c-0.1-0.4-0.4-0.8-0.7-1.2c-0.3-0.3-0.7-0.6-1.2-0.7
							c-0.1-0.4-0.4-0.8-0.7-1.2c-0.3-0.3-0.7-0.6-1.2-0.7c-0.1-0.4-0.4-0.8-0.7-1.2C82.9,370.8,82.3,370.6,81.6,370.6L81.6,370.6z"
							/>
					</g>
				</g>
			</g>
		</g>
		<g>
			<g>
				<path class="st29" d="M138,386v27.2c0,1.5,0.1,2.8,1.6,2.8h15.8c1.5,0,2.6-1.3,2.6-2.8V386H138z"/>
				<g>
					<circle class="st29" cx="136.8" cy="384.7" r="7.1"/>
					<circle class="st29" cx="158.2" cy="384.7" r="7.1"/>
					<circle class="st29" cx="147.5" cy="381.3" r="9.1"/>
				</g>
			</g>
			<rect x="135.8" y="410.5" class="st14" width="24.6" height="1.6"/>
			<path class="st14" d="M137,391.8c0,0,3.3-0.2,5-1.8c0,0-2.1,3.6-5.4,4.5L137,391.8z"/>
			<path class="st14" d="M160.2,391.6c0,0-3.6,0.7-5.3-1c0,0,1.5,3,4.8,4L160.2,391.6z"/>
		</g>
		<g>
			<g>
				<path class="st27" d="M242,412.6c0,3-2.4,5.4-5.4,5.4h-23.2c-3,0-5.4-2.4-5.4-5.4v-34.2c0-3,2.4-5.4,5.4-5.4h23.2
					c3,0,5.4,2.4,5.4,5.4V412.6z"/>
			</g>
			<path class="st28" d="M247,411.6c0,1.3-1.1,2.4-2.4,2.4h-30.2c-1.3,0-2.4-1.1-2.4-2.4v-0.2c0-1.3,1.1-2.4,2.4-2.4h30.2
				c1.3,0,2.4,1.1,2.4,2.4V411.6z"/>
			<polygon class="st27" points="229,412 229,424.2 232.6,420.4 236,424.1 236,412 			"/>
		</g>
		<g>
			<circle class="st27" cx="307.9" cy="414.5" r="5.6"/>
			<g>
				<path class="st27" d="M288,412.2C288,412.2,288,412.2,288,412.2C288,412.1,288,412.1,288,412.2L288,412.2z"/>
				<path class="st27" d="M327.8,412.1C327.8,412.1,327.8,412.1,327.8,412.1C327.8,412.2,327.8,412.2,327.8,412.1L327.8,412.1z"/>
				<path class="st27" d="M325.9,411L325.9,411c-2.6,0-4.9-3.1-4.9-5.8v-13.5c0-5.7-3.5-10.9-8.6-12.8c0-0.2,0.1-0.5,0.1-0.7
					c0-2.5-2-4.5-4.5-4.5c-2.5,0-4.5,2-4.5,4.5c0,0.2-0.3,0.4-0.2,0.6c-5.2,1.8-9.2,6.7-9.2,12.5v13.9c0,2.7-1.4,5.8-4.1,5.8h0.1
					c-1.2,0-2,0.2-2,1.3c0,1.2,1,1.7,2.1,1.7h36.1c1.2,0,1.6-0.5,1.6-1.7C327.8,411.2,327.1,411,325.9,411z"/>
			</g>
		</g>
	</g>
	<rect y="1" class="st12" width="375" height="434"/>
	<path class="st18" d="M5.7,16c-3.3,21.8,4.5,65.9,4,88c-2,96,0.3,174,3,226.7c1.2,23.8,2.3,48.3,2.9,64.2c0.4,9.4,8.7,16.6,18,15.6
		c20.4-2.2,54.7-4.6,79.4-0.2c37.3,6.7,118,7,152.7-1.7c20.9-5.2,52.2-2.7,73.8,0.1c12.8,1.7,24.1-8.4,24-21.3
		c-0.4-55.7-0.9-187.7,2.2-224.2c4-46.7,3.7-142.7,3.7-142.7h-4L356,72.3l-12-55l-190.7-5.7l-8,27.3l-9.7-27H69.3L56.7,58.7L45.7,10
		L9.4,11.5C7,11.6,5.3,13.7,5.7,16L5.7,16z"/>
	<g>
		<defs>
			<rect id="SVGID_11_" x="-453" y="-192" width="375" height="192"/>
		</defs>
		<clipPath id="SVGID_2_">
			<use xlink:href="#SVGID_11_"  style="overflow:visible;"/>
		</clipPath>
		<g class="st0">
		</g>
	</g>
	<rect class="st26" width="375" height="5"/>
	<polygon class="st26" points="50.3,4 57,41.3 63,4.3 	"/>
	<polygon class="st26" points="140.7,5 145,21.3 148.7,4.7 	"/>
	<polygon class="st26" points="350.7,3.5 355,45.7 358.7,1.7 	"/>
	<polygon class="st26" points="293.2,4.5 352,8.2 352.8,3 	"/>
	<g>
		<defs>
			<rect id="SVGID_31_" y="469" width="375" height="192"/>
		</defs>
		<clipPath id="SVGID_4_">
			<use xlink:href="#SVGID_31_"  style="overflow:visible;"/>
		</clipPath>
		<g class="st15">
			<g>
				<polygon class="st1" points="603.8,515.9 -248.8,431.4 -235.8,301.1 616.7,386.2 				"/>
				<path class="st2" d="M-66.2,535.9l-1.1,11.4c0,0-11.4-5.3-13.6-15.1c0,0-2.1,12.1-19.3,11.8c-17.2-0.3-16.6-8.6-16.6-8.6
					s-7,11.7-22.9,11.2c-18.8-0.5-33-8.2-33.5-19.2c0,0-7.4,18.7-31.9,19.6c0,0,1.4,0.6-0.7,3.4c-3.4,4.5-23.8,10.1-36.1,5.6
					c-9.7-3.5-7.8-7.2-7.8-7.2s-1.4,2.7-12.1,1.3l20.1-201.7c0,0,2.7-8.3,16.4-9.3s23.7,9.1,23.7,9.1s7.1-16,25.8-15.6
					c18.6,0.4,27,13.2,29.3,15.9c0,0,4.6-12,16.7-11.4c0,0,10.2,0.7,13.2,9.1c0,0,1.2-2.7,5.1-2.6c3.8,0.1,3.3,5.1,1.2,6.8
					c0,0-2.3,1.4-4.6,1c0,0,1.2,4.9-5.4,5.7c0,0,0.6,8-18,8c0,0,2.6,7.2-6,9.7s-13.4,2.7-16.6,0.7c0,0,9,3.3,13.3,15.2
					c0,0,4.7-7.1,12-6.4c7.3,0.7,13.2,5.1,14.5,11.3c0,0,11.8-18.6,34.6-11.2c0,0-4.6-11,6-18.6c10.6-7.6,18,1.8,18,1.8
					s-0.2-4.5,3.9-6.6c4-2.2,9.8-0.7,13.6,4.9c0,0,3-11,12.5-12.4s25.6,0.2,29.5,14c0,0,9.6-21.5,37.2-18.8c0,0,19,0.9,34.9,19.8
					c0,0,5.6-16.7,26.2-16.5c20.6,0.1,20.2,19.7,20.2,19.7s7.4-4,12.8,1.8c5.4,5.8,2.9,12.7,2.9,12.7s20-14.3,33.3,6.2
					s-2.6,26.5-2.6,26.5s16.2-4.1,20.8,2.6s4.4,16.2-2.2,16.5s30.1-13.3,51.1,2.2c0,0,3.2-14,37.3-3.9c15.1,4.5,4.2,11,4.2,11
					l0.7,52.3l-298.4-9.8L-66.2,535.9z"/>
				<path class="st1" d="M-59.7,397.7c0,0-4.6-14.3,12.7-20.8c17.3-6.4,26.1,1.2,27.6,9.9c0,0,2.3,1.2,0.6-6.2c0,0,4.7-4.1,11.9-1.9
					c0,0,3.8,7.1-6.6,13.7c0,0,10.4-1.4,13.8-16.1c0,0,1.1-2.8,4.3-2.9c3.2-0.2,17.8,0.2,20,10.1s-10,16.6-15.1,15.9
					c0,0-5.9-0.3-7.9-3.8c0,0,3.2,2.9,1.1,6.2s-7,1.7-8.8,0.4c0,0,0.3,2,2.5,3.3c0,0,3.5,1.8,1,4.9c0,0,8.2-4.7,14.1-0.4
					s3.7,10.8,3.7,10.8s2-0.5,1.9-5.7c0,0-0.8-2,0.9-3s5.4-1.7,8.4,0s1.5,5.3,1.5,5.3s1.2,0.1,1.7-2.7c0,0,0-2.2,4.8-1.4
					c4.8,0.7,1.3,4.9,1.3,4.9s-3.6,3.5-9.7,2.5c0,0,3.2,0.2,4,2.4c0.8,2.2-6.4,4.4-8.5,2.6c-2.1-1.8-0.9-2.9-0.9-2.9
					s-1.7,0.7-0.3,2.8c1.4,2.1,0,0.4,0,0.4s1.7,1.2,0.5,2.5c-1.2,1.3-8.4,4.7-12.1,1.5c-3.8-3.2-1.5-6.1-1.5-6.1s-1.9,0.9-2.2,4
					c0,0-0.5,3.8-3.3,4.7s-8.1,1.5-10.7-2.8c0,0,0.6,2.7,2.6,4.3s0.5,9.8-6.1,9.5c-6.5-0.3-10.9-1.6-11.7-4.5c0,0,1.2,7.1-4.1,7.1
					c0,0,8.8-3.1,17.7,4.5c0,0,4.8,3.5,5.4,14.6c0,0,2.1-3.8,0-10.9c0,0,2.9-3.9,9-1.9s6.8,6.7,6.8,6.7s0.9-1.1,0.1-2.9
					c0,0,0.1-2.9,5.6-3s11.8,0.6,15.2,3c3.4,2.3,1.7,4.9,1.7,4.9s2.4-1.3,0.2-4.2c0,0,0.7-0.7,2.8-0.4c2,0.3,2.4,2.7,1.9,3.8
					c0,0,1-0.7,0.7-2.4c0,0,1.3-1.8,4.1,0s2.4,3.1,1,3.9c0,0,0.6,0.4,1.7-0.8c0,0,0.6-0.7,2.1-0.2c1.5,0.5,2.3,2.6,0.7,3.9
					c-1.6,1.4-3,1-3,1s2,0.7,3.2-0.6c0,0,1-0.4,1.9,0c0.9,0.4,2.5,1,2.9,2.4s-1,2.1-1,2.1s0.9,0.3,1.8-0.8c0.9-1.1,2.6-1.7,4.5-1
					c1.9,0.7,1.2,1.6,0.1,1.6c-1.1,0.1-1.6,0.6-1.6,0.6s1.1-0.6,2.2-0.2c1.1,0.3,1.6-0.7,2.2-0.6c0.5,0.1,1.2,0,2.7,1.1
					c1.4,1.1,0.2,1.8,0.2,1.8s1.7-0.2,2.5,0.1c0.8,0.3,4.3-1.2,12.4,4.2c0,0-10.4-5-16.7-1.1c-6.3,3.9-22.2-2.2-22.2-2.2l-62.3-7.8
					l-18.8,1.7L-75,449.9L-59.7,397.7z"/>
				<path class="st2" d="M265.7,447.4c0,0,8.7-5.4,22.9-2c14.3,3.3,1,7,1,7s13.9-2.9,22.3,2.2c8.3,5.1,3.4,8.7,3.4,8.7
					s7-4.4,12.5,1.2c5.5,5.7-1,9.8-1,9.8s9-4.2,15.3,3.4c0,0,6.6,1.3,8.2,7.5c0,0,2.7-7.7,10-8.3c0,0-2.8-8.8,9.3-11.9
					c12.1-3.1,14.4,1.1,14.4,1.1s-5.8-5.8,11.7-12.7s29.3-6.2,32.9-2.9s-0.8,8.1-0.8,8.1s6.7-7.2,20.7-3.6c0,0,0.4-3.6,5.8-7.3
					c5.4-3.8,18.6-6.8,33.6-6s12.3,13.4,12.3,13.4s8.6-28.6,38.1-28.9c29.5-0.3,35,8.1,35,8.1s22-16,39.8-0.9l-20.1,201.7
					c0,0-10.2-1.1-32.2-6.1c-27-6.1-28.6-30-28.6-30s-6,1.1-19.1-2.1c-13.1-3.2-22.5-7.9-22.4-18.5c0,0-5.7,6.6-16,4.4
					c-10.3-2.2-15.8-9.4-17.6-15.3c0,0-6.7,9-12.7,6.9c-6.9-2.4-13-7.6-6.1-16.1c0,0-3.8,3.1-7.9-1.1s-3.9-11.7-3.9-11.7
					s-6,17.1-17.5,4.3l-3-24.9l-7.9-12.1l-128.7-14.5L265.7,447.4z"/>
			</g>
		</g>
	</g>
</g>
<g id="Layer_2">
</g>
</svg>
