<?xml version="1.0" encoding="utf-8"?>
<!-- Generator: Adobe Illustrator 19.1.0, SVG Export Plug-In . SVG Version: 6.00 Build 0)  -->
<svg version="1.1" id="Layer_1" xmlns="http://www.w3.org/2000/svg" xmlns:xlink="http://www.w3.org/1999/xlink" x="0px" y="0px"
	 viewBox="-208 125.4 57.9 59.6" style="enable-background:new -208 125.4 57.9 59.6;" xml:space="preserve">
<style type="text/css">
	.st0{fill:#D6C296;}
	.st1{fill:#F2E6C4;}
	.st2{fill:#968D78;}
	.st3{opacity:0.5;fill:#F2E6C4;enable-background:new    ;}
	.st4{opacity:0.5;fill:#968D78;enable-background:new    ;}
</style>
<g id="Layer_1_1_">
	<g>
		<circle class="st0" cx="-179.1" cy="156.1" r="28.9"/>
		<path class="st1" d="M-179.1,180c-13.2,0-23.9-10.7-23.9-23.9c0-13.2,10.7-24,23.9-24c13.2,0,23.9,10.7,23.9,23.9
			S-165.9,180-179.1,180z"/>
		<polygon class="st0" points="-189.2,173 -180,181.8 -158.7,175.3 -167.7,170.3 -180.8,172.8 		"/>
		<g>
			<polygon class="st2" points="-187.2,152.6 -189.2,127.3 -185.8,125.4 -181.8,126.8 -180.1,154.9 			"/>
			<polygon class="st2" points="-189.2,173 -195.3,148.9 -183.6,144 -174.7,128.2 -154.6,132.5 -163.9,149.4 -167.7,170.3 
				-178.1,176.8 			"/>
			<polygon class="st2" points="-182.9,144.8 -194.1,149.5 -188.4,172.2 -178.3,175.7 -168.6,169.7 -164.9,149.1 -156.1,133.2 
				-174.2,129.3 			"/>
			<polygon class="st3" points="-192.8,150.3 -187.3,171.2 -179.3,174.1 -178.5,154.7 			"/>
			<polygon class="st3" points="-176.1,155 -177.1,173.9 -169.6,168.8 -166.2,149.8 			"/>
			<polygon class="st3" points="-173.8,130.5 -181.1,144.5 -166.4,148.2 -158.3,133.8 			"/>
			<polygon class="st2" points="-190,151 -194.2,130.9 -191.9,127.4 -187.7,129 -183.2,152.3 			"/>
			<polygon class="st2" points="-189.2,150.1 -193.1,131.1 -191.5,128.6 -188.6,129.7 -184.5,151.1 			"/>
			<polygon class="st3" points="-192.3,131.1 -188.3,149.6 -187.1,150 -191.3,129.5 			"/>
			<polygon class="st3" points="-190.9,129.6 -189.4,130.2 -185.5,150.7 -186.5,150.2 			"/>
			<path class="st4" d="M-176.8,154.2l-0.9,20.4l9.3-6l2.3-19.2c0,0-2.4,10.9-5.1,11c-2.7,0.1-1.2,3.6-2.9,3.9
				C-175.8,164.6-176.8,154.2-176.8,154.2z"/>
			<g>
				<g>
					<polygon class="st2" points="-186.3,151.8 -188.1,127.9 -185.7,126.5 -182.8,127.5 -181.2,153.5 					"/>
					<polygon class="st3" points="-187.5,128.5 -185.6,150.5 -184,151.6 -185.8,129.1 					"/>
					<polygon class="st3" points="-185,129.1 -183.4,128.2 -182.5,150.2 -183.4,151 					"/>
				</g>
				<polygon class="st3" points="-187.1,127.9 -185.4,128.6 -183.7,127.7 -185.6,127 				"/>
			</g>
			<polygon class="st4" points="-191.2,129 -186.5,150.8 -186,149.9 -186.8,142.4 -189.2,129.2 			"/>
			<polygon class="st4" points="-185.4,128.9 -183.5,151.8 -181.9,150.2 -183.1,127.7 			"/>
			<polygon class="st1" points="-190.3,153.2 -188.9,159.4 -180.4,162 -180.4,156.3 			"/>
			<polygon class="st1" points="-172.8,131.8 -160.3,134.4 -167.1,146.1 -178.5,143.2 			"/>
		</g>
	</g>
</g>
<g id="Layer_2">
</g>
</svg>
