<?xml version="1.0" encoding="utf-8"?>
<!-- Generator: Adobe Illustrator 19.1.0, SVG Export Plug-In . SVG Version: 6.00 Build 0)  -->
<svg version="1.1" xmlns="http://www.w3.org/2000/svg" xmlns:xlink="http://www.w3.org/1999/xlink" x="0px" y="0px"
	 viewBox="0 0 362.6 92.2" style="enable-background:new 0 0 362.6 92.2;" xml:space="preserve">
<style type="text/css">
	.st0{fill:#F2E6C4;}
	.st1{opacity:0.5;fill:#D6C296;}
	.st2{fill:#00A490;}
	.st3{clip-path:url(#SVGID_2_);}
	.st4{fill:#149680;}
	.st5{fill:#1CB7A1;}
	.st6{opacity:0.5;fill:#00F1D3;}
	.st7{opacity:0.2;}
	.st8{fill:#FFFFFF;}
	.st9{fill:#00F1D3;}
	.st10{clip-path:url(#SVGID_2_);fill:#155B51;}
	.st11{opacity:0.1;clip-path:url(#SVGID_2_);fill:#FFFFFF;}
	.st12{opacity:0.1;fill:#FFFFFF;}
	.st13{fill:#155B51;}
	.st14{opacity:0.3;fill:#FFFFFF;}
	.st15{opacity:0.2;fill:#155B51;}
	.st16{opacity:0.4;fill:#155B51;}
	.st17{opacity:0.1;}
	.st18{clip-path:url(#SVGID_4_);fill:#FFFFFF;}
	.st19{opacity:4.000000e-02;clip-path:url(#SVGID_2_);fill:#FFFFFF;}
	.st20{fill:#D8AB52;}
	.st21{opacity:0.19;fill:#FFFFFF;}
	.st22{fill:#D6C296;}
	.st23{fill:#00F1D3;stroke:#00A490;stroke-width:2;stroke-miterlimit:10;}
	.st24{fill:none;stroke:#00A490;stroke-width:2;stroke-miterlimit:10;}
	.st25{fill:#A4FFF2;}
	.st26{clip-path:url(#SVGID_8_);fill:#FFFFFF;}
	.st27{clip-path:url(#SVGID_10_);}
	.st28{clip-path:url(#SVGID_10_);fill:#00F1D3;}
	.st29{opacity:0.5;fill:#F2E6C4;}
	.st30{fill:#A4FFF2;stroke:#00A490;stroke-width:2;stroke-miterlimit:10;}
	.st31{fill:#968D78;}
	.st32{fill:#827F7A;}
	.st33{opacity:0.5;fill:#AAA393;}
	.st34{opacity:0.5;fill:#EAE9C1;}
	.st35{fill:#F9E8BD;}
	.st36{opacity:0.21;fill:#968D78;}
	.st37{opacity:0.5;fill:#1CB7A1;}
	.st38{opacity:0.5;fill:#FFFFFF;}
	.st39{opacity:0.7;}
	.st40{fill:none;}
	.st41{clip-path:url(#SVGID_18_);fill:#FFFFFF;}
	.st42{clip-path:url(#SVGID_20_);fill:#155B51;}
	.st43{opacity:0.1;clip-path:url(#SVGID_20_);fill:#FFFFFF;}
	.st44{clip-path:url(#SVGID_24_);}
	.st45{clip-path:url(#SVGID_24_);fill:#D6C296;}
	.st46{opacity:5.000000e-02;}
	.st47{opacity:0.5;fill:#968D78;}
	.st48{clip-path:url(#SVGID_30_);}
	.st49{clip-path:url(#SVGID_30_);fill:#00F1D3;}
	.st50{clip-path:url(#SVGID_32_);fill:#FFFFFF;}
	.st51{fill:#A42000;}
	.st52{opacity:0.5;}
	.st53{fill:#5D5D5D;}
	.st54{clip-path:url(#SVGID_38_);}
	.st55{opacity:0.21;}
	.st56{clip-path:url(#SVGID_42_);}
	.st57{clip-path:url(#SVGID_42_);fill:#155B51;}
	.st58{opacity:0.1;clip-path:url(#SVGID_42_);fill:#FFFFFF;}
	.st59{clip-path:url(#SVGID_44_);fill:#FFFFFF;}
	.st60{opacity:4.000000e-02;clip-path:url(#SVGID_42_);fill:#FFFFFF;}
	.st61{font-family:'Verdana';}
	.st62{font-size:15px;}
	.st63{font-family:'Verdana-Bold';}
	.st64{font-size:33.8487px;}
</style>
<g id="Layer_1">
	<g>
		<defs>
			<rect id="SVGID_1_" x="-31.1" y="183" width="375" height="195.3"/>
		</defs>
		<clipPath id="SVGID_2_">
			<use xlink:href="#SVGID_1_"  style="overflow:visible;"/>
		</clipPath>
		<g class="st3">
			<polygon class="st4" points="781.6,135.8 -61.7,287.1 -84.7,158.3 758.6,7.4 			"/>
		</g>
	</g>
	<g>
		<path class="st16" d="M326.5,26H82.8H67.5h-2c-6-6-14.2-9.4-23.2-9.4c-18.5,0-33.5,15-33.5,33.5s15,33.5,33.5,33.5
			c8.6,0,16.4-3.5,22.3-8.5h3h15.2h243.8C340,75,351,64,351,50.5S340,26,326.5,26z"/>
		<g>
			<g>
				<path class="st22" d="M67.5,70C54,70,43,59,43,45.5S54,21,67.5,21h259C340,21,351,32,351,45.5S340,70,326.5,70H67.5z"/>
				<path class="st22" d="M348.9,45.5c0,12.4-10.1,22.5-22.5,22.5h-259C55,68,44.9,57.9,44.9,45.5l0,0C44.9,33.1,55,23,67.4,23h259
					C338.9,23,348.9,33.1,348.9,45.5L348.9,45.5z"/>
				<path class="st0" d="M83.3,66c-11,0-20-9.1-20-20s9-20,20-20h243c11,0,20,9.1,20,20s-9,20-20,20H83.3z"/>
			</g>
			<g>
				<path class="st13" d="M84.6,63c-9.2,0-16.9-7.8-16.9-17s7.7-17,16.9-17h241.7c9.2,0,16.9,7.8,16.9,17s-7.7,17-16.9,17H84.6z"/>
				<path class="st37" d="M275,46c0,9.4-7.9,17-17.7,17H98c-9.8,0-17.7-7.6-17.7-17l0,0c0-9.4,7.9-17,17.7-17h159.3
					C267.1,29,275,36.6,275,46L275,46z"/>
				<path class="st37" d="M268.7,46c0,9.4-7.9,17-17.7,17H91.7C81.9,63,74,55.4,74,46l0,0c0-9.4,7.9-17,17.7-17H251
					C260.8,29,268.7,36.6,268.7,46L268.7,46z"/>
				<path class="st5" d="M262.5,46c0,9.4-7.9,17-17.7,17H85.5c-9.8,0-17.7-7.6-17.7-17l0,0c0-9.4,7.9-17,17.7-17h159.3
					C254.6,29,262.5,36.6,262.5,46L262.5,46z"/>
				<text transform="matrix(1 0 0 1 152.506 51.1332)" class="st8 st61 st62">385/ 500 XP</text>
			</g>
		</g>
		<g>
			<rect x="45" y="21" class="st22" width="37.8" height="49"/>
			<rect x="49" y="25" class="st0" width="29.8" height="41"/>
			<circle class="st22" cx="42.2" cy="45.1" r="33.5"/>
			<circle class="st0" cx="42.2" cy="45.1" r="27.8"/>
			<text transform="matrix(1 0 0 1 28.9111 57.165)" class="st31 st63 st64">4</text>
			<circle class="st38" cx="42.2" cy="36" r="15"/>
		</g>
	</g>
</g>
<g id="Layer_2">
</g>
</svg>
