<?xml version="1.0" encoding="utf-8"?>
<!-- Generator: Adobe Illustrator 19.1.0, SVG Export Plug-In . SVG Version: 6.00 Build 0)  -->
<svg version="1.1" xmlns="http://www.w3.org/2000/svg" xmlns:xlink="http://www.w3.org/1999/xlink" x="0px" y="0px"
	 viewBox="0 0 18 51.8" style="enable-background:new 0 0 18 51.8;" xml:space="preserve">
<style type="text/css">
	.st0{fill:#D8AB52;}
	.st1{opacity:0.19;fill:#FFFFFF;}
	.st2{fill:#155B51;}
	.st3{opacity:0.1;fill:#FFFFFF;}
	.st4{fill:#F2E6C4;}
	.st5{fill:#00A490;}
	.st6{fill:#D6C296;}
	.st7{fill:#00F1D3;}
	.st8{fill:#00F1D3;stroke:#00A490;stroke-width:2;stroke-miterlimit:10;}
	.st9{fill:none;stroke:#00A490;stroke-width:2;stroke-miterlimit:10;}
	.st10{fill:#A4FFF2;}
	.st11{fill:#F9E8BD;}
	.st12{opacity:0.3;fill:#FFFFFF;}
	.st13{fill:#FFFFFF;}
	.st14{opacity:0.4;fill:#155B51;}
	.st15{opacity:0.2;fill:#155B51;}
	.st16{opacity:0.1;}
	.st17{clip-path:url(#SVGID_4_);fill:#FFFFFF;}
	.st18{clip-path:url(#SVGID_6_);}
	.st19{opacity:0.5;fill:#00F1D3;}
	.st20{fill:#149680;}
	.st21{fill:#1CB7A1;}
	.st22{opacity:0.2;}
	.st23{clip-path:url(#SVGID_6_);fill:#00F1D3;}
	.st24{clip-path:url(#SVGID_8_);fill:#FFFFFF;}
	.st25{fill:#968D78;}
	.st26{opacity:0.5;fill:#F2E6C4;}
	.st27{fill:#A42000;}
	.st28{opacity:0.5;fill:#FF4317;}
	.st29{opacity:0.2;fill:#F2E6C4;}
	.st30{fill:#827F7A;}
	.st31{opacity:0.5;fill:#AAA393;}
	.st32{opacity:0.5;fill:#EAE9C1;}
	.st33{display:none;}
</style>
<g id="Layer_1">
	<g>
		<defs>
			<rect id="SVGID_5_" x="-557.7" y="-90.5" width="375" height="192"/>
		</defs>
		<clipPath id="SVGID_2_">
			<use xlink:href="#SVGID_5_"  style="overflow:visible;"/>
		</clipPath>
		<g style="clip-path:url(#SVGID_2_);">
			<g>
				<path class="st21" d="M-292-112.1c0,0,8.7-5.4,22.9-2c14.3,3.3,1,7,1,7s13.9-2.9,22.3,2.2c8.3,5.1,3.4,8.7,3.4,8.7
					s7-4.4,12.5,1.2c5.5,5.7-1,9.8-1,9.8s9-4.2,15.3,3.4c0,0,6.6,1.3,8.2,7.5c0,0,2.7-7.7,10-8.3c0,0-2.8-8.8,9.3-11.9
					c12.1-3.1,14.4,1.1,14.4,1.1s-5.8-5.8,11.7-12.7c17.4-6.9,29.3-6.2,32.9-2.9c3.5,3.2-0.8,8.1-0.8,8.1s6.7-7.2,20.7-3.6
					c0,0,0.4-3.6,5.8-7.3c5.4-3.8,18.6-6.8,33.6-6c15,0.8,12.3,13.4,12.3,13.4s8.6-28.6,38.1-28.9c29.5-0.3,35,8.1,35,8.1
					s22-16,39.8-0.9L35.4,75.8c0,0-10.2-1.1-32.2-6.1c-27-6.1-28.6-30-28.6-30s-6,1.1-19.1-2.1S-66.9,29.6-66.8,19
					c0,0-5.7,6.6-16,4.4s-15.8-9.4-17.6-15.3c0,0-6.7,9-12.7,6.9c-6.9-2.4-13-7.6-6.1-16.1c0,0-3.8,3.1-7.9-1.1
					c-4-4.2-3.9-11.7-3.9-11.7s-6,17.1-17.5,4.3l-3-24.9l-7.9-12.1l-128.7-14.5L-292-112.1z"/>
				<g>
					<path class="st19" d="M30.3,54.4l0-0.4c0,0,2.1-0.9,1.5-3c-0.6-2.1-3.1-3.1-2.6-7.9c0,0,0-0.1,0-0.1c2.3-4.3,9-19.4-7.1-22.1
						c-8.5-1.4-11.4,7.8-10.5,16.4l0,0C11.5,43.9,4.1,39,4.1,39v0c-2.6-3.1-5.7-4.8-8.5-3.8c0,0,2.9,0.9,3.5,2.3
						c0.6,1.3-5.1,3.6-8,0.8c-2.9-2.8,0.6-5.7,6-5.8c5.4-0.1,7.7-8.1,0-12.3s-11,1.2-11,1.2s-5.3-4.5,2-7.6c0,0,4.5-1.9-1.5-6.9
						C-18.3,2.7-28.5-2.2-34.7-2l0,0c0,0-9.2-0.6-16.2,4.4c-7,4.9-18.9-1.9-18.9-1.9v0c-1.3-1.3-2.9-2.6-5-3.7
						C-73-0.9-73.5,6.3-74.9,7c0,0,0-13-8.1-18.8c-6.2-4.5-19.9-7.7-24.5-3.5c-4-0.1-6.6-3.4-6.6-3.4s0,0,0,0
						c-2.4-3-4.8-3.8-4.8-3.8s1.8-0.9,4.9,0.9c0,0-1.2-6.1-7.2-10.4c-5.8-4.1-9.8,0.1-10.1,0.5c0.2-0.3,2.2-2.7-1.4-4.2
						c-3.8-1.6-13.6,0.5-15.8,4.6c0,0-6.3,8.9,2,19.7c8.3,10.8,17-10.9,17-10.9s-4.5-3-9.8-3.3c0,0,12.6-3.6,17.6,8.2l-5.3-3.8
						c0,0-4.3,12.3,2.9,17.4c3,2.1,6.1,1.4,8.4-0.5c0,0,0,0,0,0c3.5-1.7,4.4,0.4,4.5,0.4c-0.9,1.3-2.1,2.7-3.7,4
						c-6.6,5.3-2.6,10.9-0.2,11.4c2.5,0.5,8.9,0.9,14.2-8.3c0,0-1-1.8-0.4-7.9c0,0,4.9,23.8,19.6,24.3c14.7,0.5,16.2-8.1,16.2-8.1
						c1.7-1.7,0.6-5.5,0.6-5.5c5.3,1.2,8.9,0.4,15.7-2.1c6.8-2.5,8.3,0.9,8.3,0.9l0,0c0.6,2,2.5,3.9,5.5,5.8
						c6.3,3.8,12.7,5.1,12.7,5.1s-4,3.5-9.5,0.5c-4.1-2.2-9.9,0.9-6.5,4.3c3.4,3.4,8.1,1.1,8.1,1.1s0.2,4.8-8.5,2.4
						c-6.7-1.8-9.6-5.8-10.6-7.6c1.1,1.4,3.9,1.7,3.9,1.7c6.2,0.1,6.6-6.3,2.3-9.1c-4.3-2.8-14.4,0.8-14.4,0.8s-8.1,3.5-5.1,12.7
						c3,9.2,34.5,15.4,37.6,13c0,0-1.8-7.5,3.6-15.4c0,0-5.8,15.4,3,27.7c8.8,12.4,18.5,3.4,13.3-3.9c0,0,4.5,3.2,4.3,9.5
						s-9.3,5.1-9.3,5.1s0.8,4.1,6.6,5.2c5.7,1.1,12.9-1.6,13-10.6c0-1.1-0.1-2.3-0.3-3.5c0,0,0,0,0,0c0.1-6.7,5-3.9,5-3.9l0,0
						c1.5,2.8,3.2,4.6,6.2,4.4v0c0,0,0,0,0,0c0.5,0,1.1-0.1,1.7-0.4c1.6-0.3,3.8-0.4,4,1c0.3,2.1-2.8,7.1-2.5,8.5
						c0.1,0.2,0.3,0.3,0.6,0.4c-2.1,4.5,0.2,11,11.6,12.4l2.1-20.7C37.8,51.5,34,52.4,30.3,54.4z"/>
				</g>
			</g>
		</g>
	</g>
	<g>
		<g>
			<g>
				<g>
					<path class="st25" d="M9,18c-5,0-9-4-9-9s4-9,9-9s9,4,9,9S14,18,9,18z"/>
					<circle class="st25" cx="9" cy="9" r="8"/>
					<path class="st26" d="M9,14.9c-3.2,0-5.8-2.6-5.8-5.8S5.8,3.2,9,3.2s5.8,2.6,5.8,5.8S12.2,14.9,9,14.9z"/>
					<ellipse class="st4" cx="10.8" cy="7.1" rx="3.2" ry="3.4"/>
				</g>
				<g>
					<path class="st25" d="M9,51.8c-5.9,0-9-23.9-9-26.8c0-5,4-9,9-9s9,4,9,9C18,27.8,14.9,51.8,9,51.8z"/>
					<path class="st25" d="M17,25c0-4.4-3.6-8-8-8s-8,3.6-8,8s3.6,25.7,8,25.7S17,29.3,17,25z"/>
					<path class="st26" d="M9,48.4C6.5,46.1,3.2,30.1,3.2,25c0-3.2,2.6-5.8,5.8-5.8s5.8,2.6,5.8,5.8C14.9,30.1,11.6,46.1,9,48.4z"/>
					<ellipse class="st4" cx="11.2" cy="22.7" rx="2.7" ry="2.9"/>
				</g>
			</g>
		</g>
	</g>
</g>
<g id="Layer_2" class="st33">
</g>
</svg>
