<?xml version="1.0" encoding="utf-8"?>
<!-- Generator: Adobe Illustrator 19.1.0, SVG Export Plug-In . SVG Version: 6.00 Build 0)  -->
<svg version="1.1" id="Layer_1" xmlns="http://www.w3.org/2000/svg" xmlns:xlink="http://www.w3.org/1999/xlink" x="0px" y="0px"
	 viewBox="0 0 475 308" style="enable-background:new 0 0 475 308;" xml:space="preserve">
<style type="text/css">
	.st0{fill:#149680;}
	.st1{fill:#1CB7A1;}
	.st2{opacity:0.5;fill:#00F1D3;}
</style>
<g>
	<path class="st0" d="M165.9,152c0,0-59.3,6.7-72.7,8.4c-13.4,1.7-17.8,0.7-39.6,0.2c0,0,4.1,1.6,18.6,3.5c24,3.2,32.8,3.4,43.6,0.4
		c10.8-3,25.2-1.9,35.1-4.5c9.6-2.5,12.7-4.5,26.7,0.5c0,0,11.2,3.5,23.8,2.6c12.6-0.9,28.2-3.1,33.1-3.3c4.8-0.2,8,0.5,14-0.3
		c5.9-0.8,0,0,0,0l-29.2-3.1l-43.3-1.5l-8.9-3H165.9z"/>
	<path class="st1" d="M217.1,155.2c-2.2-1.6-0.4-4.5-0.4-4.5s1.3-2.2-0.9-3.3c-2.3-1.1-4,1-4,1s2.3-3.2-7.1-11
		c-9.4-7.9-19.6-5.1-23.5-2.8c-3.9,2.3-5.1,5.5-5.1,5.5s-10.8-1.4-33.2,11.1c0,0-0.8,3.2-14.9,1.2c-14-2-11.4-7.9-24-0.5
		c-12.6,7.4-19.4,7.5-37.9,8.3c-2.2,0.1-4.2,0.1-16.6-0.5c0,0,8.4,1.8,12.2,2c16.2,0.7,33,5.3,52,0.6c10.9-2.7,24.4,0.2,40.9-6.9
		c8.6-3.7,19.3,1.3,19.3,1.3l0,0c24.6,7.7,51.9,1.2,61.5,2.6c9.8,1.3,15.2,0,15.2,0C245.9,159.3,219.3,156.8,217.1,155.2z"/>
	<path class="st1" d="M107.5,150.1c0,0,0-3.9,5.8-6.5c0,0,3.6-1.8,7.1,0.3c0,0,0.9-3.6,5.5-5.2c3.6-1.3,9.2-0.9,13.2,1.5
		c5.2,3.1,5.7,6.4,5.7,6.4s1.9-2.5,5-1.5s3.5,2,3.5,2s0.3-0.8,1.3-0.7c0.9,0.1,1.5,0.5,1.5,0.5s0.5-1.4,1.5-1.7
		c1-0.4,1.8-0.8,3.3,0.7c0,0,0.8-2,3.5-1.9c2.7,0.1,5.4,0.2,6,2.2c0,0-0.5-0.3,2.6,0.6s0.4,0.3-0.5,0.6c-0.9,0.3-2.1,0.3-3.2-0.1
		c0,0,0,1.2-4.8,1.6c-4.8,0.4-3.6-0.1-3.6-0.1s0,0.4-1.2,0.5s-2.5,0.6-3.7,0c0,0-1.9,1.4-4.5,0.6c0,0-2,2.5-7.9,1.4
		c0,0-1.5,2.8-8.5,2.5c-7-0.3-8.4,0.3-8.4,0.3s-2-1.3-7.6-2.8c0,0-3.7,2.6-11.9,1.7c0,0-5.5,3.9-11.4,3.3
		C95.9,156.3,93.6,153.5,107.5,150.1z"/>
	<path class="st1" d="M162.6,143.4c0,0,3.9-5.7,6.8-5.8c2.9-0.2,3.9-0.2,6.7,2.5L162.6,143.4z"/>
	<g>
		<path class="st2" d="M120.8,156.2C120.8,156.2,120.8,156.2,120.8,156.2L120.8,156.2z"/>
		<path class="st2" d="M147.5,150.2c-3.8-0.5-4.9,0.9-4.9,0.9s-0.7,0.4-1.6,0.7c0.5-0.3,1-0.7,1.3-1.2c0.6-1,2-3.8-0.4-2
			c-2.4,1.7-4.4,0.5-4.4,0.5c2.2,0.4,5-1.2,5.1-3.6s-5.7-5.6-10.1-6.3s-8.5,1-9.5,3.1c-1,2.1-0.7,4.1,0.3,5.6c1,1.5,2.9,2.5,2.9,2.5
			l3.4,1c0,0-10.3,0.4-10.7,1.6c-0.4,1.2-9.1,0.4-9.1,0.4s5.8-1.4,8.1-2.5s2.1-4.2,0.4-4.9c-1.7-0.7-8.9-0.6-9.9,3.9
			c-0.7,3-1.8,4.2-2.6,4.7l-0.7,0.1c1.8-0.9,2.3-3.9-1.2-3c-2.9,0.7-5.6,3.4-6.4,3.4h0c0,0-0.5,0.7-0.1,0.8c0.4,0.1,1.3,0.3,1.3,0.3
			s-9.5,2.8-13,4.1c0,0,9.1-2.3,17.1-4.4v0l4.9-0.2l-0.4,0.1c0,0-3.2,0.6-1.2,1.5c2.1,0.9,9.7,2.1,12.9-0.1c0.9-0.6,1.3-0.8,1.5-0.9
			c-0.3,0.1-2,0.7-4,0.1c-3.3-1,0.3-1.3,0.3-1.3h0c0,0-0.8,1.1,1.5,0.8c2.4-0.2,2.6-0.7,5.3,0.2c2.7,0.9,7.5,1,8.3,0
			c0.8-1.1,8.2,1,10.2-0.3C144.3,154.5,151.3,150.6,147.5,150.2z"/>
		<path class="st2" d="M147.7,146.3c-2,0.1-1.3,1-0.2,1.3c1.1,0.3,4.1,0.4,3.2-0.5C150.8,147.2,149.7,146.3,147.7,146.3z"/>
		<path class="st2" d="M160.6,145c-4.9,0.6-7.9,3.9-7.9,3.9s-0.1,0.3,1.3,0.2C155.4,148.9,165.5,144.4,160.6,145z"/>
		<path class="st2" d="M172.6,139.2c-4-0.1-6.3,1.8-7.6,4.8c-1.3,3,1.6,3.3,1.6,3.3c2.6,1,5.7-0.6,6.5-1.9
			C174,144.2,176.6,139.3,172.6,139.2z"/>
		<path class="st2" d="M213.6,148.7c-1.1-0.6-3,1.4-3,1.4c-5.2,2.7-9.8,0-9.8,0c7.9,0.5,8.9-3.2,7.7-6.3c-1.2-3.1-6.9-6.2-6.9-6.2
			c1.8,2,1.1,2.9,1.1,2.9c-4.8-6.8-12.9-6.9-18.7-4.7c-6,2.3-5.5,8-5.5,8c-4.1-0.3-2.9,5.6-0.8,4.1c2.1-1.5,4.3-1.5,4.3-1.5
			s-6.2,1.9-1.2,4.6c5,2.7,8.7-2,9.1-3.8c0.4-1.8,2.2-2.5,5.2-2.6c3.1-0.1,6.8,2.3,4.4,3c-2.4,0.7-4.6-1.2-4.6-1.2s-9.2,1.2,3.3,5.3
			c12.6,4.2,13.9,0.7,15.4,0C215.2,151,214.7,149.3,213.6,148.7z"/>
	</g>
</g>
</svg>
