<?xml version="1.0" encoding="utf-8"?>
<!-- Generator: Adobe Illustrator 19.1.0, SVG Export Plug-In . SVG Version: 6.00 Build 0)  -->
<svg version="1.1" xmlns="http://www.w3.org/2000/svg" xmlns:xlink="http://www.w3.org/1999/xlink" x="0px" y="0px"
	 viewBox="0 0 375 195.3" style="enable-background:new 0 0 375 195.3;" xml:space="preserve">
<style type="text/css">
	.st0{fill:#F2E6C4;}
	.st1{opacity:0.5;fill:#D6C296;}
	.st2{fill:#00A490;}
	.st3{clip-path:url(#SVGID_2_);}
	.st4{fill:#149680;}
	.st5{fill:#1CB7A1;}
	.st6{opacity:0.5;fill:#00F1D3;}
	.st7{opacity:0.2;}
	.st8{fill:#FFFFFF;}
	.st9{fill:#00F1D3;}
	.st10{clip-path:url(#SVGID_2_);fill:#155B51;}
	.st11{opacity:0.1;clip-path:url(#SVGID_2_);fill:#FFFFFF;}
	.st12{opacity:0.1;fill:#FFFFFF;}
	.st13{fill:#155B51;}
	.st14{opacity:0.3;fill:#FFFFFF;}
	.st15{opacity:0.2;fill:#155B51;}
	.st16{opacity:0.4;fill:#155B51;}
	.st17{opacity:0.1;}
	.st18{clip-path:url(#SVGID_4_);fill:#FFFFFF;}
	.st19{opacity:4.000000e-02;clip-path:url(#SVGID_2_);fill:#FFFFFF;}
	.st20{fill:#D8AB52;}
	.st21{opacity:0.19;fill:#FFFFFF;}
	.st22{fill:#D6C296;}
	.st23{fill:#00F1D3;stroke:#00A490;stroke-width:2;stroke-miterlimit:10;}
	.st24{fill:none;stroke:#00A490;stroke-width:2;stroke-miterlimit:10;}
	.st25{fill:#A4FFF2;}
	.st26{clip-path:url(#SVGID_8_);fill:#FFFFFF;}
	.st27{clip-path:url(#SVGID_10_);}
	.st28{clip-path:url(#SVGID_10_);fill:#00F1D3;}
	.st29{opacity:0.5;fill:#F2E6C4;}
	.st30{fill:#A4FFF2;stroke:#00A490;stroke-width:2;stroke-miterlimit:10;}
	.st31{fill:#968D78;}
	.st32{fill:#827F7A;}
	.st33{opacity:0.5;fill:#AAA393;}
	.st34{opacity:0.5;fill:#EAE9C1;}
	.st35{fill:#F9E8BD;}
	.st36{opacity:0.21;fill:#968D78;}
	.st37{opacity:0.5;fill:#1CB7A1;}
	.st38{opacity:0.5;fill:#FFFFFF;}
	.st39{opacity:0.7;}
	.st40{fill:none;}
	.st41{clip-path:url(#SVGID_18_);fill:#FFFFFF;}
	.st42{clip-path:url(#SVGID_20_);fill:#155B51;}
	.st43{opacity:0.1;clip-path:url(#SVGID_20_);fill:#FFFFFF;}
	.st44{clip-path:url(#SVGID_24_);}
	.st45{clip-path:url(#SVGID_24_);fill:#D6C296;}
	.st46{opacity:5.000000e-02;}
	.st47{opacity:0.5;fill:#968D78;}
	.st48{clip-path:url(#SVGID_30_);}
	.st49{clip-path:url(#SVGID_30_);fill:#00F1D3;}
	.st50{clip-path:url(#SVGID_32_);fill:#FFFFFF;}
	.st51{fill:#A42000;}
	.st52{opacity:0.5;}
	.st53{fill:#5D5D5D;}
	.st54{clip-path:url(#SVGID_38_);}
	.st55{opacity:0.21;}
	.st56{clip-path:url(#SVGID_42_);}
	.st57{clip-path:url(#SVGID_42_);fill:#155B51;}
	.st58{opacity:0.1;clip-path:url(#SVGID_42_);fill:#FFFFFF;}
	.st59{clip-path:url(#SVGID_44_);fill:#FFFFFF;}
	.st60{opacity:4.000000e-02;clip-path:url(#SVGID_42_);fill:#FFFFFF;}
</style>
<g id="Layer_1">
	<g>
		<defs>
			<rect id="SVGID_1_" x="-808.3" y="56.5" width="375" height="195.3"/>
		</defs>
		<clipPath id="SVGID_2_">
			<use xlink:href="#SVGID_1_"  style="overflow:visible;"/>
		</clipPath>
		<g class="st3">
			<polygon class="st4" points="4.4,9.3 -838.9,160.6 -861.9,31.8 -18.6,-119.1 			"/>
			<path class="st5" d="M-339.6,35.6c0,0,6.9-7.5,21.5-8.2c14.6-0.7,2.9,6.5,2.9,6.5s12.6-6.6,22-3.9c9.4,2.7,5.7,7.5,5.7,7.5
				s5.5-6.1,12.4-2.2s1.7,9.7,1.7,9.7s7.5-6.5,15.7-0.9c0,0,6.7-0.6,10,5c0,0,0.4-8.1,7.4-10.7c0,0-5.1-7.7,5.7-14
				s14.2-2.8,14.2-2.8s-7.1-4,7.8-15.4c14.9-11.4,26.5-13.9,30.8-11.8c4.3,2.1,1.4,8,1.4,8s4.5-8.7,19-9.1c0,0-0.6-3.5,3.5-8.6
				s16.1-11.6,30.7-14.9s15.5,9.6,15.5,9.6S-111.3-50.7-83-59s35.9-1.8,35.9-1.8s16.8-21.4,38-11.7l35.7,199.6
				c0,0-10.1,1.7-32.6,2.9c-27.6,1.5-35.7-21.1-35.7-21.1s-5.4,2.7-18.9,3.1s-23.8-1.5-26.6-11.7c0,0-3.7,7.9-14.2,8.6
				c-10.5,0.7-17.8-4.7-21.2-10c0,0-3.9,10.5-10.3,10.1c-7.3-0.5-14.5-3.7-10.2-13.9c0,0-2.8,4.1-7.9,1.1c-5-3-7-10.2-7-10.2
				s-1.1,18.1-15.7,8.9l-9.7-23.1l-11-9.5L-322,83.5L-339.6,35.6z"/>
			<path class="st4" d="M-50.2-5.4c0,0,8.1-4.1,10.3,3.6c0.9,3.1-3.1,5.6-5.9,6c-2.8,0.4-5.8-2.6-5.8-2.6s-3.1-0.3-6.2,1.8
				c-3.1,2.1-1.7,5.1-1,6.8c0,0-2.3-2.2-3.4-1.7S-71,10-72.5,19s15.2-2.7,15.2-2.7s0.2,2.5-3.8,4.5c0,0,2.9,4.6,11.1,0.4
				c0,0,1-0.7,1.4-2.2c0,0,0.1,2-1.2,2.9c0,0,7.3,11.1,17.1,6.2c0,0,2.8-1.6,5.1-4.1c0,0,0.1,2.6,4.5,5.2s8.3,4.8,22.2-1.2
				c0,0-4.3,5-9,6.3c0,0,1.9,3.7,5.7,2.6c3.8-1,3.3-3.6,3.3-3.6s1.4,1.4,0.4,3.9c0,0,0.4,9.1,12.3,7.6L-0.3-23.9
				c0,0-2.7,6.6-5.2,8.5c0,0,1.5-6.6,0.5-9.3c0,0-1.6-9-7.5-8.7c-3.8,0.2-13.1-0.9-14.1,9.8c-0.6,6.4,7.5,12.5,7.5,12.5
				s-6.9-2.3-9.2-6.3c0,0-2.4-3.8-11.4-0.2c-5.7,2.3-5.1,9.1-5.1,9.1S-48-9.2-50.2-5.4z"/>
			<g>
				<path class="st6" d="M15.9,107.8l-0.1-0.4c0,0,1.7-1.4,0.6-3.3c-1.1-1.9-3.9-2.1-4.6-6.9c0,0,0-0.1,0-0.1
					c1-4.8,3.4-21.1-12.9-19.4c-8.5,0.9-8.8,10.6-5.7,18.6l0,0c1.7,6.6-6.7,3.9-6.7,3.9l0,0c-3.3-2.2-6.8-3.1-9.2-1.4
					c0,0,3.1,0.1,4,1.2c0.9,1.1-3.9,4.9-7.5,2.9c-3.6-1.9-1-5.6,4.2-7.2c5.2-1.6,5.2-9.8-3.4-11.8S-35.6,88-35.6,88
					s-6.3-2.9-0.1-7.9c0,0,3.7-3.1-3.5-6.2c-5.9-2.6-17-4.5-23-2.6v0c0,0-8.9,2.1-14.3,8.8c-5.4,6.7-18.6,3.5-18.6,3.5h0
					c-1.6-1-3.5-1.9-5.9-2.4c2.3,1.8,3.9,8.8,2.7,9.8c0,0-3.6-12.6-12.9-15.9c-7.2-2.6-21.4-2-24.7,3.3c-3.9,1-7.5-1.5-7.5-1.5
					s0,0,0,0c-3-2.2-5.5-2.3-5.5-2.3s1.5-1.3,5.1-0.5c0,0-2.8-5.5-9.7-8.1c-6.7-2.4-9.3,2.8-9.5,3.3c0.2-0.3,1.4-3.2-2.5-3.6
					c-4.1-0.5-13,4.2-13.9,8.8c0,0-3.6,10.3,7.3,18.4c10.9,8.1,13.4-15.1,13.4-15.1s-5.1-1.7-10.4-0.5c0,0,11.1-6.9,19.2,3.1
					l-6.1-2.2c0,0-0.8,13,7.6,15.9c3.5,1.2,6.2-0.3,8-2.8c0,0,0,0,0,0c2.9-2.6,4.4-0.9,4.4-0.8c-0.5,1.5-1.3,3.1-2.5,4.9
					c-4.9,6.9,0.4,11.2,2.9,11c2.5-0.2,8.8-1.6,11.4-11.8c0,0-1.5-1.4-2.6-7.5c0,0,11.2,21.6,25.5,18.1
					c14.3-3.5,13.4-12.2,13.4-12.2c1.2-2.1-1-5.5-1-5.5c5.4-0.3,8.7-2,14.6-6.3c5.9-4.3,8.2-1.4,8.2-1.4l0,0
					c1.1,1.7,3.5,3.1,6.9,4.1c7.1,2,13.6,1.4,13.6,1.4s-2.9,4.4-9,3.1c-4.5-1-9.3,3.5-5.1,5.9c4.2,2.4,8.1-1.2,8.1-1.2
					s1.5,4.6-7.5,4.6c-6.9,0.1-10.8-3-12.3-4.4c1.5,1.1,4.2,0.6,4.2,0.6c6-1.6,4.6-7.8-0.2-9.4c-4.9-1.5-13.7,4.7-13.7,4.7
					s-6.8,5.6-1.4,13.6c5.4,8.1,37.4,5.4,39.8,2.2c0,0-3.8-6.7-0.7-15.8c0,0-1.4,16.4,10.4,25.9c11.9,9.5,18.7-1.7,11.7-7.4
					c0,0,5.2,1.8,6.8,8c1.6,6.2-7.5,7.5-7.5,7.5s1.9,3.7,7.8,3.2c5.8-0.5,11.9-5.1,9.6-13.7c-0.3-1.1-0.7-2.2-1.2-3.2l0,0
					C-7.5,102.7-2,104-2,104l0,0c2.2,2.2,4.3,3.5,7.1,2.6l0,0c0,0,0,0,0,0c0.5-0.2,1-0.4,1.5-0.8c1.5-0.7,3.6-1.4,4.2-0.1
					c0.9,2-0.8,7.6,0,8.9c0.1,0.2,0.4,0.3,0.7,0.2c-0.8,5,3.2,10.5,14.5,8.8L22.4,103C22.4,103,18.9,104.9,15.9,107.8z"/>
			</g>
		</g>
	</g>
	<g>
		<defs>
			<rect id="SVGID_41_" x="0" y="0" width="375" height="195.3"/>
		</defs>
		<clipPath id="SVGID_4_">
			<use xlink:href="#SVGID_41_"  style="overflow:visible;"/>
		</clipPath>
		<g style="clip-path:url(#SVGID_4_);">
			<polygon class="st4" points="812.6,-47.2 -30.6,104.1 -53.7,-24.7 789.7,-175.6 			"/>
			<path class="st5" d="M173.5,154.8l2,11.3c0,0-12.4-2-17.2-10.8c0,0,1.3,12.2-15.3,16.6s-18.3-3.8-18.3-3.8s-3.6,13.1-18.9,17.1
				c-18.2,4.6-34,1.1-37.5-9.3c0,0-2.1,20-25.3,27.5c0,0,1.5,0.2,0.3,3.4C41.2,212.1,23,223,10,222c-10.3-0.8-9.5-4.8-9.5-4.8
				s-0.6,3-11.3,4.6L-46.5,22.3c0,0,0.4-8.7,13.2-13.4S-8,11.1-8,11.1s2.5-17.4,20.5-22.1s29.6,5.4,32.6,7.2c0,0,1.1-12.8,13-15.5
				c0,0,10-2.2,15.2,5.1c0,0,0.4-3,4.1-3.9c3.7-0.9,4.6,4,3.1,6.2c0,0-1.8,2-4.2,2.2c0,0,2.5,4.4-3.6,6.9c0,0,2.8,7.5-15.2,12.6
				c0,0,4.5,6.2-3.1,11s-12.2,6.3-15.8,5.2c0,0,9.6,0.7,17,11c0,0,2.6-8.1,9.8-9.4s14.1,1.3,17.1,7c0,0,6.2-21.1,30.3-20.3
				c0,0-7.5-9.3,0.7-19.5s17.8-3.2,17.8-3.2s-1.4-4.3,1.9-7.4s9.2-3.3,14.4,1.1c0,0-0.1-11.4,8.6-15.3s24.7-6.8,32.2,5.4
				c0,0,3.3-23.3,30.6-28.2c0,0,18.5-4.3,39,9.5c0,0,0.8-17.6,20.6-23.1c19.8-5.5,24.9,13.5,24.9,13.5s6-5.9,12.8-1.8
				s6.3,11.5,6.3,11.5s15.3-19.2,33.7-3.1c18.4,16.1,4.7,26.3,4.7,26.3s14.5-8.4,20.7-3.2c6.2,5.2,8.7,14.4,2.4,16.5
				s25.4-21,49.8-11.8c0,0-0.7-14.3,34.8-14c15.7,0.2,7,9.4,7,9.4L490.5,27l-289.8,72L173.5,154.8z"/>
			<path class="st5" d="M630,35.7l4.1,2.8l-7.2-40l-41.2,7.4L392.5,40.5L158,82.4l14.3,82.9c0,0,18.9,5.8,31.6-7.6
				c11.5-12.2,5.1-17.5,5.1-17.5s18.7,10.6,32.5-5.8c0,0,2.9,1.3,5.1-0.9c0,0,4.3,4.1,10.1,0.5c5.7-3.7,3.5-6.9,3.5-6.9
				s5.4,3.2,11-2c0,0,4.5,3.3,8.4,1.2s5.3-3.6,7.3-7.1c0,0,6.3,1.6,11.2-3.3c0,0,11.7,3.1,18.5-7.3c0,0,13.5,6.3,24.6-3
				s7.5-21.7,7.5-21.7s7.5,1.3,12.1-4.3c0,0,5.6,1.4,8.3-3.7c0,0,8.6,4.7,16.7-5.2c0,0,6.3,2.5,10.3-1.9c4.1-4.4,1.7-8.1,0-9.7
				c0,0,21.3,1.7,29.6-7.1c0,0,3.7,11.7,22.6,5.3c14.9-5.1,12.2-16.9,12.2-16.9c4.6,4.6,14.3,2.2,18,0.4c3.7-1.7,3.5-5.7,3.5-5.7
				c0.8,1.7,2.2,4.4,9.1,3c6.9-1.5,6-7,6-7c2.4,3.2,6.4,2.1,9.4,1.9c3-0.2,4.3-4.2,4.3-4.2s1.2,2.6,15.3,2.1s17.2-6.1,17.2-6.1
				s2,2,5.5,1.9c2.5,0,4-1.8,4-1.8s0.3,3.8,6.9,2.8c7.2-1.1,7.8-5.1,7.8-5.1s2.1,4,16.5,3.9s16.3-9,16.3-9c0.5,1,3.4,5.2,11.7,4.2
				c8.4-1,9.2-6.5,9.2-6.5c3.2,1.7,1.3,8,1.3,8c0,3.9,3.9,4,3.9,4c-3.7-0.6-6.4,2.3-6.4,2.3c-4.4,5.3,1.4,8.4,1.4,8.4
				S625.4,38.8,630,35.7z"/>
			<path class="st5" d="M330.9,70.3c0,0-11.3,1.7-18.5,14.3c0,0,0.9-10.5,15.3-15.8L330.9,70.3z"/>
			<path class="st4" d="M165.6,124.5c0,0,2.3,11.2,20.2,4.9c17.9-6.3,14.1-22.4,14.1-22.4s9,12.2-0.6,25.3c0,0,8.8-2.9,6.3-24
				c0,0-2-9.6,7.2-13.9c9.2-4.2,14.1-2.2,17,3.1c0,0,1.6-5.6-11.5-10.4c0,0-2.8-0.4-2.4-3.2c0.5-2.8,9.1-7.9,15.8-4.6
				c6.6,3.3,9.2,6.1,5.2,9.2c0,0,1.2,1.4,4.2-1.7c0,0,3.8-5.8,8.4-5.3c0,0,4.8,4.1,0.6,8.8c0,0,6.5-2.4,1.8-9.2c0,0-1.8-2.4-4.3-2.7
				c0,0,5.2-4.2,13.3-4.2s9.1,5.9,9.1,5.9s1.8-5.3-9.4-8.2c0,0-0.1-4.3,7.3-4.9c7.4-0.6,7.7,6,7.7,6s1.8-2.8-1.6-6
				c0,0-0.1-1.8,3.9-2.4c4-0.6,3.6,4.1,3.6,4.1s1.2-3-0.6-4.5c0,0-0.9-3.7,3.8-4.5L158.1,82.4L165.6,124.5z"/>
			<path class="st4" d="M31.1,121.2c0,0-10,14.1-20.4,17.6c-30.5,10.1-36.3,0.7-36.3,0.7l-12.3-68.7c0,0,2.2-18.2,25.1-20.7
				C3.5,48.4,7.8,60.8,7.8,60.8s4.3-3.8-7.2-11.7c0,0,6.4-13.8,22.7-10.7S39.5,64.1,25,69.6c0,0,9.2,0.9,17-13.1
				c0,0,2.4-8.1,10.7-9.1c8.3-1,16.6,3.6,19.6,12.2c0,0,1.2-4.4-3.9-11.2c0,0,8.4-6.2,12,2.2c0,0,2.8,3.7,3.7,12.7
				c0,0,1.6-6.6-1.6-14.4c0,0,6.3-16.9,23.7-20s25.9,9.4,25.9,9.4s0.3-3.6-9.2-11.6c0,0,2.6-7.6,14.2-11.8s11.6,7.9,11.6,7.9
				l36.7,4.6l-20,97.2c0,0-2.6,7.3-11.6,8.3c-9,1-10.4-1.5-11.9-4.1c0,0-1.3,4.7-12.7,8.6c0,0,9-6.4,7.2-11.1
				c-1.8-4.8-16.1-7.6-29.6-1.6s0.3,11.1,0.3,11.1s-14.6-0.3-13.6-9.5c1-9.2,16.5-13.3,16.5-13.3s-22,1.3-23.5,19.7
				c0,0-5.1-5.1,2.7-15.5c0,0,2.5-2.1,0.4-4.5c-2.1-2.4-28.9-6.1-34.9,4.9c0,0-2.8,4.4,2.6,11.6c0,0-12.4-8.4-1.9-20
				c0,0,1.4-5.8-7.4-9.1c-8.8-3.3-17.7,5.1-17.7,5.1s6.8-12,20.6-9.3s17.3,5.9,18.6,2.3c1.3-3.6,15.3-3.7,23.7-0.1
				c0,0,23.2,1.4,24.1-12.5c0.9-14-6.5-16.3-14.9-14s-12.9,9.1-12.9,9.1S88.6,75,97,70.7c0,0,5-2,3.9-4.1
				c-1.1-2.1-15.4-2.8-20.7,6.1c0,0,3-0.3,5.2,1.9c2.2,2.2,2.1,4.2,2.1,4.2s-3.7-4.8-9.8-4.8c-6.1,0-13.3,4.2-13.3,4.2
				s0.6-1.8,5.6-3.7c0,0,0.7-1.5-1-3.9c-1.7-2.4-8-0.7-11.3,2.7c-3.3,3.3-1.4,5.8-1.4,5.8s1.2-1.2,2.9-0.3c0,0-5.1,1.7-6.8,7.3
				c0,0-14.3-3.3-28,4C10.7,97.6,14.1,114,32.9,110c0,0-0.6,3.5-6.6,4.9c-6,1.4,2.6,2.3,3.9,3S31.1,121.2,31.1,121.2z"/>
			<path class="st4" d="M142,20.1c0,0-8.3-12.6,6.6-23.4s25.4-6,29.3,2c0,0,2.5,0.5-1.1-6.1c0,0,3.4-5.2,10.9-5.1
				c0,0,5.6,5.8-2.6,15c0,0,9.7-4.2,8.9-19.3c0,0,0.3-3,3.3-4c3-1,17.2-4.7,22,4.3c4.8,9-5.1,18.7-10.2,19.4c0,0-5.7,1.3-8.7-1.5
				c0,0,3.9,1.9,2.8,5.6c-1.1,3.7-6.3,3.5-8.4,2.8c0,0,0.8,1.9,3.3,2.5c0,0,3.8,0.8,2.3,4.4c0,0,6.6-6.7,13.4-4.2
				c6.9,2.5,6.5,9.4,6.5,9.4s1.8-1,0.3-6c0,0-1.3-1.7,0-3.2c1.3-1.4,4.8-3.2,8.1-2.3c3.3,0.9,2.9,4.7,2.9,4.7s1.2-0.2,0.9-3.1
				c0,0-0.6-2.1,4.2-2.7c4.8-0.6,2.6,4.4,2.6,4.4s-2.5,4.3-8.6,5.1c0,0,3.1-0.6,4.5,1.2c1.4,1.9-5,6-7.4,4.8s-1.7-2.5-1.7-2.5
				s-1.4,1.1,0.5,2.8s0.1,0.4,0.1,0.4s2,0.6,1.1,2.2c-0.8,1.6-6.8,6.8-11.2,4.8c-4.5-2-3.1-5.5-3.1-5.5s-1.6,1.4-1,4.5
				c0,0,0.6,3.8-1.9,5.4s-7.4,3.7-11.1,0.2c0,0,1.3,2.4,3.7,3.5c2.4,1,3.1,9.3-3.2,10.7c-6.4,1.5-10.9,1.5-12.5-1.2
				c0,0,3.1,6.5-2,7.9c0,0,7.6-5.4,18.3-0.5c0,0,5.5,2.1,9.2,12.6c0,0,1-4.2-3-10.4c0,0,1.7-4.6,8.2-4.3c6.5,0.3,8.4,4.5,8.4,4.5
				s0.6-1.3-0.7-2.8c0,0-0.7-2.9,4.5-4.4c5.2-1.5,11.5-2.6,15.4-1.3s3,4.2,3,4.2s1.9-1.9-1-4.1c0,0,0.5-0.9,2.5-1.2
				c2-0.3,3,2,2.8,3.1c0,0,0.8-0.9,0-2.5c0,0,0.8-2.1,3.9-1.1c3.1,1,3.1,2.3,2,3.5c0,0,0.7,0.2,1.4-1.2c0,0,0.4-0.9,2-0.7
				c1.6,0.1,2.9,1.9,1.8,3.6c-1.1,1.7-2.6,1.8-2.6,1.8s2.1,0.2,2.9-1.4c0,0,0.9-0.6,1.8-0.5c0.9,0.1,2.7,0.3,3.5,1.5
				c0.8,1.2-0.4,2.3-0.4,2.3s0.9,0.1,1.6-1.2c0.6-1.3,2-2.4,4.1-2.2c2,0.2,1.5,1.2,0.5,1.6c-1,0.3-1.4,1.1-1.4,1.1s0.9-0.8,2-0.8
				s1.4-1.1,1.9-1.1c0.5-0.1,1.2-0.3,2.9,0.3c1.7,0.7,0.7,1.7,0.7,1.7s1.5-0.6,2.4-0.5c0.9,0.1,3.8-2.4,13.1,0.7
				c0,0-11.4-2-16.4,3.5s-22,3.9-22,3.9L197,75.1l-17.7,6.8l-37.8-7.4L142,20.1z"/>
			<path class="st5" d="M132.8,102.1c0,0-14.5,1.8-20,3.6c-5.5,1.8-1.9,4.5,6.3,3.9c8.3-0.7,18.5-0.1,23.6-3.4c0,0-2.8,3.1-0.2,4.2
				c2.6,1.1,22,1.4,31.8-3.3s-2.9-7.9-2.9-7.9s8.2,1.6,12-1.3c3.8-2.9-1.2-6.4-1.2-6.4s7.1,1,10.9-0.6c3.7-1.6,6-4.1,5-9.1
				c-1.1-5-8.6-3-8.6-3s2.5-1.3,1.6-3.5c-0.9-2.3-7.4-5.5-16.5-2.8c-9,2.7-2.3,6.3-2.3,6.3s-1.7-2.6,0.3-3.7c3.5-2,11-2.3,13.1-1.7
				c3.6,1,7,4.5-1.8,5.7c0,0-13.6,0.9-16.9,2.9s-2.9,3.9-2.9,3.9s-1.3-1.4,1.3-3.9c0,0-1.1-2-3.1-3c-2-1-8.3-0.2-11.1,1.6
				c-2.8,1.9-1.5,5-1.5,5s-0.4,0.1-1.3-1.1c0,0-11.7,2.4-11.6,7.9c0,0,0.9,1.3,4.6,0.4c0,0-2.3,1.5-5.8,1c-3.5-0.4-6,1.9-5.9,3.6
				s2.3,3.8,6.2,3.6c0,0-2.9,0.7-3.8,0.3C131.2,100.7,130.2,102.1,132.8,102.1z"/>
			<path class="st4" d="M145.7,105.2c0,0,3.6-5.3,10.5-4.9c6.9,0.4,11.7-0.2,11.7-0.2s-10.5,0-12.4-1.4c-1.9-1.4-3-3.4-0.4-5.3
				c0,0,3-2.2,5.7,1.2c0,0,0-1.4-1-2.1c0,0-0.5-1.1,1.4-2.3s6.2-2.8,9.5-0.7c3.3,2.1,2.4,3.8,2.4,3.8s0.9,0-0.3-2.9
				c0,0,1.5-3.2,9.2-3.4c0,0-5.2-1.3-9.4,2.5c0,0-6-5.5-12.6,0.4c0,0-1.4,1.1-1.4,2.3c0,0-1.8-0.8-4.6,0.3c-2.8,1.1-2.2,5.7-0.3,6.5
				C153.7,99,147.4,100.1,145.7,105.2z"/>
			<g>
				<path class="st6" d="M367.2,64.8c0,0,1.4,5.4-0.6,7.3c0,0,1.1-5.9-1.6-9.6c-2.7-3.7-7-5.6-12.6-5.4c-2.6,0.1-9.8,2.6-9.1,6
					c0,0,7.1-6.4,13.3-4c5.6,2.2-2,8.7-7.3,8.8c-3,0-4-0.3-4.3-0.6c0.1-0.2,0.1-0.3-0.1-0.5c-1.4-1.2-5.6-1.8-6.3-3.6
					c-0.7-1.7-2.6,0.2-2.6,0.2c-4.4,2.8-6.9-1.9-6.3-3.9c0.5-2,2.4-2.5,2.4-2.5c-2.7,1.9,0,7.8,3.5,4.3c3.5-3.5,3.4-6.2,3.7-8.5
					s-2.8-2.9-4.3-2.8s-5.3,4.1-8.1,5.4c-2.7,1.3-2.7,3.7-2.7,3.7s-2.6-1.4,1.7-4.4c4.3-3,6.5-4.3,6.5-4.3c0.2-3.7-4.7-7.3-8.6-2.9
					c-3.9,4.3-1.5,4.6-1.5,4.6c2.2-1.8,3,0.3,3,0.3c-6.8,4.1-7.2,8.2-6.3,11.2c0.9,3,7.1-1.3,6.6,1.2c-0.5,2.2-5.8,5.9-7,6.8
					c0,0-0.1,0-0.1,0l-8.1,6.1c0,0-0.1,0.1-0.2,0.3c0.1-0.1,0.1-0.2,0.2-0.3c4.7-7.3,11.6-12.3,11.6-12.3
					c-13.3,4.6-18.8,17.2-18.8,17.2c-0.5-4.9,6-11.7,6-11.7c-5.9,2.9-11.4,12.6-10.9,20.5c0.6,7.9,7.4,12.5,5.2,14.3
					c-2.2,1.8-6.4,1.6-7.6,1c-1.2-0.6-0.6-5.6-0.6-5.6l-2.7,3.6c3.2-6.6-1.9-10.5-1.9-10.5c3.2,5.2,0.1,13-12.9,10.8
					c-13-2.3-9.4-10.4-9.4-10.4c-6.4,3.9-2.3,8.8-2.3,8.8c1,1.1-2.1,2-2.1,2c-4.2-0.7-7.6,2-6.1,0.3c1.5-1.7,4.5-1.4,4.5-1.4
					s-5.5-2.2-8,2.1c-2.5,4.3,0.5,7.1,2,8.4c1.5,1.4,4.7,1.1,4.7,1.1c-1,1.1-1.2,4.2,2.8,3.9c4-0.3,4-1.3,4-1.3s1,4.5,6.7,4
					c5.6-0.4,7.4-5.8,7.4-5.8c-10.9-1-17.8-5.4-17.8-5.4c17.3,6.4,29.3,0.8,29.3,0.8c-1-3.6,0.3-5,0.3-5c-0.1,3.9,4.6,3.9,4.6,3.9
					c11.3-0.6,10.8-7,10.8-7c-9.5-8.7-6.5-14.6-6.5-14.6s-1.2,8.4,12.7,13c13.9,4.5,22-1.5,25.9-12.4c3.9-10.9-3.9-15.3-3.9-15.3
					c-4.6-3.6-9.4-4.3-13-4.2c4.7-1.9,7-2.8,8.3-2.4c1.4,0.5,3.7,0.7,3.7,0.7h0c0.4,1,0.5,0.6,0.8,0.7c0,0,5.7,0.7,10.5,9.4
					c0,0,3,3.3,8.3,0.7c5.3-2.6,5.2-7.2,5.2-7.2s2.1,1.8,0.8,4.6c0,0,2.6,2,5.3-2.1c2.7-4,1.8-5.3,1.8-5.3s1.1,0.7,1.2,4.7
					c0,0,1.2,1.6,2.3-2.2C372.7,71.8,371.7,66.9,367.2,64.8z M308.4,80.7C308.4,80.7,308.4,80.7,308.4,80.7L308.4,80.7z M310.3,77.8
					c0,0.1-0.1,0.2-0.2,0.2C310.2,78,310.2,77.9,310.3,77.8z M310.1,78.1c-0.1,0.1-0.1,0.2-0.2,0.3C310,78.3,310,78.2,310.1,78.1z
					 M309.8,78.6c-0.1,0.1-0.2,0.3-0.3,0.5C309.6,78.9,309.7,78.8,309.8,78.6z M309.2,79.6C309.1,79.6,309.1,79.6,309.2,79.6
					C309.1,79.6,309.1,79.6,309.2,79.6z M308.9,80c-0.2,0.3-0.3,0.5-0.4,0.6C308.5,80.6,308.7,80.4,308.9,80z"/>
				<path class="st6" d="M0.9,186.3c6.5-0.4,9.3-5,9.8-7.3c0,0,1.7,3.5-2,5.9c0,0,5,3.3,9.9-4.1c0,0,1.7-1.7,1.8-5
					c0,0,2.3,1.4,0.5,5.2c0,0,6.9-2.1,6.9-7.5s-4.7-1.9-4.7-1.9s-0.1-1.9,2.7-2.3c0,0,0.1-5.6-7-4.8c-7.1,0.9-8.1,1.2-10.8,3
					c0,0,6.9,0.1,6.2,3.5c0,0-4.4-2.5-10.9-0.2c-6.5,2.3-0.6,7.5-0.6,7.5s-3-0.1-3.8-2.6c0,0-4,0.2-5.6,3.3
					C-8.4,182.2-5.5,186.7,0.9,186.3z"/>
				<path class="st6" d="M35.3,166.1c-1.3-3.2-4.8-2.4-4.8-2.4s-3.5,2.1-1.3,6.7C31.3,174.9,36.6,169.3,35.3,166.1z"/>
				<path class="st6" d="M38.4,165.4c2.1,0.7,1.9-2.7,0.5-3.2c-1.4-0.5-2.2,0.8-2.2,0.8S36.4,164.7,38.4,165.4z"/>
				<path class="st6" d="M239.3,124.6c-4.5,2-9.3-0.1-15.3-0.1c-6,0-8.6,2.5-8.6,2.5c1.2-2.2,7.1-4.3,17.3-3.5
					c8.7,0.7,10.5-3.8,10.8-5.2c0.6,0,1.2,0,1.9,0c8.7,0.2,6.8-7.1,4-7c-2.8,0.1-3.4-1.8-3.4-1.8s3,0.8,4.2-1.2
					c1.2-2.1-0.1-5.5-4.1-5.8c-4-0.3-4.3,2.8-4.3,2.8c1.6,2.1,0.7,3.8,0.4,4.4c-1-2.8-2.9-5.6-6.1-6.9c-7.9-3.3-25.7,0-25.1,15.2
					c0.6,15.2-12.1,19.3-12.1,19.3s0,0,0,0c-1-0.4-2.2-0.6-3.8-0.5c-5.5,0.6-2.9,7-2.9,7s-3.1-1.3-2.3-4.6c0,0-3.5,0-5.6,2.7
					c0,0-3.8,3.7,0.2,7.7c0,0-4.9-1.1-3.2-7.7c0,0-4.9-1.8-13.1,0.9c-4.1,1.3-6.8,2.7-6.8,2.7s1.9-2.3-3-4.4c-3-1.3-6.7-0.8-9.5,0.4
					c-1.4-0.9-3-1.6-4.6-1.7c-4.9-0.4-9.1,2.7-6.9,7.7c-0.4,0-0.9,0-1.3,0c-6.4,0.3-8.3,4.4-8.3,4.4s-0.7-3.6,4-5.4
					c0,0-4.1-7.3-13.2-4.7c-9.1,2.6-8.1,7.5-8.1,7.5s-1.9-1.1-0.1-4.2c0,0-6.4-2.2-13.6,2.3c0,0,5.8,0,8.5,9c0,0-4.5-7.8-12.7-8.6
					c4.6-1.6,12.3-5.1,6-8.6c-8.6-4.8-15,0-15,0c1,2.6-0.1,3.5-0.1,3.5s-0.2-6.6-13-7.7c-12.8-1.1-16,7.8-16,7.8
					c12-3.3,15.4,1.5,15.4,1.5c-7.5-2.9-22.9,0.7-23.4,7.4c-0.3,3.8,1.5,5.7,3.2,6.6c-4,2.5-2.9,4.3-2.9,4.3
					c3.1,0.1,5.8,2.8,5.8,2.8c-2.6-0.8-8.6-1.1-14.5,3.8c-5.9,4.8-2.9,8.2-2.9,8.2c9.3,0.7,7.8,6.7,7.8,6.7s-2.1-5.6-10.1-3.6
					c-8,2-12.3,10.2-12.3,10.2c-2.7,6.3-6.2,7.1-6.2,7.1s8.9-11.9-8.2-8.3C-10.9,193.4-7.4,200-7.4,200c-2-0.5-2.9-3.9-2.9-3.9
					c-2.1,0.2-4.8,1.6-4.8,1.6l3.7,20.5c7.1-1,6.7-2,9.4-4.1c2.8-2.1,4.5,0,4.5,0c2.7,7.2,18,2.6,18,2.6s4.5-1.6,9.8-4.3
					c5.2-2.7,8.8-7.4,8.5-8.4c-0.3-1.1-4-3-4-3c4.4,1.3,7.7-0.2,8.9-1.8c1.1-1.5,0-3.1,0-3.1s-0.9-1.5-4.6-2.4
					c-2.8-0.7-5.7,0.6-5.7,0.6c1.4,0.9,1.4,3,1.4,3s-0.2-3-5.9-3.2c-5.7-0.3-9.2,4.6-9.2,4.6C10.2,208.3,2,208.9,2,208.9
					c9.5-4,15.7-9.7,18.8-15.5c3.2-5.7,8.5-9.3,11.1-10c2.7-0.7,5.8,0.3,5,3.8c-0.7,3.5-7.2,4.9-7.2,4.9s4.1,1.7,6.6-1.1
					c2.5-2.8,4.4-3.4,4.4-3.4s-2.4,1.9,1.5,5.4c3.9,3.5,8.4,2.3,15-4.8c6.6-7,3.7-12.2,3.7-12.2c-7.7,2.7-7.7-2.4-7.7-2.4
					s1.2,2.7,7.1,0.7c6-2,5.3-5.6,5.3-7c0-1.5-1.7-3.1-1.7-3.1s15.4-0.8,18.4-4.6c-2.2,3.7-6.3,5.1-6.3,5.1
					c-3.5,0.9-6.6,1.1-6.6,1.1s-0.5,6.1,2,9.8c2.5,3.7,11.9,9.8,27,7s21.8-10.6,23.5-18.6c1.7-8-4.2-9.8-4.2-9.8s4.4-1,7.5,8.8
					c0,0,2.5,7.7,12.4,5.5c9.9-2.2,4.7-10.2-1.9-10.4c0,0,3.3-2.6,8.5,1.7c0,0,2.8-0.1,4.2-3.7c0.5-1.1,0-2.4-1.1-3.7
					c1.9,0.4,4.4,0.5,5.7-1.7c0.4-0.8,0.6-1.7,0.5-2.6c2.7,0.9,5.8,2.8,8.6,6.5c6.6,9.1,24.2,11.5,37,0c5.9-5.2,6.1-9.4,4.2-12.7
					c-0.8-3.3,2.3-4.3,5-4.3c2.8,0.1,2.8-2.5,2.8-2.5c1.8-7.3,8.2-5.8,8.2-5.8c-5.1,0.1-5.8,3.1-3.7,7.6c2.1,4.5,14.2,2.8,10.7-1.7
					c-3.5-4.4-0.4-5.6-0.4-5.6c-0.5,1,0.5,6.6,6.9,6.4c6.3-0.2,6.1-5.2,5.9-7c-0.2-1.8,1.5-2.1,1.5-2.1s-1.3,1.1,0.5,2.8
					c1.8,1.7,5.5,1.2,8.5-0.3c3-1.5,3.6-4.8,1.5-6.2S243.8,122.6,239.3,124.6z"/>
				<path class="st6" d="M416,37c-6.2-1.7-19.1,0.4-19.8,6.1c-0.8,5.7,4.1,8.1,4.1,8.1s-7.8-0.8-4.9-11.6c0,0,1.6-3.9,9.3-5.4
					c7.7-1.5,3.3-6.5,1.4-7c-1.9-0.5-7-3.1-13.3,0.9c0,0-0.7-2.4,6.1-5.3c0,0-1.8-4.4-9.5-5.7c-7.6-1.3-13.3-0.6-24.7,7.7
					c-11.3,8.3-4.8,12-4.8,12s2.4-4.3,7.7-7.4c0,0-8.2,7.2-8.1,13.2c0.1,6,9.2-8.3,17.2-11.7c8-3.4-1.2-2.6-1.2-2.6s2.7-2,5.1-1.4
					c2.4,0.7,4.4,2.7-0.3,5.1s-9.3,7.6-18.5,15.4c-9.2,7.8-5.5,2.2-14.8,5.7c-9.3,3.5-7,9.7-7,9.7s2.8-5.1,8.3-6.4
					c5.4-1.3,9.9-0.6,15.3,1.4c5.3,2,11-16.1,17.3-17.8c6.2-1.7,10.3,4.9,6.9,8.6c-3.5,3.6-8-0.2-7.6-2.5c0,0,2.5,3.1,3.7,1.6
					c1.2-1.4,2.5-5.5-2.4-5.5c-5,0-6.3,8.9-3.6,11.5s5.1,3,5.4,5.3c0.3,2.3-1.8,6.3-4.6,3.4c-2.8-2.9,0.6-5.2,1.5-4.4
					c0,0-1.5,0.9-1.6,1.8c0,0.9,2.3,2.8,2.8,1c0.5-1.8,0.9-2.4-2.2-4.3c-3.1-1.9-5-1.7-6.3-0.6c-1.3,1.1-6.4,4.1-4,5.7
					c0,0,4.9,2.3,6.6,6.6c1.7,4.3-3,4.9,1.1,6c4,1.1,6.2-6.1,9.7-7.4c3.5-1.4,4.2-4.9,4.2-4.9s1.6,3.8-3.2,6c0,0,5,2.7,7.6-0.8
					c2.6-3.5-1.6-9.2-7.2-10.3c0,0,0.7-2.8,7.6-2c6.9,0.8,20.3,0.5,25.2-4.7S422.2,38.7,416,37z"/>
				<path class="st6" d="M256.3,117.4c0,0-0.5-0.7-2.6,0.9c-2.1,1.6-1.2,3.8,1.4,3.4C257.7,121.4,261.1,118.3,256.3,117.4z"/>
			</g>
			<g class="st7">
				<path class="st8" d="M47.7,192.2c0,0-1.5-1.4,0.9-2.9c2.4-1.5,6.3-3.5,7.2-6.5c0.9-2.9,2.3-3.2,3-2.1c0.7,1.1,0.8,3.7-2.9,7.3
					C51.9,191.8,48.1,193.2,47.7,192.2z"/>
				<path class="st8" d="M72.2,169.3c0,0,0,2.2,0.8,4c0.9,1.8,8,8,21.4,7.1c14.1-0.9,22.1-6.6,25.1-15.7s-8.1-10-8.1-10
					s4.4,2.4,3.6,5.4s-3.8,6.7-7.8,7.3c-4,0.6-8.5-1-7.3-5.7c0,0-5,5.8,0.2,9c5.3,3.2,12-0.3,12-0.3s-0.4,6.9-18.6,7.2
					C76.1,177.9,73.6,172.4,72.2,169.3z"/>
				<path class="st8" d="M174.1,156.1c0,0,9.2,1.1,13.9-1.1c4.7-2.2,9-8.5,11.2-9.4c2.2-1,3,1.9,0.9,5.1c-2,3.2-10.1,8.5-16.7,9.4
					C167.3,162.2,171.5,155.1,174.1,156.1z"/>
				
					<ellipse transform="matrix(0.9844 -0.1761 0.1761 0.9844 -19.7954 43.1573)" class="st8" cx="233.3" cy="133.1" rx="2.5" ry="1.1"/>
				
					<ellipse transform="matrix(0.9844 -0.1761 0.1761 0.9844 -20.6196 41.1695)" class="st8" cx="221.7" cy="136.8" rx="3.3" ry="1.5"/>
			</g>
			<g>
				<path class="st9" d="M350.5,75.4c0,0,5.1-4.5,7.6-4.5c2.4,0,0.7,4.1-1.8,5.3C353.6,77.4,348.2,78.7,350.5,75.4z"/>
				<path class="st9" d="M315.5,98.7c0,0,9.7,0.2,14.9-4.5s4.2-9.5,4.2-9.5s-5.4,4.8-14.1,5.9c0,0,16.3-7,14.7-12.2
					c0,0,4.3,1,4.5,5.6s-2.8,12.1-9.3,15.1S315.5,98.7,315.5,98.7z"/>
				
					<ellipse transform="matrix(0.9844 -0.1761 0.1761 0.9844 -18.7749 45.3799)" class="st9" cx="246.3" cy="128.5" rx="2" ry="1.1"/>
			</g>
		</g>
		<path style="clip-path:url(#SVGID_4_);fill:#155B51;" d="M301-1.2l-6.5,33.8l-3.8-2.6L284,50.5l-3.8,1.2l-5.8,12.2l-5.5,1.7
			l-4.8,15.2l-5,3.5c0,0-2.8,11.5-7,17.7L237,114.4c-0.6,0.5-0.9,1.4-0.5,2.2c0.5,0.9,0.9,2.1,0.2,3.4c-1.2,2.2-18,10-17.2,11.5
			s-12,8.7-15,8.7s-57.5,9.7-57.5,9.7s-35.8,10.2-46.5,19.2s-41,16-41,16l-24,7.2l-11.2,3.5l14.5,7.5H375v-205L301-1.2z"/>
		<path style="opacity:0.1;clip-path:url(#SVGID_4_);fill:#FFFFFF;" d="M32.7,198c0,0,54.2-15,62.5-20.5s13-11,27-15.7
			s27.7-10.3,53.7-13.3s37.2-6,44-13c2.7-2.7,4.5,2.8,1.3,7.2c-3.2,4.3-7.3,10.2-23.2,17.8c-15.8,7.7-25.3,12.8-24,19.5
			c1.3,6.7-7.3,19.7-7.3,19.7L32.7,198z"/>
		<path style="opacity:0.1;clip-path:url(#SVGID_4_);fill:#FFFFFF;" d="M243.9,111c-1.7,1.2-2.4,3.6-1.3,5.4
			c0.3,0.5,0.5,1.1,0.7,1.8c0.6,3.6,1.8,11,5.6,13.1s11.6,13.1,11.5,28.5s5.6,18,9.9,24.9s4.4,13.5,4.4,13.5s26.7,1.8,41.2,1.5
			c14.5-0.3,7.7-7-1.7-16c-9.3-9-26.7-25.2-29-35.2c-2.3-10-5.2-17-13.3-23.3s-13-10.2-12.3-13.8c0.7-3.7-3.7-7.2-7.2-5.7
			C250.5,106.5,246.8,108.9,243.9,111z"/>
		<g style="clip-path:url(#SVGID_4_);">
			<path class="st12" d="M261.4,183.1c-0.3-0.4-0.7-0.8-1-1.2c-3.1-3.8-7.6-6.1-12.5-6.1l-32.4-0.1c-5.3,0-10.4,2.2-14,6.1
				c-1.5,1.6-3,2.8-4.4,3.1c-4.2,0.9-7.1,8.6-8.1,9.1s-5.2,4.9-5.2,4.9l83.2-0.4C266.9,198.6,269.1,192.1,261.4,183.1z"/>
			<path class="st12" d="M247.7,171.9c3.1,1,6.3-1.6,6-4.8c-0.3-3,0-5.9,0.8-8.9c2.1-8.1-5.2-20-10.4-22.9s-3.1-10.2-5.8-11
				s-10.9,2.6-13.5,7c0,0,2.4,0.1,3.9,3.5l0,0c0.5,1.1,1.9,1.6,3,0.9l2.6-1.6c0.5-0.3,1.1,0.3,0.7,0.8l-5.4,6
				c-0.1,3.2-0.9,6.8-2.4,9.4c-0.6,1-1.7,2.4-3.2,3.9c-3.5,3.8-1.8,10,3.1,11.5L247.7,171.9z"/>
		</g>
		<path style="clip-path:url(#SVGID_4_);fill:#155B51;" d="M259.5,111.3c0,0,0.4,2.5-3,2.5c-3.4,0-5,0.2-5.2,1.6s8.9,1.6,14.7,5.3
			s11.8,9.4,11.8,9.4l-14.1-17.8L259.5,111.3z"/>
		<path style="opacity:0.1;clip-path:url(#SVGID_4_);fill:#FFFFFF;" d="M266.3,85.2c0,0-3.8,0.7-4,2s-2.7,12.2-1.5,14.5
			s3.2,5.5,3.2,9.2c0,3.7,1.5,3,6.7,6.8c5.2,3.8,15.2,12.2,16.5,17.3c1.3,5.2,11.7,2.7,7.3-6.5c-4.3-9.2-6-27.8-5.2-41.2
			s0.2-34.2-1.5-34.3s-4.2,0.2-5.2,1.5s-3.8,13.3-4.2,20.8c-0.3,7.5-0.8,17.3-0.8,17.3s-1.7-14.8-2.2-19s-3.7-4.7-4.3-4.5
			c-0.7,0.2-2.2,13.7-1.7,22.7s0.7,11.8,0.7,11.8S266.2,94.7,266.3,85.2z"/>
		<path style="clip-path:url(#SVGID_4_);fill:#155B51;" d="M269.5,117c0,0,4,2.6,4.8,1.1s-0.4-18.1-0.4-18.1s3.4,7.4,3.6,13.4
			s0.6,7.9,2.6,8.5s4.1-6.5,3.6-10.5s-0.4-18.1-0.4-18.1s2.1,21.4,3.2,25.9s1.1,12.5,0.5,15.9c-0.5,3.4,3.5,8,3.5,8L269.5,117z"/>
		<path style="clip-path:url(#SVGID_4_);fill:#155B51;" d="M283.8,55.8c0,0-1.7,8.4-1.7,14.2l3-14.1c0,0,1.8-1.9,4.4-0.5l-0.8-2.2
			C288.8,53.2,284.3,52.8,283.8,55.8z"/>
		<path style="clip-path:url(#SVGID_4_);fill:#155B51;" d="M285.8,58.8c0,0-1.7,8.4-1.7,14.2l3-14.1c0,0,1.8-1.9,4.4-0.5l-0.8-2.2
			C290.8,56.2,286.3,55.8,285.8,58.8z"/>
		<path style="clip-path:url(#SVGID_4_);fill:#155B51;" d="M275.5,74c0,0-1.5-2.4-1.5,0.7c0,2.1,0,13.4,0,13.4s-1.1-13.2-0.8-15.8
			s-0.9-1.5-1.3-0.5c-0.3,0.8-0.5,10,0,13.9c0,0-0.9-8.8-0.5-14.2c0.3-3.4-1.2,1.2-1.3,2.6s-1-2.3-1-2.3l1.2-4.2l3.9,1.2l1.7,3.5
			L275.5,74z"/>
		<path style="clip-path:url(#SVGID_4_);fill:#155B51;" d="M288.6,137c0,0,3.6,1.3,3.1-4c-0.2-2.1-1.6-13.3-1.6-13.3
			s2.7,13,2.6,15.5c-0.1,2.5,1.1,1.4,1.3,0.3c0.2-0.9-0.7-10-1.7-13.8c0,0,2,8.6,2.2,14c0.1,3.4,1-1.3,1-2.7c0-1.4,1.2,2.2,1.2,2.2
			l-0.7,4.3l-4-0.7l-3.1-0.3L288.6,137z"/>
		<path style="clip-path:url(#SVGID_4_);fill:#155B51;" d="M277.6,116.4c0,0,1.4,2.4,1.6-0.6c0.1-2.1,0.5-13.4,0.5-13.4
			s0.6,13.3,0.1,15.8s0.9,1.5,1.3,0.5c0.3-0.8,0.9-10,0.5-13.9c0,0,0.6,8.8-0.1,14.2c-0.4,3.4,1.8-1.5,2-2.9
			c0.2-1.4,0.3,2.8,0.3,2.8l-1.4,4.2l-3.9-1.3l-1.5-3.6L277.6,116.4z"/>
		<path style="clip-path:url(#SVGID_4_);fill:#155B51;" d="M257.4,106.2c0,0-4.8-0.6-9.6,4.5c0,0,7.5-4.9,10.8-3.1L257.4,106.2z"/>
		<path style="clip-path:url(#SVGID_4_);fill:#155B51;" d="M259.7,108.8c0,0-4.6-1.2-10.1,3.1c0,0,8.1-3.8,11.1-1.6L259.7,108.8z"/>
		<path style="clip-path:url(#SVGID_4_);fill:#155B51;" d="M260,111.2c0,0-3.7-1.4-8.6,1.8c0,0,7-2.5,9.3-0.4L260,111.2z"/>
		<path style="clip-path:url(#SVGID_4_);fill:#155B51;" d="M266.6,84.4c0,0-2.1,6.2-0.4,17.2c0,0-2.4-5.6-0.8-16.9L266.6,84.4z"/>
		<path style="clip-path:url(#SVGID_4_);fill:#155B51;" d="M264.6,84.4c0,0-2.1,6.2-0.4,17.2c0,0-2.4-5.6-0.8-16.9L264.6,84.4z"/>
		<path style="clip-path:url(#SVGID_4_);fill:#155B51;" d="M262.6,85.4c0,0-2.1,6.2-0.4,17.2c0,0-2.4-5.6-0.8-16.9L262.6,85.4z"/>
		<g style="clip-path:url(#SVGID_4_);">
			<g>
				<path class="st13" d="M246.4,131.6c0,0-4.7-1.6-13-0.4c0,0,4.2-1.8,12.7-0.5L246.4,131.6z"/>
				<path class="st13" d="M246.5,130.1c0,0-4.7-1.6-13-0.4c0,0,4.2-1.8,12.7-0.5L246.5,130.1z"/>
				<path class="st13" d="M245.7,128.2c0,0-4.8-1.3-13,0.5c0,0,4.1-2.1,12.6-1.3L245.7,128.2z"/>
			</g>
			<g>
				<path class="st13" d="M244.3,127.2c0,0-4.7-1.2-12.6,0.8c0,0,3.9-2.1,12.3-1.6L244.3,127.2z"/>
				<path class="st13" d="M244.1,125.7c0,0-4.7-1.2-12.6,0.8c0,0,3.9-2.1,12.3-1.6L244.1,125.7z"/>
				<path class="st13" d="M243.3,124.3c0,0-4.7-1.2-12.6,0.8c0,0,3.9-2.1,12.3-1.6L243.3,124.3z"/>
			</g>
			<g>
				<path class="st13" d="M249.8,136.5c0,0-4.9-1.8-13.7-0.6c0,0,4.5-1.8,13.5-0.3L249.8,136.5z"/>
				<path class="st13" d="M249.8,134.9c0,0-4.9-1.8-13.7-0.6c0,0,4.5-1.8,13.5-0.3L249.8,134.9z"/>
				<path class="st13" d="M249.1,133.3c0,0-4.9-1.8-13.7-0.6c0,0,4.5-1.8,13.5-0.3L249.1,133.3z"/>
			</g>
			<g>
				<path class="st13" d="M252.5,141.8c0,0-5.2-2-14.5-0.8c0,0,4.7-1.9,14.2-0.2L252.5,141.8z"/>
				<path class="st13" d="M252.5,140.2c0,0-5.2-2-14.5-0.8c0,0,4.7-1.9,14.2-0.2L252.5,140.2z"/>
				<path class="st13" d="M251.8,138.4c0,0-5.2-2-14.5-0.8c0,0,4.7-1.9,14.2-0.2L251.8,138.4z"/>
			</g>
			<g>
				<path class="st13" d="M257.1,149.3c0,0-5.7-2.9-16.6-2.7c0,0,5.7-1.6,16.4,1.5L257.1,149.3z"/>
				<path class="st13" d="M257.4,147.4c0,0-5.7-2.9-16.6-2.7c0,0,5.7-1.6,16.4,1.5L257.4,147.4z"/>
				<path class="st13" d="M256.7,145.3c0,0-5.7-2.9-16.6-2.7c0,0,5.7-1.6,16.4,1.5L256.7,145.3z"/>
			</g>
			<g>
				<path class="st13" d="M255.6,154.1c0,0-4.7-2.4-13.6-2.2c0,0,4.7-1.3,13.4,1.3L255.6,154.1z"/>
				<path class="st13" d="M255.9,152.5c0,0-4.7-2.4-13.6-2.2c0,0,4.7-1.3,13.4,1.3L255.9,152.5z"/>
				<path class="st13" d="M255.3,150.8c0,0-4.7-2.4-13.6-2.2c0,0,4.7-1.3,13.4,1.3L255.3,150.8z"/>
			</g>
			<g>
				<path class="st13" d="M257.1,159.1c0,0-4.6-2.6-13.5-2.7c0,0,4.7-1.1,13.3,1.8L257.1,159.1z"/>
				<path class="st13" d="M257.3,157.5c0,0-4.6-2.6-13.5-2.7c0,0,4.7-1.1,13.3,1.8L257.3,157.5z"/>
				<path class="st13" d="M256.8,155.8c0,0-4.6-2.6-13.5-2.7c0,0,4.7-1.1,13.3,1.8L256.8,155.8z"/>
			</g>
			<g>
				<path class="st13" d="M258.1,164.7c0,0-4.4-2.8-13.3-3.6c0,0,4.8-0.8,13.2,2.7L258.1,164.7z"/>
				<path class="st13" d="M258.4,163.1c0,0-4.4-2.8-13.3-3.6c0,0,4.8-0.8,13.2,2.7L258.4,163.1z"/>
				<path class="st13" d="M258.1,161.4c0,0-4.4-2.8-13.3-3.6c0,0,4.8-0.8,13.2,2.7L258.1,161.4z"/>
			</g>
			<g>
				<path class="st13" d="M256.9,168.9c0,0-4.4-2.8-13.3-3.6c0,0,4.8-0.8,13.2,2.7L256.9,168.9z"/>
				<path class="st13" d="M257.3,167.3c0,0-4.4-2.8-13.3-3.6c0,0,4.8-0.8,13.2,2.7L257.3,167.3z"/>
				<path class="st13" d="M256.9,165.6c0,0-4.4-2.8-13.3-3.6c0,0,4.8-0.8,13.2,2.7L256.9,165.6z"/>
			</g>
			<g>
				<path class="st13" d="M255.8,173c0,0-4.4-2.8-13.3-3.6c0,0,4.8-0.8,13.2,2.7L255.8,173z"/>
				<path class="st13" d="M256.2,171.5c0,0-4.4-2.8-13.3-3.6c0,0,4.8-0.8,13.2,2.7L256.2,171.5z"/>
				<path class="st13" d="M255.8,169.7c0,0-4.4-2.8-13.3-3.6c0,0,4.8-0.8,13.2,2.7L255.8,169.7z"/>
			</g>
		</g>
		<path style="clip-path:url(#SVGID_4_);fill:#155B51;" d="M246,115.5c0,0,2,7.6,2.8,9.3c0.8,1.7,1.9,1.9,4.3,4.2
			c2.4,2.4,7.3,4.5,11.5,16.7c2.7,7.8,2.8,13.9,11.2,19c0,0-6.5-5.2-8-11.7c-0.8-3.3-3.6-15-10-20.9c-7.8-7.1-8.3-7.4-8.8-8.7
			S246,115.5,246,115.5z"/>
		<path style="clip-path:url(#SVGID_4_);fill:#155B51;" d="M275.8,89.5l2.5,15.1C278.3,104.6,276,98.4,275.8,89.5z"/>
		<path style="clip-path:url(#SVGID_4_);fill:#155B51;" d="M272.6,81.3l0.5,23.5C273.1,104.7,271.6,95,272.6,81.3z"/>
		<path style="clip-path:url(#SVGID_4_);fill:#155B51;" d="M270.6,80.3l0.4,16.4C270.9,96.6,269.9,89.9,270.6,80.3z"/>
		<path style="clip-path:url(#SVGID_4_);fill:#155B51;" d="M284.6,78.3l0.5,23.5C285.1,101.7,283.6,92,284.6,78.3z"/>
		<path style="clip-path:url(#SVGID_4_);fill:#155B51;" d="M281.6,85.3l0.4,16.4C281.9,101.6,280.9,94.9,281.6,85.3z"/>
		<path style="clip-path:url(#SVGID_4_);fill:#155B51;" d="M281.3,73.3l-1.1,16.4C280.2,89.6,279.7,82.8,281.3,73.3z"/>
		<path style="clip-path:url(#SVGID_4_);fill:#155B51;" d="M287.7,107.3l2.1,16.3C289.8,123.6,288,117,287.7,107.3z"/>
		<g style="clip-path:url(#SVGID_4_);">
			<path class="st13" d="M22.8,214.9c0,0,25.6,1.9,36.2-5.5l-0.2-38.7c0,0,5.5,9.8,11.3,8.7c7.6-1.5,23.8-21.2,27.8-25.7
				c4-4.5,4.9-9.9,0.2-10.6c-4.9-0.7-16.5,13.9-25.2,18.7c-1.2,0.7-2.8-0.7-3.2-2.1c-0.5-1.6-1.7-4.7-2-7.8
				c-0.5-6.4-2.4-13.9-3.6-19.3c-1.2-5.4-4.5-6.9-6.8-7.1c-2.3-0.2-18.5-5.3-23.9,1.5C29,132.3,22.8,214.9,22.8,214.9z"/>
			<path class="st13" d="M64.3,135.4l0.3,0.2c0,0,4,13.3,5.1,15.2c0,0-0.1,1-0.6,1.5c-0.5,0.4-3.7,2.6-3.7,2.6L64.3,135.4z"/>
			<path class="st12" d="M52.7,159c0.4,0.8,1.4,1.1,2.2,0.6c3.5-2.2,12.2-7.6,12.5-8.5c0.4-1.1-1.2-3-1.7-4.9s-2.8-7.9-3.4-11.2
				c-0.6-3.3-1.7-6.5-3.4-7.4c-1.6-0.9-16.5-5.4-22.2-1.8c0,0-2.7,0.9-4.4,10.4c-1.7,9.5-7.5,76.6-7.5,76.6s16.6,2.3,31.3-3.8
				c0.8-0.3,1.3-1.1,1.3-2v-33.7l-2.7-10.5l0,0c-0.9,0.4-1.8-0.1-2.1-1l-2.2-7.1L52.7,159z"/>
			<path class="st14" d="M56.3,161.4c0,0,4.9,6.8,6,9.4c1.1,2.6,2.9,4.9,4.9,5.4c2,0.5,4.2,0.2,6.4-1.6c2.2-1.8,22.6-19.9,24.7-24.2
				c2-4.2,1.1-5.6,0.6-5.8c-0.5-0.2-2.9-0.3-10.7,7.3S74.9,164,72.5,164.2c-2.4,0.3-3.6-1.4-4.3-3.6c-0.7-2.2-2.1-5.2-2.1-5.2
				L56.3,161.4z"/>
			<path class="st15" d="M99.4,143.9l-2.4-0.3l-6.2,5.2l-16.4,14.3l-4.2-0.4c0,0-3.7-8.1-3.9-8.4c-0.2-0.3-11.4,7.4-11.4,7.4
				l7.5,11.6l6.1,4.9L77,174l17.3-17.4l6.3-9.7L99.4,143.9z M76,166.2c-1.6,1.5-4.8,1.1-6.5,0.6c-1.6-0.5-4.2-4.3-5.1-6.3
				c-0.9-2-0.3-2.5,0.3-2.3c0.6,0.3,1.7,2,1.7,2s1.2,2.6,2.3,3.9c1.1,1.3,4.3,2.1,6.5,0.8c1.7-1,16.7-14.9,17.1-15.3
				c0.3-0.4,2.7-3,2.9-1.2C95.4,150.2,78.8,163.6,76,166.2z"/>
			<path class="st16" d="M43.5,124c0,0-2.5,1.3-3.9,5.5c-1.4,4.2,1.4,2.2,7.7,0.8c6.2-1.4,1.2,1.7-3,4.5s-5.8,10.3-5.7,22.1
				c0.1,11.8,9.4,26.9,13.4,37.8c4,10.9,5.1-0.6,1.7-8.7c-3.4-8.1-5.1-18.2-5.1-18.2s4.5,13.1,6.6,13.6c2.1,0.5,2.2-8.1,2.2-8.1
				l0.6,13.7l0.1,21.3c0,0-6.2,5.2-14.6,5.8c-8.3,0.6-8.3,0.6-8.3,0.6l-12.1-1c0,0,6.6-71.5,9-81.5C34.6,122.3,43.5,124,43.5,124z"
				/>
			<path class="st13" d="M39.7,125.1c0,0,5.1,4,10.4,2.9s5.7-1.6,5.7-1.6V121L40,120.2L39.7,125.1z"/>
			
				<ellipse transform="matrix(0.9892 -0.1468 0.1468 0.9892 -15.5619 8.2415)" class="st14" cx="48.1" cy="109.6" rx="9.9" ry="13.4"/>
			<g>
				
					<ellipse transform="matrix(0.9892 -0.1468 0.1468 0.9892 -15.2206 8.1447)" class="st13" cx="47.6" cy="107.2" rx="13.5" ry="18.3"/>
				
					<ellipse transform="matrix(0.9892 -0.1468 0.1468 0.9892 -15.2206 8.1447)" class="st14" cx="47.6" cy="107.2" rx="12" ry="16.3"/>
				<g>
					<path class="st13" d="M55.5,75.8c2.5-3.4-1.7-6.5-4.6-5.2c0,0,2-2.8,0.2-5.9c-1.8-3.1-7.1-4.9-9.3-2c-1.3,1.7-1.5,2.9-1.4,3.6
						C40,65.1,39,63,37,62.3c-2.9-0.9-9.2,0.9-10.8,3.4s-1.2,4.3-1.2,4.3s-1.4-2.8-4.3-2.1c-2.9,0.7-3.5,3.6-2.1,4.8
						c0,0-4.8-0.4-6.9,7c-2.1,7.3,2.6,10,4.6,10.2c0,0-1.8,1.7-1,6c0.8,4.3,6.7,4.5,8.4,2.9c1-0.9,1.3-2.2,1.3-3.2
						c2.2,5.7,4.6,11.7,6.4,15.9c0.8,2,3.7,2.1,4.7,0.1c5-10,13.4-15,18.3-17.2c1.9-0.9,2.6-3.2,1.5-5l-6.7-10.4
						c0.6-1.4,0.4-2,0.4-2S52.9,79.1,55.5,75.8z"/>
					<path class="st12" d="M25.6,92.4l6.7,16c0,0,1.5,2.9,2.8,0.2s8.5-10,13.3-13.8s6-3,4.2-6.3s-4.9-7.8-4.9-7.8s0.2,2.1-1.1,3.6
						c-1.4,1.5-3.7,1.3-3.7,1.3c-0.3,1.1-2.7,2.5-4.9,1c0,0,3.6-0.4,3.9-2c0,0,3.2-0.3,3.9-1.5c0.7-1.2,0.5-3.8,0.5-3.8
						s0.8,0.6,1.2-0.1c0.5-0.7,0.6-3.1,0.6-3.1s3.5,1.1,4.6,0.3s2.3-2,1.3-3.2c-1-1.2-2.4-1.9-5.4-0.9c0,0,2-3.1,1.4-5.4
						c-0.6-2.4-4.7-4.5-6.6-3.2c-1.9,1.3-2.3,4.3-2.1,6.7c0,0-1.9-4.5-3.7-5.7s-7.6-0.8-9.5,2s-2,3.7-1.6,6c0,0-3-2.5-4.3-2.5
						c-1.2,0-2.2,1-1.6,2c0.6,1,0.7,2.1,0.7,2.1s-1.8,0.3-2.7,0.5c-1.6,0.3-4.2,2.5-4.7,4.8c-0.4,2.2-0.9,4.8,0.7,7.1
						c1.1,1.5,4.1,2.4,5.5,1.1c0,0,0.3,1.4-1.7,2.8c-2,1.5-1.1,4.2-0.4,5.6c0.7,1.4,3,2.4,4.2,1.7c1.2-0.8,2.2-2.5,2.2-5
						c0-2.5-1.3-3.4-1.3-3.4s2.8,1.2,4.6-0.2c1.8-1.4,2-3.3,1.8-4.3c0,0,1,0.7,0.7,2.4c-0.2,1.6-0.8,2.7-1.9,3.2
						S25.1,91.3,25.6,92.4z"/>
					<path class="st16" d="M28,65.8c0,0-1.3,2.1-0.4,5c0.9,2.9,3.6,1.3,3.6,1.3s-0.9,2.6-3.3,2.6S25,74,25,74s-1.8-0.2-3.1,1.1
						c-1.3,1.4-1.5,3.8-0.3,4.6c1.1,0.8,4,1.3,4.9-0.8c0,0-0.1,2,1.7,2.8c1.9,0.8,2.9-0.6,2.8-1.8s-1-1.9-1-1.9s1.4,1.7,3.4,0.9
						c2-0.8,2.9-1.5,2.4-2.6c-0.5-1.1-1.7-1.3-1.7-1.3s1.3-0.5,2.3,0c1,0.5,1.4,1.6,1.2,2.7c0,0,0.1,1.2,1.6,1.3
						c1.5,0.1,3.1,0.2,3.8-1.4c0.7-1.6,0.3-2.6-0.2-3.4c0,0,1.4-0.5,2.3,1c0,0,0.4,0.8,0.9,0.7s1.7-0.2,2.5-1.1
						c0.8-0.9-0.1-1.6-0.1-1.6s0.6-0.8,1.6-0.5c1,0.3,3.8,1.4,4.1,0.3c0.3-1-1-1.7-1-1.7l2.3,0.9l0.1,1.9l-1.4,1.8L50.4,77l-1.6-0.2
						l-0.2,1.8l-0.5,1l6.7,10.8l-0.6,2.4c0,0-10.4,6.9-13.3,10.4c-2.9,3.5-5.4,9-7.1,8.8s-2.6-3.5-2.6-3.5l-6.5-15.2
						c0,0,0.1,3.1-0.8,4.1c-0.9,1-3.1,1.9-4.5,1.5c-1.4-0.4-3.1-2.6-3.1-2.6l-0.7-3.8l1.2-2.7l-0.5-1c0,0-3.2-0.8-3.8-2.4
						s-1.1-7.2,0.4-9.2c1.5-2,5.4-3.9,5.4-3.9l1.6,0c0,0-1.1-1.1-1.1-2.1c0-1,1.1-2.2,2.5-2.4c1.4-0.2,2.6,0.7,2.6,0.7l0.8,1.1
						l0.8-1.3l1.4-3.7L28,65.8z"/>
					<path class="st12" d="M47.4,84.8c0,0-1.8,1.1-1.7,1.7s1.8,4.1,1.8,4.1s-2.2-3.1-2.3-3.4c-0.2-0.3-1.3,0.4-1.8,0.8
						c-0.5,0.4-0.9,1.2-0.5,2s1.2,2.6,1.2,2.6s-1.8-2.6-2-2.8c-0.2-0.3-1,0-1.3,0.3s-1,1.3-1,1.8s1.8,3.7,1.8,3.7s-1.6-2.5-2.3-2.8
						c-0.6-0.3-0.6,0.6-0.4,1c0.2,0.4,2.6,3.9,3.1,4.1c0.4,0.2,0-1.6,0-1.6s0.7,0.8,1,0.8c0.3,0,2.2-1.4,2.3-2
						c0.1-0.6-0.5-1.5-0.5-1.5s0.7,0.9,1.2,0.8s2.5-1.3,2.5-1.9c-0.1-0.6-0.3-0.9-0.3-0.9s0.5,0.6,0.7,0.6c0.2,0,1.9-1,2.1-1.5
						c0.2-0.5,0.2-0.7-0.2-1.7C50.3,87.9,48.2,84.1,47.4,84.8z"/>
					<path class="st12" d="M38,94.7c0,0,2.3,3.4,2.5,4c0.2,0.6-0.2,1-0.4,0.8c-0.2-0.2-2.6-4.1-2.8-4.8S37.4,93.8,38,94.7z"/>
					<path class="st12" d="M36.5,97.5c0,0,2,2.9,2.2,3.4s-0.1,0.9-0.4,0.7s-2.2-3.5-2.4-4.1C35.6,97,36,96.7,36.5,97.5z"/>
				</g>
				<path class="st15" d="M59.5,103c-0.6-3.5-6-9.2-6-9.2s-12.7,6.3-17.1,15l-0.3,2.9c0,0,1.7,7,5.6,9.4c4,2.4,9.4,3.8,12.2,1.6
					c2.9-2.2,5.2-6.5,5.6-8.9C59.8,111.4,60.1,106.5,59.5,103z M56.4,109.5c-1.7-0.4-3-2.5-5.5-7.6c-0.5-1-1.3-2.5-0.1-3.5
					c1.6-1.3,3.6-0.8,4.5,1.1c0.7,1.5,1.5,2.3,2.1,5C57.9,107.6,58.7,110,56.4,109.5z"/>
			</g>
			<path class="st13" d="M48.1,97.5c0,0-1.4,1.7-0.1,5.5c1.3,3.8,2,5.2,2,5.2l-1.9,2.6c0,0-4.4-2.7-5.6-2.5
				c-1.2,0.2-1.6,3.5,0.7,6.7c2.3,3.2,0.8,6.1,0.1,6.3c-0.7,0.2-3.9-1.6-5.4-3.9c-1.4-2.3-2.5-6.8-2.5-6.8S43,99.2,47.1,97
				C51.2,94.9,48.1,97.5,48.1,97.5z"/>
			<g>
				<path class="st13" d="M9.4,102.9l-3.6,8c-1.5,3.4,0,7.4,3.4,8.9l19.8,8.9c3.4,1.5,7.4,0,8.9-3.4l0.6-1.3l48,21.6l2.4-5.3
					l-48-21.6l0.6-1.3c1.5-3.4,0-7.4-3.4-8.9l-19.8-8.9C14.9,98,10.9,99.5,9.4,102.9z"/>
				<path class="st12" d="M85.6,143.3l-46.4-20.9c-0.9-0.4-1.9,0-2.3,0.9l-0.6,1.3c-1.1,2.5-4.1,3.6-6.6,2.5l-19.8-8.9
					c-1.9-0.8-3-2.7-2.9-4.8c0-0.6,0.2-1.2,0.4-1.8l3.6-8c1.1-2.5,4.1-3.6,6.6-2.5l19.8,8.9c1.9,0.8,3,2.7,2.9,4.8l0,0
					c0,0.6-0.2,1.2-0.4,1.8l-0.6,1.3c-0.1,0.2-0.1,0.4-0.2,0.6c0,0.2,0,0.5,0.1,0.7c0.2,0.4,0.5,0.8,0.9,1l46.4,20.9L85.6,143.3z"/>
				<path class="st13" d="M84.8,146.6l13.9,6.5c2.6,1.2,5.8,0.4,7.2-1.7l0,0c1.5-2.3,0.4-5.2-2.3-6.4l-14-6.5
					c-2.7-1.2-5.9-0.4-7.3,1.9v0C81,142.5,82.1,145.3,84.8,146.6z"/>
				<g class="st17">
					<defs>
						<path id="SVGID_43_" class="st17" d="M85.6,143.3l-46.4-20.9c-0.9-0.4-1.9,0-2.3,0.9l-0.6,1.3c-1.1,2.5-4.1,3.6-6.6,2.5
							l-19.8-8.9c-1.9-0.8-3-2.7-2.9-4.8c0-0.6,0.2-1.2,0.4-1.8l3.6-8c1.1-2.5,4.1-3.6,6.6-2.5l19.8,8.9c1.9,0.8,3,2.7,2.9,4.8l0,0
							c0,0.6-0.2,1.2-0.4,1.8l-0.6,1.3c-0.1,0.2-0.1,0.4-0.2,0.6c0,0.2,0,0.5,0.1,0.7c0.2,0.4,0.5,0.8,0.9,1l46.4,20.9L85.6,143.3z"
							/>
					</defs>
					<clipPath id="SVGID_6_">
						<use xlink:href="#SVGID_43_"  style="overflow:visible;"/>
					</clipPath>
					
						<rect x="-1.4" y="112.3" transform="matrix(-0.9934 0.1143 -0.1143 -0.9934 55.6752 229.4324)" style="clip-path:url(#SVGID_6_);fill:#FFFFFF;" width="45.2" height="7.9"/>
					
						<rect x="-3.5" y="107.5" transform="matrix(-0.9934 0.1143 -0.1143 -0.9934 50.4412 213.9433)" style="clip-path:url(#SVGID_6_);fill:#FFFFFF;" width="45.2" height="1.7"/>
				</g>
				<path class="st12" d="M38.5,114.7c0,0.4-0.1,0.8-0.3,1.2l-0.6,1.3c-0.2,0.4-0.3,0.8-0.3,1.3c0,0.5,0.1,1,0.2,1.4
					c0.1,0.2,0.2,0.4,0.3,0.6c-1.1,0.2-2.1,0.9-2.6,2l-0.6,1.3c-0.4,0.8-1,1.4-1.8,1.7c-0.8,0.3-1.7,0.3-2.5-0.1l-19.8-8.9
					c-1.2-0.5-2-1.8-1.9-3.1c0-0.4,0.1-0.8,0.3-1.2l3.6-8c0.7-1.6,2.6-2.3,4.3-1.6l19.8,8.9C37.8,112.2,38.6,113.4,38.5,114.7z"/>
				<g>
					<g>
						<path class="st13" d="M30.5,123.2l-0.1,0.2c-0.3,0.6-1,0.8-1.5,0.6L11.3,116c-0.6-0.3-0.8-1-0.6-1.5l0.1-0.2
							c0.3-0.6,1-0.8,1.5-0.6l17.6,7.9C30.5,121.9,30.7,122.6,30.5,123.2z"/>
						<path class="st13" d="M33.1,118.1l-0.1,0.2c-0.3,0.6-1,0.8-1.5,0.6L14,110.9c-0.6-0.3-0.8-1-0.6-1.5l0.1-0.2
							c0.3-0.6,1-0.8,1.5-0.6l17.6,7.9C33.2,116.8,33.4,117.5,33.1,118.1z"/>
						<path class="st13" d="M35.4,113.2l-0.1,0.2c-0.3,0.6-1,0.8-1.5,0.6L16.3,106c-0.6-0.3-0.8-1-0.6-1.5l0.1-0.2
							c0.3-0.6,1-0.8,1.5-0.6l17.6,7.9C35.4,111.9,35.7,112.6,35.4,113.2z"/>
					</g>
				</g>
			</g>
			<path class="st13" d="M22.8,214.9c0,0,25.6,1.9,36.2-5.5l-0.2-38.7c0,0,5.5,9.8,11.3,8.7c7.6-1.5,23.8-21.2,27.8-25.7
				c4-4.5,4.9-9.9,0.2-10.6c-4.9-0.7-16.5,13.9-25.2,18.7c-1.2,0.7-2.8-0.7-3.2-2.1c-0.5-1.6-1.7-4.7-2-7.8
				c-0.5-6.4-2.4-13.9-3.6-19.3c-1.2-5.4-4.5-6.7-6.8-7.1c-5.5-1.1-18.5-5.3-23.9,1.5C29,132.3,22.8,214.9,22.8,214.9z"/>
			<path class="st13" d="M64.3,135.4l0.3,0.2c0,0,4,13.3,5.1,15.2c0,0-0.1,1-0.6,1.5c-0.5,0.4-3.7,2.6-3.7,2.6L64.3,135.4z"/>
			<path class="st12" d="M52.7,159c0.4,0.8,1.4,1.1,2.2,0.6c3.5-2.2,12.2-7.6,12.5-8.5c0.4-1.1-1.2-3-1.7-4.9s-2.8-7.9-3.4-11.2
				c-0.6-3.3-1.7-6.5-3.4-7.4c-1.6-0.9-16.5-5.4-22.2-1.8c0,0-2.7,0.9-4.4,10.4c-1.7,9.5-7.5,76.6-7.5,76.6s16.6,2.3,31.3-3.8
				c0.8-0.3,1.3-1.1,1.3-2v-33.7l-2.7-10.5l0,0c-0.9,0.4-1.8-0.1-2.1-1l-2.2-7.1L52.7,159z"/>
			<path class="st14" d="M56.3,161.4c0,0,4.9,6.8,6,9.4c1.1,2.6,2.9,4.9,4.9,5.4c2,0.5,4.2,0.2,6.4-1.6c2.2-1.8,22.6-19.9,24.7-24.2
				c2-4.2,1.1-5.6,0.6-5.8c-0.5-0.2-2.9-0.3-10.7,7.3S74.9,164,72.5,164.2c-2.4,0.3-3.6-1.4-4.3-3.6c-0.7-2.2-2.1-5.2-2.1-5.2
				L56.3,161.4z"/>
			<path class="st15" d="M99.4,143.9l-2.4-0.3l-6.2,5.2l-16.4,14.3l-4.2-0.4c0,0-3.7-8.1-3.9-8.4c-0.2-0.3-11.4,7.4-11.4,7.4
				l7.5,11.6l6.1,4.9L77,174l17.3-17.4l6.3-9.7L99.4,143.9z M76,166.2c-1.6,1.5-4.8,1.1-6.5,0.6c-1.6-0.5-4.2-4.3-5.1-6.3
				c-0.9-2-0.3-2.5,0.3-2.3c0.6,0.3,1.7,2,1.7,2s1.2,2.6,2.3,3.9c1.1,1.3,4.3,2.1,6.5,0.8c1.7-1,16.7-14.9,17.1-15.3
				c0.3-0.4,2.7-3,2.9-1.2C95.4,150.2,78.8,163.6,76,166.2z"/>
			<path class="st16" d="M49.8,124.9c0,0-8.8,0.4-10.2,4.5c-1.4,4.2,1.4,2.2,7.7,0.8c6.2-1.4,1.2,1.7-3,4.5s-5.8,10.3-5.7,22.1
				c0.1,11.8,9.4,26.9,13.4,37.8c4,10.9,5.1-0.6,1.7-8.7c-3.4-8.1-5.1-18.2-5.1-18.2s4.5,13.1,6.6,13.6c2.1,0.5,2.2-8.1,2.2-8.1
				l0.6,13.7l0.1,21.3c0,0-6.2,5.2-14.6,5.8c-8.3,0.6-8.3,0.6-8.3,0.6l-12.1-1c0,0,6.6-71.4,9-81.5C35,120.2,49.8,124.9,49.8,124.9z
				"/>
			<path class="st16" d="M48.8,144.5c0,0,2.8,7,5.1,8c2.2,1.1,3.1-1.8,2.9-3.5c0,0,1.2,2.4,2.3,3.1c1.1,0.7,3.1,0.4,4-0.9
				c0.9-1.2,1-2,1.8-3.3s0.2-3.4,0.2-3.4l2.9,4.5l0.5,2.1l-14.3,9.9l-1.7-0.7C52.6,160.4,49.4,154,48.8,144.5z"/>
		</g>
		<path style="clip-path:url(#SVGID_4_);fill:#155B51;" d="M126.3,179.3c0,0,57.6-22.9,101.6-19.9s68.1,4.6,82.1-4.9
			s25.9-13,39.9-13.5s41.9-13.5,41.9-13.5v76H95C95,203.5,107,187.8,126.3,179.3z"/>
		<path style="opacity:0.1;clip-path:url(#SVGID_4_);fill:#FFFFFF;" d="M126.3,184.3c0,0,57.6-22.9,101.6-19.9s68.1,4.6,82.1-4.9
			s25.9-13,39.9-13.5s41.9-13.5,41.9-13.5v76H95C95,208.5,107,192.8,126.3,184.3z"/>
		<g style="clip-path:url(#SVGID_4_);">
			<circle class="st13" cx="198.6" cy="175.1" r="2.4"/>
			<circle class="st13" cx="204" cy="170.8" r="1.2"/>
			<circle class="st13" cx="205.3" cy="176.1" r="1.6"/>
		</g>
		<g style="clip-path:url(#SVGID_4_);">
			<circle class="st13" cx="271.1" cy="186.6" r="2.4"/>
			<circle class="st13" cx="275.4" cy="192" r="1.2"/>
			<circle class="st13" cx="270.1" cy="193.3" r="1.6"/>
		</g>
		<g style="clip-path:url(#SVGID_4_);">
			<circle class="st13" cx="339.6" cy="159.1" r="2.4"/>
			<circle class="st13" cx="364.5" cy="150.1" r="1.1"/>
			<circle class="st13" cx="362.5" cy="153.1" r="1.1"/>
			<circle class="st13" cx="366.5" cy="153.1" r="1.1"/>
			<circle class="st13" cx="334.2" cy="163.4" r="1.2"/>
			<circle class="st13" cx="332.8" cy="158.1" r="1.6"/>
		</g>
		<path style="clip-path:url(#SVGID_4_);fill:#155B51;" d="M309,180.5c0,0,10.8-9.2,20.8-6.8c10,2.3,17.8-4,19.8-6.5
			s13.3-4.2,20.8-0.5c7.5,3.7,10.5-3.2,10.5-3.2l0.5,6c0,0-4.5,3.2-10,1.2S360,166,355,167.8s-4.8,6.3-11,8.8
			c-6.2,2.5-16.5-0.7-19.7-0.5C321.2,176.3,309,180.5,309,180.5z"/>
		<path style="opacity:0.1;clip-path:url(#SVGID_4_);fill:#FFFFFF;" d="M306.7,5L302,34.2c0,0,7.5,4.8,9.7,12.5c0,0,1.7-18.2,0.7-22
			s-1.5-7.3-0.5-11.5s1.5-17.8,1.5-17.8l-4.8,0.2L306.7,5z"/>
		<path style="opacity:0.1;clip-path:url(#SVGID_4_);fill:#FFFFFF;" d="M315.7,16.5c0,0,3.7,11.5,2.8,25.2c-0.8,13.7-1,23.2-3.7,22
			c-2.7-1.2-5.7,21.8-5.7,21.8s1,10,4.8,16.7c3.8,6.7,4.5,0.3,4.3-4.5s-0.3-26.2,2.3-28.3c2.7-2.2,2.2-3.8,1.5-13.5
			c-0.7-9.7,2.8-20.2,1.2-25.7S315.7,16.5,315.7,16.5z"/>
		<path style="opacity:4.000000e-02;clip-path:url(#SVGID_4_);fill:#FFFFFF;" d="M294.3,36.7l6.8,9.3l-0.7,2.8c0,0,4,14.8,5,16
			c1,1.2,3.2-8.5,3.5-13.3c0.3-4.8-4.8-9.8-7.7-12S294.3,36.7,294.3,36.7z"/>
		<path style="opacity:4.000000e-02;clip-path:url(#SVGID_4_);fill:#FFFFFF;" d="M328,71.5l-3.8,2.8c0,0-1.3,32.5-0.5,34.3
			c0.8,1.8,2.7,8.5,6.5,8.7c3.8,0.2,3.8-20.8,3.7-22c-0.2-1.2-0.7-13.5,0.5-15s6.5-6.5,6.5-6.5s-0.5-47-2.3-51.8
			c-1.8-4.8-9.3-12.7-9.3-12.7l-0.3-15.5l-2.5,3.5L326,13c0,0,7.2,8.7,8.5,14.3c1.3,5.7,3,39.2,1.7,40.3
			C334.8,68.8,328,71.5,328,71.5z"/>
		<path style="opacity:0.1;clip-path:url(#SVGID_4_);fill:#FFFFFF;" d="M329,34.2c0,0-1.5,15.7-0.3,24c1.2,8.3,4.7,5.2,4.7,5.2
			l-0.8-27.8l-2.3-7.7L329,34.2z"/>
		<path style="opacity:0.1;clip-path:url(#SVGID_4_);fill:#FFFFFF;" d="M346.9,66.7L346,78.2l-5,4.8c0,0-0.8,32.8,0.5,36.5
			s6,6.5,11,2s0.8-35.2,0.8-35.2l3-4.5l-2-59l7.2-14.2L360-11.3L355.5-5l0.8,12.8L344.8,20L346.9,66.7z"/>
		<path style="opacity:0.1;clip-path:url(#SVGID_4_);fill:#FFFFFF;" d="M291.7,38.5l-2.5,9l3.2,5l2.2,32.8c0,0-4.5,20.3,1.5,35.7
			s6.5,16.5,6.5,16.5l1.8,6c0,0,6,0.3,8.5-3.5c2.5-3.8-4.7-7.5-8.2-14.8S297,94.8,300.3,90c3.3-4.8,5-9.7,5-11.3s-9.2-28.5-9.2-28.5
			l1.3-3.7L291.7,38.5z"/>
		<path style="opacity:4.000000e-02;clip-path:url(#SVGID_4_);fill:#FFFFFF;" d="M311.8,105.2c0,0-2.2-7-5-10s-2,3.2,0.2,9
			c2.2,5.8,12.8,22.3,24.8,32.3s27.8,5.5,27.8,5.5s4.8-1.7-7.8-5C339.2,133.7,330.5,132.8,311.8,105.2z"/>
		<path style="opacity:0.1;clip-path:url(#SVGID_4_);fill:#FFFFFF;" d="M304.8,107.6c0,0-0.8,8.5,4.8,18.8s17.1,19.2,21,19.8
			s4.2-2.6,8.2-2.8c0,0-11.8-5.1-15.2-9S308.8,119.2,304.8,107.6z"/>
		<path style="opacity:0.1;clip-path:url(#SVGID_4_);fill:#FFFFFF;" d="M290.9,144.8c0,0,2,7.8,4,10.6s15.2-2.5,16.6-5.1
			s1.5-2.1-2.6-2s-8.5,0.8-9.1-1.9S290.9,144.8,290.9,144.8z"/>
		<polygon style="opacity:4.000000e-02;clip-path:url(#SVGID_4_);fill:#FFFFFF;" points="333.5,-2.7 334,6.2 341.6,14.7 349.7,5 
			349.7,-5 		"/>
		<path style="opacity:4.000000e-02;clip-path:url(#SVGID_4_);fill:#FFFFFF;" d="M360,26l4.2,53.8l4.5,2.2l2.2,10.8l-6.2,7.2
			l1.2,13.5l3,1.8c0,0-2,9.2-3,11.2s1,9.8,7,9s12.8-28.2,12.8-28.2s-8-47-10.8-50.5s-9.2-14-10-21.5s6.5-18.2,6.5-18.2l0.2-20.5
			l-6.2,1.2L368,9.5L360,26z"/>
	</g>
</g>
<g id="Layer_2">
</g>
</svg>
