<?xml version="1.0" encoding="utf-8"?>
<!-- Generator: Adobe Illustrator 19.1.0, SVG Export Plug-In . SVG Version: 6.00 Build 0)  -->
<svg version="1.1" xmlns="http://www.w3.org/2000/svg" xmlns:xlink="http://www.w3.org/1999/xlink" x="0px" y="0px"
	 viewBox="0 0 57.9 57.9" style="enable-background:new 0 0 57.9 57.9;" xml:space="preserve">
<style type="text/css">
	.st0{clip-path:url(#SVGID_2_);}
	.st1{fill:#149680;}
	.st2{fill:#1CB7A1;}
	.st3{opacity:0.5;fill:#00F1D3;}
	.st4{opacity:0.2;}
	.st5{fill:#FFFFFF;}
	.st6{fill:#00F1D3;}
	.st7{clip-path:url(#SVGID_2_);fill:#155B51;}
	.st8{opacity:0.1;clip-path:url(#SVGID_2_);fill:#FFFFFF;}
	.st9{opacity:0.1;fill:#FFFFFF;}
	.st10{clip-path:url(#SVGID_2_);fill:none;}
	.st11{fill:#155B51;}
	.st12{fill:#F2E6C4;}
	.st13{opacity:0.5;fill:#D6C296;}
	.st14{fill:#00A490;}
	.st15{clip-path:url(#SVGID_4_);}
	.st16{clip-path:url(#SVGID_4_);fill:#155B51;}
	.st17{opacity:0.1;clip-path:url(#SVGID_4_);fill:#FFFFFF;}
	.st18{opacity:0.3;fill:#FFFFFF;}
	.st19{opacity:0.2;fill:#155B51;}
	.st20{opacity:0.4;fill:#155B51;}
	.st21{opacity:0.1;}
	.st22{clip-path:url(#SVGID_6_);fill:#FFFFFF;}
	.st23{opacity:4.000000e-002;clip-path:url(#SVGID_4_);fill:#FFFFFF;}
	.st24{fill:#D8AB52;}
	.st25{opacity:0.19;fill:#FFFFFF;}
	.st26{fill:#D6C296;}
	.st27{fill:#00F1D3;stroke:#00A490;stroke-width:2;stroke-miterlimit:10;}
	.st28{fill:none;stroke:#00A490;stroke-width:2;stroke-miterlimit:10;}
	.st29{fill:#A4FFF2;}
	.st30{clip-path:url(#SVGID_10_);fill:#FFFFFF;}
	.st31{clip-path:url(#SVGID_12_);}
	.st32{clip-path:url(#SVGID_12_);fill:#00F1D3;}
	.st33{clip-path:url(#SVGID_14_);fill:#FFFFFF;}
	.st34{clip-path:url(#SVGID_16_);}
	.st35{fill:#968D78;}
	.st36{opacity:0.5;fill:#F2E6C4;}
	.st37{fill:#A42000;}
	.st38{opacity:0.5;fill:#FF4317;}
	.st39{opacity:0.2;fill:#F2E6C4;}
	.st40{fill:#827F7A;}
	.st41{opacity:0.5;fill:#AAA393;}
	.st42{opacity:0.5;fill:#EAE9C1;}
	.st43{fill:#A4FFF2;stroke:#00A490;stroke-width:2;stroke-miterlimit:10;}
	.st44{fill:#F9E8BD;}
	.st45{opacity:0.21;fill:#968D78;}
	.st46{opacity:0.5;fill:#1CB7A1;}
	.st47{opacity:0.5;fill:#FFFFFF;}
	.st48{fill:none;}
	.st49{clip-path:url(#SVGID_24_);fill:#FFFFFF;}
	.st50{clip-path:url(#SVGID_26_);fill:#155B51;}
	.st51{opacity:0.1;clip-path:url(#SVGID_26_);fill:#FFFFFF;}
	.st52{clip-path:url(#SVGID_30_);}
	.st53{clip-path:url(#SVGID_30_);fill:#D6C296;}
	.st54{opacity:5.000000e-002;}
	.st55{opacity:0.5;fill:#968D78;}
	.st56{clip-path:url(#SVGID_36_);}
	.st57{clip-path:url(#SVGID_36_);fill:#00F1D3;}
	.st58{clip-path:url(#SVGID_38_);fill:#FFFFFF;}
	.st59{opacity:0.5;}
	.st60{clip-path:url(#SVGID_44_);}
	.st61{clip-path:url(#SVGID_44_);fill:#155B51;}
	.st62{opacity:0.1;clip-path:url(#SVGID_44_);fill:#FFFFFF;}
	.st63{clip-path:url(#SVGID_46_);fill:#FFFFFF;}
	.st64{opacity:4.000000e-002;clip-path:url(#SVGID_44_);fill:#FFFFFF;}
	.st65{clip-path:url(#SVGID_52_);fill:#155B51;}
	.st66{opacity:0.1;clip-path:url(#SVGID_52_);fill:#FFFFFF;}
	.st67{clip-path:url(#SVGID_56_);}
	.st68{clip-path:url(#SVGID_56_);fill:#D6C296;}
	.st69{clip-path:url(#SVGID_62_);}
	.st70{opacity:0.21;}
</style>
<g id="Layer_1">
	<g>
		<circle class="st26" cx="28.9" cy="28.9" r="28.9"/>
		<path class="st12" d="M28.9,52.9C15.7,52.9,5,42.1,5,28.9S15.7,5,28.9,5c13.2,0,23.9,10.7,23.9,23.9S42.1,52.9,28.9,52.9z"/>
		<path class="st26" d="M9.9,43.5c0,0,1.6,1.8,2,2.3l13.2-8.6c0,0,0.7-0.5,0.5-1.5l13.8-8.9c0,0,2.1,1.3,4.4,0.7
			c2.3-0.6,10-5.7,10-5.7l-5.3-3.4l-13.5,7L9.9,43.5z"/>
		<g>
			<path class="st35" d="M8.7,44.5c-0.8,0-1.6-0.2-2.4-0.7c-0.9-0.5-1.5-1.3-1.9-2c-0.4-0.9-0.4-1.9,0.1-2.6
				c0.3-0.5,0.7-0.8,1.2-1.1l12.1-7.7l0,0c0.4-0.2,0.9-0.4,1.4-0.4c0.1,0,0.3,0,0.5,0l13-8.2c-0.8-1.1-1.1-3.1-0.4-4.6
				c0.8-2,6.7-5.2,11.7-7.6c0.6-0.3,1.2-0.5,1.7-0.5c0.2,0,0.4,0,0.5,0.1c5.6,1.2,9.1,3.5,9.3,3.6l0.3,0.2l0.1,0.3
				c0,0,0.4,0.8,0.7,1.5c0.5,1.2,0.2,3-6.3,7.3c-2.8,1.8-6.6,3.6-7.8,3.8c-0.1,0-0.2,0-0.4,0c-0.7,0-1.8-0.2-3.5-0.6L24,34.5
				c-0.1,0.5-0.4,1.2-1.2,1.8l-11.7,7.5C10.4,44.2,9.6,44.5,8.7,44.5z"/>
			<path class="st35" d="M55.6,15.2c-0.3-0.7-0.7-1.5-0.7-1.5s-3.5-2.3-9-3.4c0,0-0.4-0.2-1.4,0.3c-1,0.5-11,5.4-11.1,7.1
				c-0.7,1.3-0.2,3,0.4,3.7c0.1,0.2,0.4,0.4,0.8,0.6L20,31.2c-0.9-0.2-1.1-0.1-2.1,0.5l0,0L6.3,39c-0.5,0.2-0.6,0.4-0.8,0.7
				c-0.5,0.9,0,2.2,1.4,3.1c1.4,0.9,2.7,0.6,3.5,0l11.6-7.4l0,0c0.9-0.6,0.8-1.1,0.7-1.5L38.5,24c1.1,0.3,3.3,0.8,3.9,0.7
				c0.9-0.1,4.6-1.8,7.3-3.6C52.5,19.3,56.2,16.5,55.6,15.2z"/>
			<path class="st36" d="M9.5,42.1c0,0-0.2-1.2-1.3-2c-1.1-0.8-2-0.3-2.1-0.1c-0.2,0.3,0,1.5,1,2.3C8.2,43,9.7,43.1,9.5,42.1z"/>
			<path class="st36" d="M10.3,42.4c0,0,11.7-7.2,11.8-7.3c0.6-0.6,0.2-1.4,0.2-1.4c-0.3-0.6-1.5-1.5-2.1-2c-0.6-0.5-1.5,0-1.5,0
				L6.9,39.1C6.9,39.1,9.6,38.9,10.3,42.4z"/>
			<path class="st12" d="M21.5,30.8c0,0,1.2,0.8,1.9,2.1l15.1-9.6c0,0,3,1,4.3,0.6c1.4-0.4,9.8-4.4,12.5-8.6l-0.6-1.4
				c0,0-10.1,7.7-12.2,7.8c-1.5,0-8.8-0.9-8.7-3.9c0,0-1.2,2.8,1.3,4.2L21.5,30.8z"/>
			<path class="st35" d="M35.2,22c0,0,0.7-0.7,2,0c0,0-1.1-1.2-2.6-0.2L35.2,22z"/>
			<path class="st35" d="M38.1,23.6c0,0,0.3-0.4-0.5-1.5c0,0,0.9,0.5,1.3,1.4L38.1,23.6z"/>
			<path class="st12" d="M36.5,19.7c-0.7-0.3-1.3-0.9-1.5-1.7c-0.1-0.3-0.1-0.7,0.1-0.9c0.5-0.8,9.7-6.4,10.4-6.5s8.4,2.4,8.6,2.8
				s-10,6.7-10,6.7S41.5,22,36.5,19.7z"/>
			<path class="st35" d="M45.9,12.1c0,0-0.2-0.4-0.8-0.3c-0.6,0.1-7.8,4.7-7.8,4.7s-0.3,0.3-0.2,0.6s0.4,0.5,1.5,0
				S46,12.7,45.9,12.1z"/>
			<path class="st35" d="M48.6,13c0,0-0.2-0.4-0.8-0.3S40,17.4,40,17.4s-0.3,0.3-0.2,0.6s0.4,0.5,1.5,0S48.7,13.6,48.6,13z"/>
			<path class="st35" d="M51.3,13.9c0,0-0.2-0.4-0.8-0.3s-7.8,4.7-7.8,4.7s-0.3,0.3-0.2,0.6c0.1,0.4,0.4,0.5,1.5,0
				C45,18.3,51.4,14.5,51.3,13.9z"/>
			<path class="st55" d="M25.2,28.2l0.1,0.2c0,0-1.3,1.3-1.3,2s12.3-7.1,12.6-7.5s-1.8-0.5-1.8-0.5s-0.1-0.8,0.6-0.7
				s2.1-0.2,3.2,1.8l0,0.7l-15.3,9.5l-2.3-2.8L25.2,28.2z"/>
			<path class="st55" d="M33.7,18.4c0,0-0.1,1.2,1.3,2s6.3,1.8,7.2,1.8c0.9,0,1.8-0.4,3.3-1.2c1.5-0.8,7.3-4.5,9.9-7l0.6,1.4
				c0,0-3.4,3.9-7.4,6.4s-6.9,3-8.1,2.6c-1.2-0.4-2-0.9-2-0.9s-0.3-1.7-2.4-1.9c0,0-0.8,0-1.4,0.5s-1.2-1.3-1.2-1.3L33.7,18.4z"/>
		</g>
	</g>
</g>
<g id="Layer_2">
</g>
</svg>
